<svg xmlns="http://www.w3.org/2000/svg" xmlns:xlink="http://www.w3.org/1999/xlink" width="214.805" height="231" viewBox="0 0 214.805 231"><defs><linearGradient id="a" x1="0.189" y1="0.5" x2="0.811" y2="0.5" gradientUnits="objectBoundingBox"><stop offset="0" stop-color="#6c2196"/><stop offset="0.239" stop-color="#74289d"/><stop offset="0.611" stop-color="#893eb3"/><stop offset="1" stop-color="#a85cd1"/></linearGradient><linearGradient id="b" x1="0.204" y1="0.5" x2="0.796" y2="0.5" gradientUnits="objectBoundingBox"><stop offset="0" stop-color="#7568d4"/><stop offset="1" stop-color="#4424af"/></linearGradient><linearGradient id="c" x1="0.429" y1="0.802" x2="0.749" y2="0.478" gradientUnits="objectBoundingBox"><stop offset="0" stop-color="#6456c4"/><stop offset="0.149" stop-color="#6e60c9"/><stop offset="0.407" stop-color="#897dd6"/><stop offset="0.741" stop-color="#b6aaec"/><stop offset="1" stop-color="#ddd3ff"/></linearGradient><linearGradient id="d" x1="0.219" y1="0.595" x2="0.539" y2="0.271" xlink:href="#c"/><linearGradient id="e" x1="98.166" y1="0.97" x2="97.527" y2="0.415" gradientUnits="objectBoundingBox"><stop offset="0" stop-color="#b6b0ff"/><stop offset="0.279" stop-color="#cdc9ff"/><stop offset="0.751" stop-color="#f1eeff"/><stop offset="1" stop-color="#fffdff"/></linearGradient><linearGradient id="f" x1="178.912" y1="0.5" x2="179.912" y2="0.5" gradientUnits="objectBoundingBox"><stop offset="0" stop-color="#b6b0ff"/><stop offset="0.241" stop-color="#aaa3ff"/><stop offset="0.663" stop-color="#9c94ff"/><stop offset="1" stop-color="#978fff"/></linearGradient><linearGradient id="g" x1="97.594" y1="0.526" x2="97.594" y2="1.131" xlink:href="#f"/></defs><g transform="translate(-99.046 -841.961)"><g transform="translate(145.422 841.961)"><g transform="translate(14.787)"><rect width="125.005" height="77.742" rx="12.644" transform="translate(0 125.005) rotate(-90)" fill="url(#a)"/><rect width="125.005" height="12.804" transform="translate(53.454 125.005) rotate(-90)" fill="#1a145b"/><rect width="65.445" height="15.548" transform="translate(28.13 120.322) rotate(-90)" fill="#fafbff" opacity="0.4" style="mix-blend-mode:screen;isolation:isolate"/><rect width="42.072" height="15.548" transform="translate(28.13 48.474) rotate(-90)" fill="#f8f6ff" opacity="0.4" style="mix-blend-mode:screen;isolation:isolate"/><rect width="86.888" height="3.658" transform="translate(16.951 93.29) rotate(-90)" fill="#171754"/><rect width="69.176" height="3.658" transform="translate(8.719 75.579) rotate(-90)" fill="#171754"/><path d="M216.488,966.967H180.482a10.975,10.975,0,0,1-10.975-10.975V852.937a10.975,10.975,0,0,1,10.975-10.976Z" transform="translate(-169.507 -841.961)" fill="#1a145b" opacity="0.4" style="mix-blend-mode:multiply;isolation:isolate"/></g><g transform="translate(0 36.464)"><rect width="107.316" height="194.536" rx="8.126" fill="#9087f4"/><path d="M5.9,0h91.65a5.9,5.9,0,0,1,5.9,5.9v178.87a5.9,5.9,0,0,1-5.9,5.9H5.9a5.9,5.9,0,0,1-5.9-5.9V5.9A5.9,5.9,0,0,1,5.9,0Z" transform="translate(1.928 1.929)" fill="#171754"/><g transform="translate(37.808 5.991)"><path d="M217.773,897.512H199.348a3.321,3.321,0,1,1,0-6.641h18.425a3.321,3.321,0,0,1,0,6.641Zm-18.425-6.12a2.8,2.8,0,1,0,0,5.6h18.425a2.8,2.8,0,0,0,0-5.6Z" transform="translate(-196.027 -890.871)" fill="#6456c4"/></g><g transform="translate(65.588 5.953)"><path d="M231.388,897.544a3.358,3.358,0,1,1,3.358-3.359A3.363,3.363,0,0,1,231.388,897.544Zm0-6.2a2.838,2.838,0,1,0,2.838,2.838A2.841,2.841,0,0,0,231.388,891.348Z" transform="translate(-228.03 -890.827)" fill="#6456c4"/></g><rect width="156.924" height="92.96" rx="4.48" transform="translate(100.138 18.568) rotate(90)" fill="url(#b)"/><path d="M258.724,1017.112,198.8,1077.03h27.606l32.313-32.312Z" transform="translate(-158.586 -901.538)" opacity="0.2" fill="url(#c)" style="mix-blend-mode:screen;isolation:isolate"/><path d="M160.74,961.153v34.218l89.92-89.917a3.905,3.905,0,0,0-.847-.1H216.535Z" transform="translate(-153.563 -886.791)" opacity="0.2" fill="url(#d)" style="mix-blend-mode:screen;isolation:isolate"/><g transform="translate(25.469 43.434)"><path d="M184.891,947.471h51.033L211.154,934.4l-.276-.146-.3-.16-.166-.089-.167.089-.3.16-.276.146Zm42.8-2.094h-34.57l17.284-9.12Z" transform="translate(-182.219 -934.006)" fill="#9087f4"/><path d="M185.862,951.416v-.875h49.347v.875H185.862Z" transform="translate(-182.347 -936.188)" fill="#9087f4"/><rect width="49.348" height="2.059" transform="translate(3.515 41.932)" fill="#9087f4"/><path d="M184.439,985.708H238.19v2.059H181.812v-2.059Z" transform="translate(-181.812 -940.829)" fill="#9087f4"/><rect width="5.302" height="1.321" transform="translate(46.107 16.117)" fill="#9087f4"/><rect width="5.302" height="1.321" transform="translate(46.107 39.722)" fill="#9087f4"/><rect width="3.976" height="20.507" transform="translate(46.769 18.326)" fill="#9087f4"/><rect width="5.301" height="1.321" transform="translate(18.564 16.117)" fill="#9087f4"/><rect width="5.301" height="1.321" transform="translate(18.564 39.722)" fill="#9087f4"/><rect width="3.976" height="20.507" transform="translate(19.226 18.326)" fill="#9087f4"/><rect width="5.302" height="1.321" transform="translate(32.335 16.117)" fill="#9087f4"/><rect width="5.302" height="1.321" transform="translate(32.335 39.722)" fill="#9087f4"/><rect width="3.976" height="20.507" transform="translate(32.997 18.326)" fill="#9087f4"/><rect width="5.302" height="1.321" transform="translate(4.792 16.117)" fill="#9087f4"/><rect width="5.302" height="1.321" transform="translate(4.792 39.722)" fill="#9087f4"/><rect width="3.976" height="20.507" transform="translate(5.455 18.326)" fill="#9087f4"/></g><path d="M164.629,905.359h85.183a3.889,3.889,0,0,1,3.716,2.744,3.869,3.869,0,0,0-1.889-.491H165.381a2.814,2.814,0,0,0-2.813,2.814v150.221a3.868,3.868,0,0,0,.172,1.145,3.886,3.886,0,0,1-2-3.4V909.248A3.889,3.889,0,0,1,164.629,905.359Z" transform="translate(-153.563 -886.791)" fill="#786cf2" opacity="0.4" style="mix-blend-mode:multiply;isolation:isolate"/><g transform="translate(24.008 121.298)"><path d="M182.937,1029.429h45.744a2.808,2.808,0,0,0,2.808-2.808h0a2.808,2.808,0,0,0-2.808-2.808H182.937a2.808,2.808,0,0,0-2.808,2.808h0A2.808,2.808,0,0,0,182.937,1029.429Z" transform="translate(-180.129 -1023.72)" fill="#9087f4"/><path d="M250.03,1026.607a2.9,2.9,0,1,1-2.9-2.9A2.9,2.9,0,0,1,250.03,1026.607Z" transform="translate(-188.587 -1023.706)" fill="#9087f4"/><g transform="translate(0 14.82)"><circle cx="2.901" cy="2.901" r="2.901" transform="translate(55.64)" fill="#9087f4"/><path d="M231.489,1043.7a2.816,2.816,0,0,1-2.81,2.807H182.936a2.807,2.807,0,1,1,0-5.615h45.743a2.808,2.808,0,0,1,2.81,2.807Z" transform="translate(-180.129 -1040.794)" fill="#9087f4"/></g><g transform="translate(0 29.735)"><path d="M182.937,1063.577h55.826a2.808,2.808,0,0,0,2.808-2.808h0a2.808,2.808,0,0,0-2.808-2.808H182.937a2.808,2.808,0,0,0-2.808,2.808h0A2.808,2.808,0,0,0,182.937,1063.577Z" transform="translate(-180.129 -1057.961)" fill="#9087f4"/></g></g><path d="M219.213,1096.218a6.091,6.091,0,1,1-6.091-6.091A6.092,6.092,0,0,1,219.213,1096.218Z" transform="translate(-159.671 -911.173)" fill="#9087f4"/></g></g><g transform="translate(203.722 976.217)"><path d="M302.208,1021.651v-11.9a13.122,13.122,0,0,0-13.122-13.122h-51.13v30.281h14.065v50.019a14.953,14.953,0,0,0,29.907,0v5.18h20.344v-60.456Z" transform="translate(-222.053 -996.627)" fill="url(#e)"/><g transform="translate(37.051 21.671)"><path d="M263.789,1024.533h35.131a1.47,1.47,0,1,0,0-2.941H263.789a1.47,1.47,0,1,0,0,2.941Z" transform="translate(-262.319 -1021.592)" fill="#bcb6f9"/></g><g transform="translate(37.051 49.603)"><path d="M263.789,1056.712h5.631a1.47,1.47,0,0,0,0-2.941h-5.631a1.47,1.47,0,1,0,0,2.941Z" transform="translate(-262.319 -1053.771)" fill="#bcb6f9"/></g><g transform="translate(61.661 9.563)"><path d="M292.14,1010.585h5.63a1.47,1.47,0,1,0,0-2.941h-5.63a1.47,1.47,0,1,0,0,2.941Z" transform="translate(-290.67 -1007.644)" fill="#bcb6f9"/></g><g transform="translate(47.893 49.603)"><path d="M276.279,1056.712h24.29a1.47,1.47,0,1,0,0-2.941h-24.29a1.47,1.47,0,0,0,0,2.941Z" transform="translate(-274.809 -1053.771)" fill="#bcb6f9"/></g><g transform="translate(37.051 35.398)"><path d="M263.789,1040.347h35.131a1.47,1.47,0,1,0,0-2.941H263.789a1.47,1.47,0,1,0,0,2.941Z" transform="translate(-262.319 -1037.406)" fill="#bcb6f9"/></g><path d="M249.541,1029.962V1011.58a14.953,14.953,0,1,0-29.906,0v18.382Z" transform="translate(-219.635 -996.627)" fill="url(#f)"/><g transform="translate(45.87 62.099)"><path d="M336.737,1068.166v20.026a13.133,13.133,0,0,1-13.127,13.128H272.478v-.029a14.98,14.98,0,0,0,14.015-14.933v-18.066l3.478,3.471,3.6-3.6,3.6,3.6,3.6-3.6,3.6,3.6,3.6-3.6,3.6,3.6,3.6-3.6,3.6,3.6,3.6-3.6,3.6,3.6,3.6-3.6,3.6,3.6Z" transform="translate(-272.478 -1068.166)" fill="url(#g)"/></g><g transform="translate(42.174 59.121)"><g transform="translate(0 2.616)"><path d="M269.323,1087.712h5.215a4.77,4.77,0,0,0,4.765-4.765v-1.554a4.77,4.77,0,0,0-4.765-4.765h-1.554a2.562,2.562,0,0,1-2.559-2.559v-1.554a2.562,2.562,0,0,1,2.559-2.559H278.2a1.1,1.1,0,0,0,0-2.207h-5.216a4.771,4.771,0,0,0-4.765,4.765v1.554a4.771,4.771,0,0,0,4.765,4.766h1.554a2.562,2.562,0,0,1,2.559,2.559v1.554a2.562,2.562,0,0,1-2.559,2.559h-5.215a1.1,1.1,0,1,0,0,2.206Z" transform="translate(-268.22 -1067.75)" fill="#bcb6f9"/></g><g transform="translate(4.62 20.523)"><path d="M274.644,1093.052a1.1,1.1,0,0,0,1.1-1.1v-2.467a1.1,1.1,0,0,0-2.206,0v2.467A1.1,1.1,0,0,0,274.644,1093.052Z" transform="translate(-273.542 -1088.379)" fill="#bcb6f9"/></g><g transform="translate(4.62)"><path d="M274.644,1069.362a1.1,1.1,0,0,0,1.1-1.1v-2.42a1.1,1.1,0,0,0-2.206,0v2.42A1.1,1.1,0,0,0,274.644,1069.362Z" transform="translate(-273.542 -1064.736)" fill="#bcb6f9"/></g></g></g><g transform="translate(263.423 854.06)"><g transform="translate(15.979 84.57)"><path d="M319.688,979.062a12.868,12.868,0,1,1,12.868-12.869A12.883,12.883,0,0,1,319.688,979.062Zm0-24a11.132,11.132,0,1,0,11.132,11.132A11.145,11.145,0,0,0,319.688,955.061Z" transform="translate(-306.82 -953.325)" fill="#aea7fa"/><g transform="translate(8.874 4.069)"><g transform="translate(0 1.782)"><path d="M321.565,974.1h-3.552a.971.971,0,0,1,0-1.942h3.552a1.524,1.524,0,0,0,1.523-1.522v-1.058a1.525,1.525,0,0,0-1.523-1.523h-1.058a3.468,3.468,0,0,1-3.464-3.464v-1.058a3.469,3.469,0,0,1,3.464-3.465h3.552a.971.971,0,1,1,0,1.942h-3.552a1.525,1.525,0,0,0-1.523,1.523v1.058a1.524,1.524,0,0,0,1.523,1.523h1.058a3.469,3.469,0,0,1,3.465,3.465v1.058A3.469,3.469,0,0,1,321.565,974.1Z" transform="translate(-317.043 -960.066)" fill="#9087f4"/></g><g transform="translate(3.147 13.976)"><path d="M321.638,977.735a.97.97,0,0,1-.97-.97v-1.681a.97.97,0,0,1,1.941,0v1.681A.97.97,0,0,1,321.638,977.735Z" transform="translate(-320.668 -974.114)" fill="#9087f4"/></g><g transform="translate(3.147)"><path d="M321.638,961.6a.971.971,0,0,1-.97-.971v-1.647a.97.97,0,1,1,1.941,0v1.647A.971.971,0,0,1,321.638,961.6Z" transform="translate(-320.668 -958.013)" fill="#9087f4"/></g></g></g><g transform="translate(0 40.564)"><path d="M300.446,926.695a12.033,12.033,0,1,1,12.033-12.033A12.047,12.047,0,0,1,300.446,926.695Zm0-22.329a10.3,10.3,0,1,0,10.3,10.3A10.309,10.309,0,0,0,300.446,904.365Z" transform="translate(-288.412 -902.629)" fill="#aea7fa"/><g transform="translate(8.25 3.779)"><g transform="translate(0 1.658)"><path d="M302.192,922.085h-3.3a.971.971,0,1,1,0-1.942h3.3a1.351,1.351,0,0,0,1.35-1.349v-.984a1.351,1.351,0,0,0-1.35-1.35h-.984a3.3,3.3,0,0,1-3.292-3.292v-.984a3.3,3.3,0,0,1,3.292-3.292h3.3a.971.971,0,0,1,0,1.942h-3.3a1.352,1.352,0,0,0-1.35,1.35v.984a1.352,1.352,0,0,0,1.35,1.35h.984a3.3,3.3,0,0,1,3.291,3.292v.984A3.294,3.294,0,0,1,302.192,922.085Z" transform="translate(-297.916 -908.892)" fill="#9087f4"/></g><g transform="translate(2.928 13.004)"><path d="M302.259,925.467a.97.97,0,0,1-.97-.971v-1.563a.97.97,0,0,1,1.941,0V924.5A.97.97,0,0,1,302.259,925.467Z" transform="translate(-301.289 -921.963)" fill="#9087f4"/></g><g transform="translate(2.928)"><path d="M302.259,910.458a.971.971,0,0,1-.97-.971v-1.533a.97.97,0,1,1,1.941,0v1.533A.971.971,0,0,1,302.259,910.458Z" transform="translate(-301.289 -906.982)" fill="#9087f4"/></g></g></g><g transform="translate(13.862)"><path d="M313.431,874a9.049,9.049,0,1,1,9.048-9.049A9.06,9.06,0,0,1,313.431,874Zm0-16.363a7.313,7.313,0,1,0,7.312,7.313A7.322,7.322,0,0,0,313.431,857.635Z" transform="translate(-304.381 -855.899)" fill="#aea7fa"/><g transform="translate(6.018 2.741)"><g transform="translate(0 1.215)"><path d="M314.706,870.643h-2.422a.971.971,0,0,1,0-1.942h2.422a.73.73,0,0,0,.729-.729v-.721a.73.73,0,0,0-.729-.729h-.721a2.674,2.674,0,0,1-2.671-2.672v-.721a2.674,2.674,0,0,1,2.671-2.671h2.422a.971.971,0,0,1,0,1.942h-2.422a.73.73,0,0,0-.73.729v.721a.731.731,0,0,0,.73.73h.721a2.674,2.674,0,0,1,2.671,2.671v.721A2.674,2.674,0,0,1,314.706,870.643Z" transform="translate(-311.314 -860.457)" fill="#9087f4"/></g><g transform="translate(2.145 9.528)"><path d="M314.755,873.122a.97.97,0,0,1-.97-.971v-1.145a.97.97,0,1,1,1.941,0v1.145A.971.971,0,0,1,314.755,873.122Z" transform="translate(-313.785 -870.034)" fill="#9087f4"/></g><g transform="translate(2.145)"><path d="M314.755,862.123a.97.97,0,0,1-.97-.971v-1.123a.97.97,0,1,1,1.941,0v1.123A.971.971,0,0,1,314.755,862.123Z" transform="translate(-313.785 -859.057)" fill="#9087f4"/></g></g></g><g transform="translate(26.16 144.921)"><path d="M327.6,1040.949a9.049,9.049,0,1,1,9.049-9.049A9.06,9.06,0,0,1,327.6,1040.949Zm0-16.362a7.313,7.313,0,1,0,7.313,7.313A7.322,7.322,0,0,0,327.6,1024.587Z" transform="translate(-318.549 -1022.851)" fill="#aea7fa"/><g transform="translate(6.018 2.74)"><g transform="translate(0 1.215)"><path d="M328.874,1037.594h-2.422a.971.971,0,0,1,0-1.942h2.422a.73.73,0,0,0,.729-.729v-.721a.73.73,0,0,0-.729-.729h-.721a2.674,2.674,0,0,1-2.671-2.672v-.721a2.674,2.674,0,0,1,2.671-2.672h2.421a.971.971,0,1,1,0,1.942h-2.421a.731.731,0,0,0-.73.73v.721a.73.73,0,0,0,.73.73h.721a2.674,2.674,0,0,1,2.671,2.671v.721A2.674,2.674,0,0,1,328.874,1037.594Z" transform="translate(-325.482 -1027.408)" fill="#9087f4"/></g><g transform="translate(2.145 9.528)"><path d="M328.923,1040.073a.97.97,0,0,1-.97-.97v-1.146a.97.97,0,1,1,1.941,0v1.146A.97.97,0,0,1,328.923,1040.073Z" transform="translate(-327.953 -1036.985)" fill="#9087f4"/></g><g transform="translate(2.145)"><path d="M328.923,1029.074a.971.971,0,0,1-.97-.971v-1.123a.97.97,0,1,1,1.941,0v1.123A.971.971,0,0,1,328.923,1029.074Z" transform="translate(-327.953 -1026.008)" fill="#9087f4"/></g></g></g></g><g transform="translate(99.047 1017.456)"><g transform="translate(0 42.816)"><rect width="52.254" height="12.688" rx="3.583" transform="translate(0 0)" fill="#ffc587"/><path d="M148.19,1103.579H102.157a3.11,3.11,0,0,1-3.11-3.11v3.494a3.11,3.11,0,0,0,3.11,3.11H148.19a3.11,3.11,0,0,0,3.11-3.11v-3.494A3.11,3.11,0,0,1,148.19,1103.579Z" transform="translate(-99.047 -1094.385)" fill="#ffa15e"/><path d="M154.626,1093.46h-6.811a3.111,3.111,0,0,1,3.11,3.111v6.467a3.11,3.11,0,0,1-3.11,3.11h6.811a3.11,3.11,0,0,0,3.11-3.11v-6.467A3.111,3.111,0,0,0,154.626,1093.46Z" transform="translate(-105.482 -1093.46)" fill="#ffa15e"/><path d="M120.182,1103.038v-6.467a3.111,3.111,0,0,1,3.111-3.111h-7.858a3.111,3.111,0,0,0-3.11,3.111v6.467a3.11,3.11,0,0,0,3.11,3.11h7.858A3.111,3.111,0,0,1,120.182,1103.038Z" transform="translate(-100.799 -1093.46)" fill="#fff"/></g><g transform="translate(9.715)"><path d="M158.5,1064.01v3.75a19.883,19.883,0,0,1-19.888,19.876h-6.14a13.741,13.741,0,0,1-13.748-13.737v-15.1a14.671,14.671,0,0,1,14.679-14.667h5.208a19.875,19.875,0,0,1,18.159,11.775l-2.99,2.121h3.8A19.682,19.682,0,0,1,158.5,1064.01Z" transform="translate(-111.358 -1044.135)" fill="#ffa15e"/><path d="M150,1064.01v3.75a19.882,19.882,0,0,1-39.763,0v-2.169h1.569l-1.569-1.016v-.564a19.882,19.882,0,0,1,39.763,0Z" transform="translate(-110.238 -1044.135)" fill="#ffc587"/><path d="M120.364,1085.343l27.525-30.695a19.964,19.964,0,0,0-4.91-5.626l-28.1,31.341A19.928,19.928,0,0,0,120.364,1085.343Z" transform="translate(-110.85 -1044.78)" fill="#fff"/><path d="M152.679,1070.6v-3.75c0-.391-.015-.779-.037-1.164l-22.111,24.658a19.409,19.409,0,0,0,4.655-.016l17.487-19.5C152.674,1070.755,152.679,1070.68,152.679,1070.6Z" transform="translate(-112.916 -1046.979)" fill="#fff"/><g transform="translate(3.67 3.671)"><path d="M130.674,1084.522a16.226,16.226,0,0,1-16.208-16.209v-3.741a16.208,16.208,0,0,1,32.417,0v3.741A16.227,16.227,0,0,1,130.674,1084.522Zm0-33.707a13.773,13.773,0,0,0-13.758,13.757v3.741a13.758,13.758,0,1,0,27.515,0v-3.741A13.772,13.772,0,0,0,130.674,1050.815Z" transform="translate(-114.466 -1048.364)" fill="#ffa15e"/></g><path d="M131.577,1071.813l-6.349,4.238,2.069-7.348-5.993-4.729,7.628-.3,2.646-7.161,2.646,7.161,7.628.3-5.993,4.729,2.069,7.348Z" transform="translate(-111.698 -1045.768)" fill="#ffa15e"/></g></g></g></svg>