<?xml version="1.0" encoding="utf-8"?>
<!-- Generator: Adobe Illustrator 26.5.0, SVG Export Plug-In . SVG Version: 6.00 Build 0)  -->
<svg version="1.1" id="Layer_1" xmlns="http://www.w3.org/2000/svg" xmlns:xlink="http://www.w3.org/1999/xlink" x="0px" y="0px"
	 viewBox="0 0 1084.3 669.4" style="enable-background:new 0 0 1084.3 669.4;" xml:space="preserve">
<style type="text/css">
	.st0{fill:#BAD4F5;}
	.st1{fill:#F8F7FF;}
	.st2{fill:#DDD6FF;}
	.st3{fill:#C4B8FF;}
	.st4{fill:#40327A;}
	.st5{fill:#FFD4CC;}
	.st6{fill:#FFD259;}
	.st7{fill:#FF9D45;}
	.st8{fill:#FFE159;}
	.st9{fill:#FFC359;}
	.st10{fill:#FF95A9;}
	.st11{fill:#7760DB;}
	.st12{fill:#FFFFFF;}
	.st13{fill:none;}
	.st14{opacity:0.4;fill:#A8C4E5;enable-background:new    ;}
	.st15{fill:#8478EB;}
	.st16{fill:#5349BF;}
	.st17{fill:#2B1BA8;}
	.st18{clip-path:url(#SVGID_00000002345042368261202290000005021445108695548594_);}
	.st19{fill:#4B42AD;}
	.st20{clip-path:url(#SVGID_00000074430373104234526500000017930355222794607020_);}
	.st21{fill:#A89EFF;}
</style>
<g transform="translate(-259.092 -165.475)">
	<circle class="st0" cx="1277.5" cy="266.2" r="21.2"/>
	<circle class="st0" cx="363" cy="732.7" r="29.3"/>
	<path class="st0" d="M1319.8,321c6-5.1,15.1-4.3,20.2,1.7c5.1,6,4.3,15.1-1.7,20.2s-15.1,4.3-20.2-1.7c0,0,0,0,0,0
		C1313,335.1,1313.8,326.1,1319.8,321C1319.8,321,1319.8,321,1319.8,321z"/>
	<circle class="st0" cx="278" cy="707.2" r="18.3"/>
	<path class="st0" d="M389.5,212.9c3.8-3.2,9.4-2.7,12.5,1.1c3.2,3.8,2.7,9.4-1.1,12.5c-3.8,3.2-9.4,2.7-12.5-1.1c0,0,0,0,0,0
		C385.3,221.7,385.8,216.1,389.5,212.9C389.5,212.9,389.5,212.9,389.5,212.9z"/>
	<circle class="st0" cx="1308.7" cy="797.8" r="8.9"/>
	<path class="st0" d="M289.9,286.6c3.8-3.2,9.4-2.7,12.5,1.1s2.7,9.4-1.1,12.5c-3.8,3.2-9.4,2.7-12.5-1.1c0,0,0,0,0,0
		C285.7,295.3,286.2,289.7,289.9,286.6C289.9,286.6,289.9,286.6,289.9,286.6z"/>
	<path class="st1" d="M683.2,794.6h413.6c139.6-81.2,179.8-180.5,166.1-228.7c-17.2-60.6-60.7-78.5-107.1-110.4
		c-55.8-38.3,41.8-137.1,32-189.5c-15.5-83.1-134.1-77.7-251.7,130.2c-49.6,87.6-117.5-76-172.9-95.3
		c-51.4-17.8-206.7,62.8-46.1,244.4C768.3,603.2,516.2,627.5,683.2,794.6z"/>
	<path class="st1" d="M635.5,518.9c-0.8-7.1-2.9-12-7.8-14.6c-14.6-7.9-51.2,4.9-66.5,24.7c-21.2,27.6-1.9,70.1,18.8,72.9
		C604,605,639.6,555.6,635.5,518.9z"/>
	<path class="st2" d="M936.5,813.7L936.5,813.7z"/>
	<rect x="736.7" y="812.5" class="st2" width="199.8" height="2.4"/>
	<path class="st2" d="M796.5,831.8L796.5,831.8z"/>
	<rect x="714.1" y="830.6" class="st2" width="82.4" height="2.4"/>
	<path class="st2" d="M1021.8,831.8L1021.8,831.8z"/>
	<rect x="849.6" y="830.6" class="st2" width="172.2" height="2.4"/>
	<path class="st2" d="M702.1,813.9L702.1,813.9z"/>
	<rect x="650" y="812.8" class="st2" width="52.2" height="2.4"/>
	<path class="st2" d="M1130.1,813.7L1130.1,813.7z"/>
	<rect x="976.4" y="812.5" class="st2" width="153.8" height="2.4"/>
	<rect x="593.9" y="793.4" class="st3" width="623.6" height="2.4"/>
	<rect x="1126.5" y="793.4" class="st4" width="10.9" height="2.4"/>
	<path class="st1" d="M1056.3,794.6L1056.3,794.6z"/>
	<rect x="1056.3" y="793.4" class="st4" width="54.9" height="2.4"/>
	<rect x="744.4" y="793.4" class="st4" width="16.7" height="2.4"/>
	<path class="st1" d="M776.7,794.6L776.7,794.6z"/>
	<rect x="776.7" y="793.4" class="st4" width="199.6" height="2.4"/>
	<rect x="1011.7" y="165.5" class="st3" width="2.4" height="6.7"/>
	<rect x="1011.7" y="205.5" class="st3" width="2.4" height="6.7"/>
	<rect x="1001.7" y="168.2" transform="matrix(0.866 -0.5 0.5 0.866 48.6032 524.3934)" class="st3" width="2.4" height="6.7"/>
	<rect x="1021.7" y="202.8" transform="matrix(0.866 -0.5 0.5 0.866 33.9505 539.0682)" class="st3" width="2.4" height="6.7"/>
	<rect x="994.4" y="175.5" transform="matrix(0.5 -0.866 0.866 0.5 342.9087 951.5943)" class="st3" width="2.4" height="6.7"/>
	<rect x="1029.1" y="195.5" transform="matrix(0.5 -0.866 0.866 0.5 342.9457 991.6755)" class="st3" width="2.4" height="6.7"/>
	<rect x="989.6" y="187.6" class="st3" width="6.7" height="2.4"/>
	<rect x="1029.6" y="187.6" class="st3" width="6.7" height="2.4"/>
	<rect x="992.2" y="197.7" transform="matrix(0.866 -0.5 0.5 0.866 33.9449 524.3929)" class="st3" width="6.7" height="2.4"/>
	<rect x="1026.9" y="177.6" transform="matrix(0.866 -0.5 0.5 0.866 48.6087 539.0682)" class="st3" width="6.7" height="2.4"/>
	<rect x="999.6" y="205" transform="matrix(0.5 -0.866 0.866 0.5 322.8841 971.6193)" class="st3" width="6.7" height="2.4"/>
	<rect x="1019.6" y="170.3" transform="matrix(0.5 -0.866 0.866 0.5 362.9328 971.6188)" class="st3" width="6.7" height="2.4"/>
	<path class="st3" d="M602.9,436.1h-2.4c0-7.4-6-13.4-13.4-13.4v-2.4h0c7.4,0,13.3-6,13.3-13.4h2.4c0,7.4,6,13.4,13.4,13.4v2.4h0
		C608.9,422.7,603,428.7,602.9,436.1z M593.2,421.5c3.9,1.6,7,4.7,8.6,8.6c1.6-3.9,4.7-7,8.6-8.6c-3.9-1.6-7-4.7-8.6-8.6
		C600.1,416.8,597.1,419.9,593.2,421.5L593.2,421.5z"/>
	<path class="st3" d="M1249.2,462.2c-4.6,0-8.4-3.8-8.4-8.4s3.8-8.4,8.4-8.4s8.4,3.8,8.4,8.4
		C1257.6,458.4,1253.8,462.2,1249.2,462.2z M1249.2,447.8c-3.3,0-6,2.7-6,6c0,3.3,2.7,6,6,6c3.3,0,6-2.7,6-6
		C1255.2,450.5,1252.5,447.8,1249.2,447.8L1249.2,447.8z"/>
	
		<rect x="1105.3" y="288.7" transform="matrix(4.445627e-02 -0.999 0.999 4.445627e-02 768.0645 1382.8486)" class="st4" width="3.2" height="2.4"/>
	<path class="st5" d="M1229.7,359.1c-6.3-0.4-12.5-1.6-18.4-3.8c-16.6-6.6-23.5-24.2-40.9-29.7s-35.4,21.7-35.4,21.7l-1.9,5.1
		c2.5-2.4,5.3-4.5,8.2-6.3c7.2-4.5,9.4,0.6,9.4,0.6c0.6-1.4,1.5-2.8,2.5-3.9c-0.2,0.5-0.3,1.1-0.4,1.6c-0.8,6,1,9.3,2.6,11
		c0.5-2.8,1.7-5.4,3.5-7.5c-1.4,4.8-2,9.9,0.1,13.7c2.9,5.3,6.3,7,8.6,7.4c-1.6-2.8-1.9-7.2-1.3-11.9c3.6,17.2,22.4,17.4,22.4,17.4
		s-5.5-3.6-11.3-14.3c2.6,3.7,6.1,6.7,10.1,8.8c10.2,5,17,2,18.6,0.6c-6.4-2-12.3-5.4-17.3-9.9c0.3,0.2,0.6,0.3,0.9,0.5
		C1215.6,374.1,1229.7,359.1,1229.7,359.1z"/>
	<path class="st5" d="M988,272c5,3.9,10.4,7,16.3,9.3c16.8,6,33.6-2.6,50.3,4.7s12.3,39.7,12.3,39.7l-1.9,5.1c-0.3-3.4-1-6.8-2-10.2
		c-2.4-8.2-7.5-5.8-7.5-5.8c0.5-1.5,0.7-3,0.7-4.6c-0.2,0.5-0.5,1-0.8,1.4c-3.3,5-7,6.3-9.2,6.5c1.4-2.4,2.2-5.2,2.3-8
		c-2.1,4.6-5.1,8.7-9.1,10.2c-5.6,2.1-9.3,1.1-11.3-0.1c3-1.1,6.1-4.2,8.8-8.1c-14,10.6-28.3-1.8-28.3-1.8s6.6,0.9,17.9-3.3
		c-4.4,1.1-9,1-13.4-0.1c-11-3-14.1-9.8-14.4-11.8c6.1,2.7,12.8,4.1,19.5,4c-0.3-0.1-0.7-0.1-1-0.2C988.7,292.6,988,272,988,272z"/>
	<circle class="st6" cx="1096.9" cy="347.4" r="38.5"/>
	<path class="st7" d="M1096.9,387.1c-9.9,0-19.4-3.7-26.7-10.3l1.6-1.8c15.3,13.9,38.9,12.7,52.8-2.6c0.1-0.1,0.1-0.2,0.2-0.2
		l1.8,1.6C1119,382.3,1108.2,387.1,1096.9,387.1L1096.9,387.1z"/>
	<path class="st7" d="M1130.1,369.2l-2-1.3c1.2-1.8,2.2-3.7,3.1-5.7l2.2,0.9C1132.4,365.2,1131.3,367.3,1130.1,369.2z"/>
	<path class="st7" d="M1132,334.8c-0.3-0.9-0.7-1.8-1.1-2.7c-7-15.6-23.7-24.4-40.5-21.4l-0.4-2.3c17.9-3.2,35.6,6.2,43.1,22.7
		c0.4,0.9,0.8,1.9,1.2,2.9L1132,334.8z"/>
	<path class="st7" d="M1057.3,351c-1.5-16.8,7.8-32.7,23.2-39.7c0.8-0.4,1.6-0.7,2.3-1l0.8,2.2c-0.7,0.3-1.5,0.6-2.2,0.9
		c-14.5,6.5-23.2,21.5-21.8,37.3L1057.3,351z"/>
	<path class="st7" d="M1070.2,376.8c-4-3.6-7.2-8.1-9.5-13c-0.9-2.1-1.7-4.3-2.3-6.5l2.3-0.6c0.5,2.1,1.3,4.1,2.2,6.1
		c2.1,4.7,5.1,8.8,8.9,12.2L1070.2,376.8z"/>
	<path class="st8" d="M1110.3,377.1c-16.4,7.4-35.7,0.1-43.1-16.3c-7.4-16.4-0.1-35.7,16.3-43.1c16.4-7.4,35.7-0.1,43.1,16.2
		c7.5,16.3,0.3,35.5-15.9,42.9C1110.5,377,1110.4,377,1110.3,377.1z"/>
	<path class="st9" d="M1126.5,334l-59.3,26.8c-7.4-16.4-0.1-35.7,16.2-43.1C1099.8,310.4,1119.1,317.6,1126.5,334L1126.5,334z"/>
	<path class="st3" d="M888.7,521.2l29.3,0l0,5l-32.3,24.4L888.7,521.2z"/>
	<circle class="st10" cx="919.3" cy="522.9" r="9.5"/>
	<path class="st10" d="M926.2,515.9c2,3.4,6.4,4.5,9.8,2.4s4.5-6.4,2.4-9.8c-2-3.4-6.4-4.5-9.8-2.4c0,0,0,0,0,0
		C925.2,508.2,924.1,512.6,926.2,515.9C926.2,515.9,926.2,515.9,926.2,515.9z"/>
	<path class="st10" d="M926.3,529.3l11.3-12.2l-9-10.9l-14.3,8.6L926.3,529.3z"/>
	<circle class="st11" cx="962.5" cy="423.1" r="16.2"/>
	<path class="st11" d="M883.3,414.7l74.3,23.9l12.8-29.7l-68.3-37.7L883.3,414.7z"/>
	<path class="st11" d="M938.8,515.2l-13.5-4.6l21.4-91.2l30.6,10.4l-33.6,74.5l-2.9,6.5L938.8,515.2z"/>
	<path class="st12" d="M938.8,515.2l-13.5-4.6l3.1-13.2l15.3,6.9l-2.9,6.5L938.8,515.2z"/>
	<path class="st10" d="M938.8,515.2l-13.5-4.6l1.4-6.1l14,6.3L938.8,515.2z"/>
	<path class="st3" d="M806.3,521.1l-29.3,0l0,5l32.3,24.3L806.3,521.1z"/>
	<circle class="st11" cx="811.2" cy="395.4" r="23.8"/>
	<circle class="st11" cx="822.1" cy="529.7" r="16.2"/>
	<circle class="st11" cx="874.8" cy="529.6" r="16.2"/>
	<path class="st11" d="M891.8,513.4l-0.8,16.2l0,0.8c-0.4,8.6-7.5,15.5-16.2,15.5l-52.6,0.1c-8.7,0-15.8-6.8-16.2-15.4l0-0.8
		l-0.8-16.2L891.8,513.4z"/>
	<path class="st11" d="M838.4,529l4.5,100.7l-27.5,1.2l-9.5-100.5L838.4,529z"/>
	<circle class="st11" cx="839.6" cy="781.5" r="10"/>
	<path class="st12" d="M835.2,377.4l21.5,85.7l15.1-60.7l0-25.1L835.2,377.4z"/>
	<circle class="st11" cx="829.1" cy="630.3" r="13.8"/>
	<path class="st11" d="M829.6,782l-14.2-151l27.5-1.2l6.8,151.4L829.6,782z"/>
	
		<rect x="829.5" y="346.4" transform="matrix(8.701806e-02 -0.9962 0.9962 8.701806e-02 417.57 1178.1343)" class="st10" width="44" height="29.7"/>
	<path class="st4" d="M819.4,793.4h30.2v-11.9h-20.1l-11.5,6.3c-1,0.5-1.6,1.5-1.6,2.6l0,0C816.5,792.1,817.8,793.4,819.4,793.4
		C819.4,793.4,819.4,793.4,819.4,793.4z"/>
	<path class="st11" d="M878.5,779.8c0.9,5.5-2.7,10.7-8.2,11.6s-10.7-2.7-11.6-8.2s2.7-10.7,8.2-11.6
		C872.4,770.7,877.6,774.4,878.5,779.8C878.5,779.8,878.5,779.8,878.5,779.8z"/>
	<path class="st4" d="M888.8,793.4h-30.2v-11.9h20.1l11.5,6.3c1,0.5,1.6,1.5,1.6,2.6l0,0C891.8,792.1,890.4,793.4,888.8,793.4
		C888.8,793.4,888.8,793.4,888.8,793.4z"/>
	<path class="st11" d="M858.6,529.6v251.9l20.1,0.5L891,530.5L858.6,529.6z"/>
	
		<rect x="862.5" y="766.3" transform="matrix(4.928552e-02 -0.9988 0.9988 4.928552e-02 68.3481 1606.7693)" class="st4" width="31.3" height="2.4"/>
	
		<rect x="835.1" y="694.9" transform="matrix(4.933792e-02 -0.9988 0.9988 4.933792e-02 142.994 1542.3351)" class="st4" width="93.3" height="2.4"/>
	
		<rect x="881.2" y="641.1" transform="matrix(4.904147e-02 -0.9988 0.9988 4.904147e-02 199.4419 1494.0942)" class="st4" width="6.4" height="2.4"/>
	<path class="st4" d="M1096,367.7c-0.6,0-1.2-0.1-1.8-0.2c-3.1-0.6-6-1.7-8.7-3.3c-4.1-2.5-5.8-7.5-4.1-11.9l0.6-1.5l2.2,0.8
		l-0.6,1.5c-1.3,3.4,0,7.2,3.1,9.1c2.4,1.5,5.1,2.5,7.9,3c4.1,0.7,8-2,8.7-6c0.5-2.7-0.6-5.5-2.7-7.2l-9.1-7.1
		c-4.3-3.4-5-9.6-1.6-13.9c2.3-2.9,5.9-4.2,9.5-3.6c3.1,0.6,6,1.7,8.7,3.3c4.1,2.5,5.8,7.5,4.1,11.9l-0.6,1.5l-2.2-0.8l0.6-1.5
		c1.3-3.4,0-7.2-3.1-9.1c-2.4-1.5-5.1-2.5-7.9-3c-4.1-0.7-8,2-8.7,6c-0.5,2.7,0.6,5.5,2.7,7.2l9.1,7.1c4.3,3.4,5,9.6,1.6,13.9
		C1101.9,366.3,1099,367.7,1096,367.7z"/>
	
		<rect x="1101.2" y="325.1" transform="matrix(0.353 -0.9356 0.9356 0.353 409.5093 1244.8149)" class="st4" width="7.2" height="2.4"/>
	
		<rect x="1085.3" y="367.3" transform="matrix(0.3529 -0.9357 0.9357 0.3529 359.8287 1257.34)" class="st4" width="7.2" height="2.4"/>
	<path class="st2" d="M1006,625.9c-4-0.2-8-0.7-12-1.4l0.4-2.3c3.9,0.7,7.8,1.1,11.7,1.4L1006,625.9z M1018.1,625.7l-0.2-2.4
		c3.9-0.3,7.8-0.9,11.6-1.7l0.5,2.3C1026.1,624.8,1022.1,625.4,1018.1,625.7z M982.4,621.7c-3.8-1.1-7.6-2.5-11.3-4.1l0.9-2.2
		c3.6,1.5,7.3,2.8,11.1,4L982.4,621.7z M1041.6,620.5l-0.9-2.2c3.6-1.4,7.2-3.1,10.5-5l1.2,2.1
		C1049,617.3,1045.3,619.1,1041.6,620.5L1041.6,620.5z M960.3,612.4c-3.5-1.9-6.9-4-10.3-6.2l1.3-2c3.3,2.2,6.7,4.3,10.1,6.1
		L960.3,612.4z M1062.4,608.4l-1.5-1.8c3-2.5,5.8-5.3,8.3-8.2l1.8,1.5C1068.3,602.9,1065.4,605.8,1062.4,608.4L1062.4,608.4z
		 M940.4,599c-3.1-2.5-6.1-5.2-9-8l1.7-1.7c2.8,2.7,5.8,5.4,8.8,7.8L940.4,599z M1077.9,590l-2.1-1.2c2-3.4,3.6-6.9,5-10.6l2.2,0.8
		C1081.6,582.8,1079.9,586.5,1077.9,590L1077.9,590z M923.1,582.4c-2.6-2.9-5.2-6.1-7.6-9.3l1.9-1.4c2.4,3.2,4.9,6.2,7.5,9.1
		L923.1,582.4z M1086.4,567.5l-2.3-0.5c0.8-3.8,1.4-7.7,1.7-11.6l2.4,0.2C1087.8,559.6,1087.3,563.6,1086.4,567.5z M908.6,563.4
		c-0.6-0.8-1.1-1.7-1.7-2.6l2-1.3c0.5,0.9,1.1,1.7,1.6,2.5L908.6,563.4z M1085.9,543.6c-0.2-3.9-0.6-7.8-1.1-11.7l2.4-0.3
		c0.6,4,1,8,1.2,12L1085.9,543.6z M1082.6,520.4c-0.5-2.2-1.1-4.4-1.8-6.6c-0.5-1.6-0.9-3.2-1.3-4.8l2.3-0.6
		c0.4,1.6,0.9,3.2,1.3,4.8c0.7,2.3,1.3,4.5,1.8,6.8L1082.6,520.4z M1076.6,497.3c-0.9-3.9-1.6-7.8-2.3-11.7l2.3-0.4
		c0.7,3.9,1.5,7.8,2.3,11.6L1076.6,497.3z M1072.5,473.8c-0.5-3.9-0.9-7.9-1.3-11.9l2.4-0.2c0.3,3.9,0.8,7.9,1.3,11.8L1072.5,473.8z
		 M1070.5,450c-0.1-3.1-0.2-6.3-0.2-9.4c0-0.9,0-1.7,0-2.5l2.4,0c0,0.8,0,1.7,0,2.5c0,3.1,0.1,6.2,0.2,9.3L1070.5,450z
		 M1073.1,426.2l-2.4-0.1c0.2-4,0.6-8,1-11.9l2.4,0.3C1073.7,418.2,1073.3,422.2,1073.1,426.2L1073.1,426.2z M1075.8,402.7l-2.3-0.4
		c0.6-4,1.5-7.9,2.5-11.8l2.3,0.7C1077.2,395,1076.4,398.8,1075.8,402.7L1075.8,402.7z"/>
	<circle class="st11" cx="890.6" cy="392" r="23.8"/>
	<path class="st11" d="M897.5,394.8l-5.7,118.6l-86.8,0.1l-6-118.6c-0.5-9.2,6.6-17,15.8-17.5c0.3,0,0.5,0,0.8,0l65.1-0.1
		c9.2,0,16.7,7.4,16.7,16.6C897.5,394.2,897.5,394.5,897.5,394.8z"/>
	<path class="st12" d="M871.8,377.4l0,25.1l-6.3,25.3l-8.8,35.4l-8.9-35.4l-12.6-50.3L871.8,377.4z"/>
	<path class="st4" d="M865.5,427.7l-8.8,35.4l-8.9-35.4l7.6-44.7h2.4L865.5,427.7z"/>
	<path class="st10" d="M790.7,531.2c2.7-4.5,1.3-10.4-3.2-13.1s-10.4-1.3-13.1,3.2s-1.3,10.4,3.2,13.1c0,0,0,0,0,0
		C782.1,537.1,787.9,535.7,790.7,531.2C790.6,531.2,790.6,531.2,790.7,531.2z"/>
	<path class="st10" d="M775.6,519.3c-2,3.4-6.4,4.5-9.8,2.4s-4.5-6.4-2.4-9.8c2-3.4,6.4-4.5,9.8-2.4c0,0,0,0,0,0
		C776.5,511.6,777.6,515.9,775.6,519.3C775.6,519.3,775.6,519.3,775.6,519.3z"/>
	<path class="st10" d="M775.5,532.7l-11.3-12.2l8.9-10.9l14.3,8.6L775.5,532.7z"/>
	<path class="st11" d="M744.4,441.9c-8.5,2.8-17.7-1.8-20.5-10.3c-2.8-8.5,1.8-17.7,10.3-20.5c8.5-2.8,17.7,1.8,20.5,10.3
		c0,0,0,0,0,0C757.5,429.9,752.9,439.1,744.4,441.9z"/>
	<path class="st11" d="M818.5,418.1L744.2,442l-12.8-29.7l68.3-37.7L818.5,418.1z"/>
	<path class="st11" d="M763,518.6l13.5-4.6l-21.4-91.2l-30.6,10.4l33.6,74.5l2.9,6.5L763,518.6z"/>
	<path class="st12" d="M763,518.6l13.5-4.6l-3.1-13.2l-15.3,6.9l2.9,6.5L763,518.6z"/>
	<path class="st10" d="M763,518.6l13.5-4.6l-1.4-6.1l-14,6.3L763,518.6z"/>
	<circle class="st11" cx="811.2" cy="395.4" r="23.8"/>
	<path class="st4" d="M892.9,336.2l-4.3-0.7l5.1-28.8l4.3,0.7c7.9,1.4,13.2,9,11.9,16.9l0,0C908.4,332.3,900.8,337.6,892.9,336.2
		C892.9,336.2,892.9,336.2,892.9,336.2z"/>
	<path class="st4" d="M835.7,331.2l21.3,3.7l0,0l-3.9,22.3l0,0l-10.7-1.9c-5.9-1-9.8-6.6-8.8-12.5c0,0,0,0,0,0L835.7,331.2
		L835.7,331.2z"/>
	<path class="st4" d="M885.1,295.9l10.3,1.8c7.1,1.2,11.8,8,10.5,15l-2.2,12.7c-1.1,6.4-7.2,10.6-13.6,9.5c0,0,0,0,0,0l-11.6-2l0,0
		L885.1,295.9L885.1,295.9z"/>
	<path class="st10" d="M879.4,373l-27.2-4.8c-5.9-1-9.8-6.6-8.8-12.5l5.6-31.9c2.3-13,14.6-21.6,27.6-19.3l0,0
		c12.5,2.2,21.1,13.8,19.5,26.4l-4.1,32.8c-0.7,5.9-6.2,10.1-12.1,9.4C879.7,373.1,879.6,373,879.4,373z"/>
	<path class="st13" d="M893.6,351.3l2.6-20.4L893.6,351.3z"/>
	<path class="st4" d="M863.5,298l3.2,0.6l0,0l-7,40.1l0,0l-24.5-4.3l0,0l3.3-18.8C840.5,303.8,851.7,295.9,863.5,298
		C863.5,298,863.5,298,863.5,298z"/>
	<path class="st10" d="M846.1,340.4l6.4,1.1l1.1-6.4c0.6-3.5-1.7-6.9-5.3-7.5c0,0,0,0,0,0l0,0c-3.5-0.6-6.9,1.7-7.5,5.3c0,0,0,0,0,0
		l0,0C840.3,336.4,842.6,339.8,846.1,340.4z"/>
	<path class="st4" d="M900.6,325l-24.3-4.3c-9.9-1.8-16.5-11.2-14.8-21.1c0.8-4.7,5.3-7.9,10-7s7.9,5.3,7,10l0,0
		c-0.1,0.5,0.2,1,0.7,1l24.3,4.3L900.6,325z"/>
	<path class="st4" d="M893.1,314.9l-12.1-2.1c-4.7-0.8-7.9-5.3-7-10s5.3-7.9,10-7l12.1,2.1c4.7,0.8,7.9,5.3,7,10
		C902.3,312.6,897.8,315.7,893.1,314.9L893.1,314.9z"/>
	<path class="st4" d="M890.9,372.4c-0.6,4.7-4.9,8.1-9.7,7.5c-0.1,0-0.3,0-0.4-0.1l-16.9-3c-9.4-1.7-15.7-10.6-14-20c0,0,0,0,0,0
		l3.5-19.9l6.4,1.1l0,0c-0.7,3.9,1.9,7.7,5.9,8.3c0,0,0,0,0,0l28,4.9L890.9,372.4z"/>
	<path class="st12" d="M875.3,361.9c0.5-3,3.2-5,6.2-4.5c0,0,0.1,0,0.1,0c2.5,0.5,3.8,3.4,3.3,6.1L875.3,361.9z"/>
	<path class="st4" d="M842.4,666.8l-5.5-123.3l18.6,0v2.4l-16.1,0l5.4,120.8L842.4,666.8z"/>
	
		<rect x="843.1" y="676.6" transform="matrix(0.999 -4.499942e-02 4.499942e-02 0.999 -29.8101 38.6816)" class="st4" width="2.4" height="9.6"/>
	
		<rect x="881.3" y="493" transform="matrix(4.773406e-02 -0.9989 0.9989 4.773406e-02 355.3666 1361.1797)" class="st4" width="20.6" height="2.4"/>
	
		<rect x="890.5" y="475.4" transform="matrix(4.759454e-02 -0.9989 0.9989 4.759454e-02 373.9185 1345.2891)" class="st4" width="3.9" height="2.4"/>
	<path class="st4" d="M894.1,466.3l-2.4-0.1l2.4-50.5l45.2,14.5l-0.7,2.3l-42.2-13.6L894.1,466.3z"/>
	
		<rect x="769.1" y="490.7" transform="matrix(0.9736 -0.2281 0.2281 0.9736 -92.1097 188.6808)" class="st4" width="2.4" height="4.2"/>
	<path class="st4" d="M767.1,484.7l-11.5-48.9l23-7.4l0.7,2.3l-20.9,6.7l11,46.8L767.1,484.7z"/>
	
		<rect x="783.4" y="422.9" transform="matrix(0.952 -0.306 0.306 0.952 -91.5962 263.8973)" class="st4" width="24.9" height="2.4"/>
	<path class="st14" d="M821.3,693.7l-5.8-61.3l-179.9,25.1l-30.4,17.5l83.3,48.1l-45.7,26.4l41.5,23.9L730,747l22.1,12.8l33.7-19.5
		l-22.1-12.8L821.3,693.7z M722.2,703.6l-40.6-23.4l67-9.3c16.3-3.1,32.6-6.2,47.9-9.5l1.2,0.7c-12.6,6.6-32.2,16.5-44.5,23.6
		L722.2,703.6z"/>
	<path class="st14" d="M402.1,535L318.8,487l30.4-17.5l185.2-25.8l54.5,31.5l-111.6,64.4l22.1,12.8l-33.7,19.5L443.6,559l-45.7,26.4
		l-41.5-23.9L402.1,535z M435.8,515.6l31-17.9c12.3-7.1,31.9-17,44.5-23.6l-1.2-0.7c-15.4,3.3-31.7,6.4-47.9,9.5l-67,9.3
		L435.8,515.6z"/>
	<path class="st14" d="M534.7,553.2c65-37.5,125.9-40.9,167.1-17.1s35.3,59-29.7,96.5s-127.4,41.8-168.6,18S469.7,590.8,534.7,553.2
		z M630.1,608.3c52.3-30.2,52.6-43.6,37.4-52.4c-14.8-8.6-38.4-8.6-90.7,21.6c-52,30.1-53.8,44.7-38.9,53.2
		C553,639.5,578,638.3,630.1,608.3L630.1,608.3z"/>
	<path class="st15" d="M306.8,471.8l46.6-27.1l38,21.9l-46.6,27.1L306.8,471.8z"/>
	<path class="st16" d="M383.5,552.6l46.6-27.1L430,575l-46.6,27.1L383.5,552.6z"/>
	<path class="st17" d="M330.8,440.6l46.6-27.1l-23.9,31.2l-46.6,27.1L330.8,440.6z"/>
	<path class="st16" d="M404.3,528.1L451,501l-0.1,36.5l-46.6,27.1L404.3,528.1z"/>
	<path class="st15" d="M383.6,516.1l46.6-27.1L451,501l-46.6,27.1L383.6,516.1z"/>
	<g>
		<g>
			<defs>
				<path id="SVGID_1_" d="M345.6,414.3l46.6-27.1c-4.6,8.8-9.7,17.6-14.8,26.3l-46.6,27.1C335.9,431.8,341,423.1,345.6,414.3z"/>
			</defs>
			<clipPath id="SVGID_00000108292684831527412700000006789333428379670696_">
				<use xlink:href="#SVGID_1_"  style="overflow:visible;"/>
			</clipPath>
			<g style="clip-path:url(#SVGID_00000108292684831527412700000006789333428379670696_);">
				<path class="st17" d="M345.6,414.3l46.6-27.1c-4.6,8.8-9.7,17.6-14.8,26.3l-46.6,27.1C335.9,431.8,341,423.1,345.6,414.3"/>
			</g>
		</g>
	</g>
	<path class="st16" d="M384,395.3l46.6-27.1L430.3,489l-46.6,27.1L384,395.3z"/>
	<path class="st15" d="M333,365.9l46.6-27.1l51,29.4L384,395.3L333,365.9z"/>
	<path class="st12" d="M387.9,513.6l20.7,11.9l-0.1,36.5l-4.3,2.5l-16.4-14.4l-0.1,49.5l-4.3,2.5l-34.5-24.9l0.1-49.5l-77.9-45
		l0.1-32.9l61.8-83.9l4.3-2.5l51,29.4L387.9,513.6z M349.2,457.7c0-13.4,1.2-32.6,1.8-45.3l-1.1-0.7c-4.6,8.8-9.7,17.6-14.8,26.3
		l-23.9,31.2l38,21.9L349.2,457.7"/>
	<path class="st19" d="M500.1,629.8c0.3-0.1,0.5-0.2,0.8-0.4l49.4-27.1c-0.3,0.1-0.5,0.3-0.8,0.4c-0.1,0-0.2,0.1-0.3,0.1
		c-0.2,0.1-0.3,0.1-0.5,0.2c-0.2,0.1-0.5,0.2-0.7,0.2c-0.1,0-0.1,0-0.2,0c-0.2,0-0.3,0.1-0.5,0.1c-0.3,0-0.5,0.1-0.8,0.1
		c0,0-0.1,0-0.1,0c-0.3,0-0.6,0-0.9,0c-0.2,0-0.3,0-0.5,0c-0.1,0-0.2,0-0.4,0c-0.3,0-0.5,0-0.8-0.1c-0.1,0-0.1,0-0.2,0
		c-0.2,0-0.4-0.1-0.7-0.1c-0.1,0-0.2,0-0.3-0.1c-0.2,0-0.4-0.1-0.6-0.1c-0.1,0-0.2-0.1-0.3-0.1c-0.2,0-0.3-0.1-0.5-0.1
		c-0.1,0-0.2-0.1-0.3-0.1c-0.2-0.1-0.3-0.1-0.5-0.2c-0.1,0-0.2-0.1-0.4-0.1c-0.2-0.1-0.3-0.1-0.5-0.2c-0.1,0-0.2-0.1-0.3-0.1
		c-0.2-0.1-0.3-0.1-0.5-0.2c-0.1-0.1-0.3-0.1-0.4-0.2c-0.2-0.1-0.3-0.1-0.5-0.2s-0.3-0.1-0.5-0.2c-0.3-0.1-0.6-0.3-0.8-0.4
		c-0.1-0.1-0.2-0.1-0.4-0.2c-0.2-0.1-0.4-0.2-0.6-0.4l-0.2-0.1c-0.3-0.2-0.6-0.3-0.8-0.5l-0.1-0.1c-0.2-0.2-0.5-0.3-0.7-0.5
		c-0.1-0.1-0.2-0.1-0.2-0.2c-0.2-0.1-0.4-0.3-0.6-0.4l-0.2-0.2c-0.2-0.2-0.4-0.3-0.6-0.5l-0.1-0.1c-0.2-0.2-0.5-0.4-0.7-0.6
		c-0.1-0.1-0.1-0.1-0.2-0.2c-0.2-0.2-0.4-0.3-0.5-0.5l-0.3-0.2c-0.1-0.1-0.3-0.3-0.4-0.4l-0.3-0.3c-0.1-0.1-0.3-0.3-0.4-0.4
		c-0.1-0.1-0.2-0.2-0.3-0.3c-0.1-0.1-0.3-0.3-0.4-0.4c-0.1-0.1-0.2-0.2-0.2-0.3c-0.2-0.2-0.3-0.4-0.5-0.5c-0.1-0.1-0.1-0.1-0.2-0.2
		c-0.2-0.2-0.4-0.5-0.6-0.8c0,0-0.1-0.1-0.1-0.1c-0.2-0.2-0.4-0.5-0.6-0.7l-0.2-0.2c-0.4-0.5-0.8-1-1.1-1.5l-0.1-0.2
		c-0.3-0.4-0.5-0.8-0.8-1.2c-0.1-0.1-0.1-0.2-0.2-0.3c-0.2-0.3-0.3-0.5-0.5-0.8c-0.1-0.1-0.1-0.2-0.2-0.3c-0.2-0.3-0.4-0.6-0.5-0.9
		c0-0.1-0.1-0.1-0.1-0.2c-0.2-0.4-0.4-0.7-0.6-1.1c-0.1-0.1-0.1-0.2-0.2-0.3c-0.2-0.3-0.3-0.6-0.5-0.9c-0.1-0.1-0.1-0.3-0.2-0.4
		c-0.1-0.3-0.3-0.5-0.4-0.8c-0.1-0.1-0.1-0.3-0.2-0.4c-0.1-0.3-0.3-0.6-0.4-1c0-0.1-0.1-0.2-0.1-0.2c-0.2-0.4-0.4-0.9-0.6-1.3
		l-0.1-0.3c-0.2-0.4-0.3-0.8-0.5-1.2l-0.2-0.4c-0.2-0.5-0.4-1-0.6-1.6l0-0.1c-0.2-0.6-0.4-1.3-0.7-1.9c0-0.1-0.1-0.2-0.1-0.3
		c-0.2-0.7-0.4-1.4-0.6-2.1c-0.1-0.2-0.1-0.3-0.2-0.5c-0.1-0.2-0.1-0.5-0.2-0.7c-0.1-0.2-0.1-0.5-0.2-0.7s-0.1-0.5-0.2-0.7
		s-0.1-0.5-0.2-0.7c-0.1-0.3-0.2-0.6-0.2-0.9c-0.1-0.2-0.1-0.4-0.2-0.7c-0.1-0.3-0.1-0.6-0.2-0.9c-0.1-0.2-0.1-0.4-0.2-0.7
		c-0.1-0.4-0.2-0.8-0.3-1.3c0-0.1-0.1-0.3-0.1-0.4c-0.1-0.6-0.2-1.2-0.4-1.8c0-0.1,0-0.2-0.1-0.3c-0.1-0.5-0.2-1.1-0.3-1.6
		c0-0.2-0.1-0.4-0.1-0.6c-0.1-0.5-0.2-1-0.2-1.4c0-0.2-0.1-0.4-0.1-0.6c-0.1-0.7-0.2-1.5-0.4-2.3l-0.1-0.4c-0.1-0.7-0.2-1.4-0.3-2
		l-0.1-0.6c-0.1-0.9-0.2-1.8-0.3-2.7c0-0.2,0-0.3-0.1-0.5c-0.1-0.9-0.2-1.7-0.3-2.6c0-0.1,0-0.3,0-0.4c0-0.3-0.1-0.5-0.1-0.8
		c0-0.4-0.1-0.8-0.1-1.2c0-0.3-0.1-0.6-0.1-0.9c0-0.4-0.1-0.8-0.1-1.2c0-0.3,0-0.6-0.1-0.9c0-0.4-0.1-0.8-0.1-1.2
		c0-0.3,0-0.6-0.1-0.9c0-0.4-0.1-0.7-0.1-1.1c0-0.5-0.1-0.9-0.1-1.4c0-0.3,0-0.6-0.1-0.9c0-0.5-0.1-1-0.1-1.5c0-0.3,0-0.6,0-0.9
		c0-0.6-0.1-1.3-0.1-1.9c0-0.2,0-0.3,0-0.5c0-0.8-0.1-1.7-0.1-2.5c0-0.2,0-0.3,0-0.5c0-0.7,0-1.5-0.1-2.3c0-0.3,0-0.6,0-0.9
		c0-0.6,0-1.3,0-1.9c0-0.3,0-0.7,0-1c0-0.7,0-1.3,0-2c0-0.3,0-0.6,0-0.9c0-1,0-2,0-3c0-0.7,0-1.4,0-2.1c0-0.6,0-1.2,0-1.7
		c0-0.5,0-1.1,0-1.6c0-0.6,0-1.1,0-1.7c0-0.5,0-1,0-1.6c0-0.5,0-1.1,0-1.6c0-0.5,0-1,0.1-1.5c0-0.5,0-1,0.1-1.5
		c0-0.6,0.1-1.2,0.1-1.8c0-0.3,0-0.6,0-0.9c0-0.8,0.1-1.6,0.1-2.4c0-0.1,0-0.1,0-0.2c0.1-0.9,0.1-1.7,0.2-2.5c0-0.3,0-0.5,0.1-0.8
		c0-0.6,0.1-1.1,0.1-1.7c0-0.2,0-0.4,0.1-0.7c0.1-0.6,0.1-1.1,0.2-1.7c0-0.2,0-0.4,0.1-0.6c0.1-0.7,0.2-1.4,0.2-2.1
		c0-0.1,0-0.1,0-0.2c0.1-0.6,0.2-1.2,0.2-1.8c0-0.2,0-0.3,0.1-0.5c0.1-0.6,0.2-1.2,0.3-1.7c0-0.1,0-0.1,0-0.2
		c0.1-0.6,0.2-1.2,0.3-1.8c0-0.1,0.1-0.3,0.1-0.4c0.1-0.6,0.2-1.1,0.3-1.7l0,0c0.1-0.6,0.2-1.1,0.3-1.6l0.1-0.3
		c0.1-0.5,0.2-1,0.3-1.5c0.1-0.5,0.3-1.1,0.4-1.6c0-0.1,0-0.1,0.1-0.2c0.2-0.6,0.3-1.1,0.5-1.7c0.1-0.2,0.1-0.3,0.2-0.5
		c0.1-0.3,0.2-0.7,0.3-1c0.1-0.2,0.1-0.4,0.2-0.6c0.1-0.3,0.2-0.6,0.3-0.9c0.1-0.2,0.1-0.4,0.2-0.6c0.1-0.3,0.2-0.5,0.3-0.8
		c0.1-0.2,0.2-0.3,0.2-0.5c0.1-0.3,0.2-0.5,0.4-0.8c0.1-0.2,0.2-0.3,0.2-0.5c0.2-0.4,0.4-0.7,0.6-1.1c0,0,0.1-0.1,0.1-0.2
		c0.2-0.4,0.5-0.7,0.7-1.1c0.1-0.2,0.3-0.4,0.4-0.6c0-0.1,0.1-0.1,0.1-0.2c0.2-0.3,0.4-0.5,0.6-0.7c0-0.1,0.1-0.1,0.1-0.2
		c0.2-0.2,0.3-0.3,0.5-0.5c0.1-0.1,0.1-0.1,0.2-0.2c0.1-0.1,0.3-0.3,0.4-0.4c0.1-0.1,0.2-0.1,0.2-0.2c0.1-0.1,0.3-0.2,0.4-0.3
		c0.1-0.1,0.2-0.1,0.2-0.2c0.1-0.1,0.3-0.2,0.4-0.3c0.1,0,0.1-0.1,0.2-0.1c0.2-0.1,0.4-0.3,0.7-0.4l0,0L473.7,486
		c-0.2,0.1-0.4,0.3-0.7,0.4c-0.1,0-0.1,0.1-0.2,0.1c-0.1,0.1-0.3,0.2-0.4,0.3c-0.1,0.1-0.2,0.1-0.2,0.2c-0.1,0.1-0.3,0.2-0.4,0.3
		c-0.1,0.1-0.2,0.1-0.2,0.2c-0.1,0.1-0.3,0.3-0.4,0.4c-0.1,0.1-0.1,0.1-0.2,0.2c-0.2,0.2-0.3,0.3-0.5,0.5c0,0.1-0.1,0.1-0.1,0.2
		c-0.2,0.2-0.4,0.5-0.6,0.7c0,0.1-0.1,0.1-0.1,0.2c-0.1,0.2-0.2,0.3-0.3,0.5c0,0,0,0.1-0.1,0.1c-0.2,0.3-0.5,0.7-0.7,1.1
		c0,0-0.1,0.1-0.1,0.2c-0.2,0.3-0.4,0.7-0.6,1.1c0,0.1-0.1,0.1-0.1,0.1c0,0.1-0.1,0.2-0.1,0.3c-0.1,0.2-0.2,0.5-0.4,0.8
		c-0.1,0.2-0.2,0.3-0.2,0.5c-0.1,0.3-0.2,0.5-0.3,0.8c0,0.1-0.1,0.2-0.1,0.3c0,0.1-0.1,0.2-0.1,0.2c-0.1,0.3-0.2,0.6-0.3,0.9
		c-0.1,0.2-0.1,0.4-0.2,0.6c-0.1,0.3-0.2,0.7-0.3,1c0,0.1-0.1,0.3-0.1,0.4l0,0.1c-0.2,0.5-0.3,1.1-0.5,1.7c0,0.1,0,0.1,0,0.2
		c-0.1,0.5-0.3,1.1-0.4,1.6c0,0,0,0.1,0,0.1c-0.1,0.4-0.2,0.9-0.3,1.3c0,0.1,0,0.2-0.1,0.3c-0.1,0.5-0.2,1.1-0.3,1.6l0,0
		c-0.1,0.4-0.2,0.8-0.2,1.2c0,0.2-0.1,0.3-0.1,0.5c0,0.1-0.1,0.3-0.1,0.4c-0.1,0.6-0.2,1.2-0.3,1.8c0,0.1,0,0.1,0,0.2
		c-0.1,0.6-0.2,1.2-0.3,1.8c0,0.2,0,0.3-0.1,0.5c0,0.1,0,0.3-0.1,0.4c-0.1,0.5-0.1,0.9-0.2,1.4l0,0.2c-0.1,0.7-0.2,1.4-0.2,2.1
		c0,0.2,0,0.4-0.1,0.6c-0.1,0.5-0.1,1.1-0.2,1.7c0,0.2,0,0.4-0.1,0.7c0,0.1,0,0.3,0,0.4c0,0.4-0.1,0.9-0.1,1.3c0,0.3,0,0.5-0.1,0.8
		c-0.1,0.8-0.1,1.7-0.2,2.5c0,0.1,0,0.1,0,0.2c-0.1,0.8-0.1,1.6-0.1,2.5c0,0.3,0,0.6,0,0.9c0,0.5,0,0.9-0.1,1.4c0,0.1,0,0.3,0,0.4
		c0,0.5,0,1-0.1,1.5c0,0.5,0,1-0.1,1.5c0,0.5,0,1.1,0,1.6c0,0.5,0,1,0,1.6c0,0.5,0,1.1,0,1.7c0,0.5,0,1.1,0,1.6c0,0.6,0,1.1,0,1.7
		c0,0.4,0,0.8,0,1.2c0,0.3,0,0.6,0,0.9c0,1,0,2,0,3c0,0.3,0,0.6,0,0.9c0,0.7,0,1.3,0,2c0,0.3,0,0.7,0,1c0,0.6,0,1.3,0,1.9
		c0,0.3,0,0.6,0,0.9c0,0.8,0,1.5,0.1,2.3c0,0.1,0,0.3,0,0.4v0.1c0,0.8,0.1,1.7,0.1,2.5c0,0.2,0,0.4,0,0.6c0,0.6,0.1,1.3,0.1,1.9
		c0,0.3,0,0.6,0,0.9c0,0.5,0.1,1,0.1,1.5c0,0.3,0,0.6,0.1,1c0,0.5,0.1,0.9,0.1,1.4c0,0.1,0,0.3,0,0.4c0,0.2,0,0.5,0.1,0.7
		c0,0.3,0,0.6,0.1,0.9c0,0.4,0.1,0.8,0.1,1.2c0,0.3,0,0.6,0.1,0.9c0,0.4,0.1,0.8,0.1,1.2c0,0.3,0,0.6,0.1,0.9c0,0.4,0.1,0.8,0.1,1.2
		c0,0.3,0.1,0.5,0.1,0.8c0,0,0,0.1,0,0.2c0,0.1,0,0.2,0,0.3c0.1,0.9,0.2,1.8,0.3,2.6l0.1,0.5c0.1,0.9,0.2,1.8,0.3,2.7
		c0,0.1,0,0.2,0,0.3c0,0.1,0,0.2,0,0.3c0.1,0.7,0.2,1.4,0.3,2c0,0.1,0,0.3,0.1,0.4c0.1,0.8,0.2,1.5,0.4,2.3c0,0.1,0,0.1,0,0.2
		c0,0.1,0,0.3,0.1,0.4c0.1,0.5,0.2,1,0.3,1.4c0,0.2,0.1,0.4,0.1,0.6c0.1,0.6,0.2,1.1,0.3,1.6c0,0.1,0,0.2,0,0.3l0,0.1
		c0.1,0.6,0.2,1.2,0.4,1.8c0,0.1,0.1,0.3,0.1,0.4c0.1,0.4,0.2,0.9,0.3,1.3c0,0.1,0,0.1,0,0.2c0,0.2,0.1,0.3,0.1,0.5
		c0.1,0.3,0.1,0.6,0.2,0.9c0.1,0.2,0.1,0.5,0.2,0.7c0.1,0.3,0.1,0.6,0.2,0.9c0,0.1,0.1,0.2,0.1,0.3c0,0.1,0.1,0.3,0.1,0.4
		c0.1,0.2,0.1,0.5,0.2,0.7s0.1,0.5,0.2,0.7s0.1,0.5,0.2,0.7c0,0.1,0.1,0.2,0.1,0.3c0,0.1,0,0.1,0.1,0.2c0.2,0.7,0.4,1.4,0.6,2.1
		c0,0,0,0.1,0,0.1c0,0.1,0,0.1,0.1,0.2c0.2,0.7,0.4,1.3,0.7,1.9c0,0,0,0.1,0,0.1l0,0c0.2,0.5,0.4,1,0.6,1.6c0,0.1,0,0.1,0.1,0.2
		c0,0.1,0.1,0.2,0.1,0.2c0.2,0.4,0.3,0.8,0.5,1.2c0,0.1,0.1,0.2,0.1,0.2c0,0,0,0.1,0,0.1c0.2,0.4,0.4,0.9,0.6,1.3l0,0
		c0,0.1,0.1,0.1,0.1,0.2c0.1,0.3,0.3,0.7,0.4,1c0,0,0,0.1,0.1,0.1c0,0.1,0.1,0.2,0.1,0.3c0.1,0.3,0.3,0.5,0.4,0.8
		c0,0.1,0.1,0.1,0.1,0.2s0.1,0.1,0.1,0.2c0.2,0.3,0.3,0.6,0.5,0.9c0,0.1,0.1,0.2,0.1,0.2l0,0.1c0.2,0.4,0.4,0.8,0.6,1.1l0,0
		c0,0.1,0.1,0.1,0.1,0.2c0.2,0.3,0.3,0.6,0.5,0.9c0.1,0.1,0.1,0.2,0.2,0.3c0.2,0.3,0.3,0.5,0.5,0.8c0,0.1,0.1,0.1,0.1,0.2
		c0,0,0,0,0,0.1c0.3,0.4,0.5,0.8,0.8,1.2c0,0,0.1,0.1,0.1,0.1s0,0.1,0.1,0.1c0.4,0.5,0.7,1,1.1,1.5l0.1,0.1c0,0,0.1,0.1,0.1,0.1
		c0.2,0.3,0.4,0.5,0.6,0.7c0,0,0.1,0.1,0.1,0.1l0,0c0.2,0.3,0.4,0.5,0.6,0.8l0,0c0,0.1,0.1,0.1,0.1,0.2c0.2,0.2,0.3,0.4,0.5,0.5
		l0.1,0.1c0.1,0.1,0.1,0.1,0.2,0.2c0.1,0.1,0.3,0.3,0.4,0.4c0,0,0.1,0.1,0.1,0.1c0.1,0.1,0.1,0.1,0.2,0.2c0.1,0.1,0.3,0.3,0.4,0.4
		c0,0,0.1,0.1,0.1,0.1s0.1,0.1,0.2,0.1c0.1,0.1,0.3,0.3,0.4,0.4l0.2,0.1l0.1,0.1c0.2,0.2,0.4,0.3,0.5,0.5l0.2,0.1l0.1,0
		c0.2,0.2,0.5,0.4,0.7,0.6l0,0l0.1,0.1c0.2,0.2,0.4,0.3,0.7,0.5l0.1,0.1c0.1,0,0.1,0.1,0.2,0.1c0.2,0.1,0.4,0.3,0.6,0.4
		c0,0,0.1,0.1,0.1,0.1c0,0,0.1,0,0.1,0.1c0.2,0.2,0.5,0.3,0.7,0.5l0.1,0.1l0,0c0.3,0.2,0.6,0.3,0.8,0.5l0.1,0.1c0,0,0.1,0.1,0.1,0.1
		c0.2,0.1,0.4,0.3,0.6,0.4c0,0,0.1,0.1,0.1,0.1l0.2,0.1c0.2,0.1,0.5,0.3,0.7,0.4l0.1,0.1c0.2,0.1,0.3,0.2,0.5,0.2
		c0.1,0.1,0.2,0.1,0.4,0.2c0,0,0.1,0,0.1,0c0.1,0.1,0.3,0.1,0.4,0.2s0.2,0.1,0.4,0.2c0,0,0.1,0,0.1,0.1c0.1,0,0.2,0.1,0.3,0.1
		s0.2,0.1,0.3,0.1c0.1,0,0.1,0,0.2,0.1c0.1,0,0.2,0.1,0.4,0.1c0.1,0,0.2,0.1,0.3,0.1s0.2,0,0.2,0.1l0.3,0.1c0.1,0,0.1,0,0.2,0.1
		c0.1,0,0.2,0.1,0.3,0.1s0.2,0.1,0.3,0.1l0.1,0c0.1,0,0.3,0.1,0.4,0.1c0.1,0,0.2,0,0.3,0.1l0.1,0c0.2,0,0.4,0.1,0.6,0.1
		c0.1,0,0.1,0,0.2,0h0c0.3,0,0.5,0.1,0.8,0.1h0c0.1,0,0.2,0,0.4,0c0.1,0,0.3,0,0.4,0h0c0.3,0,0.6,0,0.9,0h0c0,0,0.1,0,0.1,0
		c0.3,0,0.5-0.1,0.8-0.1c0,0,0.1,0,0.1,0c0.1,0,0.3-0.1,0.4-0.1c0.1,0,0.1,0,0.2,0c0.2-0.1,0.5-0.1,0.7-0.2l0,0
		c0.2-0.1,0.3-0.1,0.5-0.2C499.9,629.8,500,629.8,500.1,629.8z"/>
	<path class="st16" d="M596.9,562.9c0-0.4,0-0.8,0-1.1c0-1.1,0-2.2-0.1-3.3c0-0.2,0-0.4,0-0.6c0-0.1,0-0.2,0-0.3
		c0-1.3-0.1-2.6-0.1-3.9c0-0.3,0-0.6,0-0.9c-0.1-1-0.1-2.1-0.2-3.1c0-0.2,0-0.4,0-0.6c0-0.2,0-0.3,0-0.5c-0.1-1-0.1-2-0.2-2.9
		c0-0.2,0-0.5-0.1-0.7c-0.1-1.2-0.2-2.4-0.3-3.6c0-0.1,0-0.2,0-0.2c0-0.3-0.1-0.5-0.1-0.8c-0.1-0.8-0.2-1.6-0.3-2.4
		c0-0.4-0.1-0.8-0.1-1.2c-0.1-0.8-0.2-1.5-0.3-2.3c0-0.2-0.1-0.5-0.1-0.7c0-0.2,0-0.3-0.1-0.5c-0.1-0.7-0.2-1.5-0.3-2.2
		c0-0.4-0.1-0.7-0.1-1.1c-0.1-1-0.3-2.1-0.5-3.1l0-0.1v0c-0.2-1-0.3-2-0.5-3.1c-0.1-0.3-0.1-0.7-0.2-1c-0.1-0.7-0.2-1.4-0.4-2
		c0-0.1,0-0.2-0.1-0.3c-0.1-0.3-0.1-0.6-0.2-1c-0.1-0.6-0.2-1.1-0.3-1.7c-0.1-0.4-0.2-0.9-0.3-1.3c-0.1-0.5-0.2-1.1-0.3-1.6
		c0-0.2-0.1-0.3-0.1-0.5c0-0.1-0.1-0.2-0.1-0.4c-0.4-1.7-0.8-3.4-1.2-5c0-0.1,0-0.2-0.1-0.3c0-0.1-0.1-0.2-0.1-0.4
		c-0.4-1.5-0.8-3-1.2-4.5c0-0.1,0-0.2-0.1-0.3c0-0.1-0.1-0.3-0.1-0.4c-0.4-1.4-0.8-2.9-1.2-4.3c0-0.1,0-0.1-0.1-0.2
		c0-0.1-0.1-0.2-0.1-0.4c-0.4-1.3-0.8-2.7-1.3-4c0,0,0-0.1,0-0.1l0,0c-0.4-1.2-0.8-2.4-1.3-3.6c0-0.1-0.1-0.3-0.1-0.4
		c0-0.1-0.1-0.2-0.1-0.4c-0.4-1.1-0.8-2.2-1.2-3.3c0,0,0-0.1,0-0.1c0-0.1-0.1-0.2-0.2-0.4c-0.4-0.9-0.7-1.8-1.1-2.7
		c-0.1-0.1-0.1-0.3-0.2-0.5c-0.1-0.1-0.1-0.2-0.2-0.4c-0.4-1-0.8-1.9-1.2-2.9l0-0.1v0c-0.4-1-0.9-1.9-1.3-2.9
		c-0.1-0.1-0.1-0.2-0.2-0.3c-0.1-0.1-0.1-0.3-0.2-0.4c-0.4-0.9-0.9-1.8-1.3-2.7c0-0.1-0.1-0.2-0.1-0.3c0,0,0,0,0-0.1
		c-0.5-1.1-1.1-2.1-1.6-3.1c-0.1-0.1-0.1-0.2-0.2-0.3c-0.1-0.1-0.2-0.3-0.2-0.4c-0.3-0.5-0.6-1.1-0.9-1.6c-0.1-0.3-0.3-0.5-0.4-0.8
		c-0.4-0.7-0.8-1.4-1.2-2c0-0.1-0.1-0.2-0.1-0.3l0,0c-0.7-1.2-1.4-2.3-2.1-3.4l-0.2-0.4c-0.7-1.1-1.4-2.1-2.1-3.2
		c-0.1-0.1-0.1-0.2-0.2-0.3c-0.1-0.1-0.2-0.2-0.2-0.3c-0.2-0.3-0.5-0.7-0.7-1c-0.2-0.3-0.4-0.6-0.6-0.9c-0.2-0.3-0.5-0.7-0.7-1
		c-0.1-0.2-0.3-0.4-0.4-0.6c0-0.1-0.1-0.1-0.1-0.2c-0.7-0.9-1.4-1.9-2.1-2.8c-0.1-0.1-0.1-0.2-0.2-0.2c-0.1-0.1-0.2-0.2-0.3-0.3
		c-0.5-0.6-1-1.3-1.5-1.9c-0.1-0.1-0.1-0.2-0.2-0.3c0,0,0-0.1-0.1-0.1c-0.6-0.7-1.2-1.4-1.8-2.1c-0.1-0.1-0.1-0.1-0.2-0.2
		c-0.1-0.1-0.2-0.2-0.3-0.3c-0.5-0.6-1-1.1-1.5-1.6c-0.1-0.1-0.2-0.2-0.3-0.3c-0.1-0.1-0.1-0.1-0.2-0.2c-0.6-0.7-1.3-1.3-1.9-2
		c0,0,0-0.1-0.1-0.1c-0.1-0.1-0.1-0.1-0.2-0.2c-0.6-0.6-1.2-1.2-1.9-1.8c-0.1-0.1-0.2-0.2-0.3-0.3c-0.1-0.1-0.1-0.1-0.2-0.2
		c-0.7-0.7-1.4-1.3-2.1-2c0,0-0.1-0.1-0.1-0.1c-0.1-0.1-0.2-0.1-0.2-0.2c-0.7-0.6-1.3-1.2-2-1.8c-0.1-0.1-0.2-0.2-0.3-0.2
		c-0.1,0-0.1-0.1-0.2-0.1c-0.8-0.6-1.5-1.3-2.3-1.9c-0.1,0-0.1-0.1-0.2-0.1c-0.1-0.1-0.2-0.2-0.3-0.2c-0.7-0.6-1.4-1.1-2.2-1.6
		c-0.1-0.1-0.1-0.1-0.2-0.2c0,0,0,0-0.1-0.1c-0.8-0.6-1.6-1.1-2.4-1.7c-0.1-0.1-0.2-0.1-0.3-0.2s-0.2-0.1-0.3-0.2
		c-0.8-0.6-1.6-1.1-2.5-1.6l0,0l-0.1-0.1c-0.8-0.5-1.6-1-2.4-1.5c-0.1-0.1-0.2-0.1-0.3-0.2c-0.2-0.1-0.4-0.3-0.7-0.4
		c-0.6-0.4-1.3-0.7-1.9-1.1c-0.1,0-0.2-0.1-0.2-0.1c-0.2-0.1-0.3-0.2-0.5-0.2c-0.2-0.1-0.4-0.2-0.6-0.3c-0.3-0.1-0.5-0.3-0.8-0.4
		c-0.2-0.1-0.4-0.2-0.6-0.3c-0.1,0-0.1-0.1-0.2-0.1s-0.1-0.1-0.2-0.1c-0.8-0.4-1.6-0.8-2.3-1.1l0,0c0,0-0.1,0-0.1,0
		c-0.7-0.3-1.5-0.6-2.2-0.9c-0.1,0-0.1-0.1-0.2-0.1c0,0-0.1,0-0.1,0c-0.7-0.3-1.4-0.5-2.1-0.8c-0.1,0-0.1-0.1-0.2-0.1
		s-0.1,0-0.2-0.1c-0.7-0.2-1.4-0.5-2.1-0.7c0,0-0.1,0-0.1,0c-0.1,0-0.1,0-0.2-0.1c-0.7-0.2-1.4-0.4-2.1-0.6l-0.1,0h0
		c-0.7-0.2-1.4-0.3-2.1-0.5c-0.1,0-0.1,0-0.2,0s-0.1,0-0.2,0c-0.2,0-0.3-0.1-0.5-0.1c-0.2,0-0.5-0.1-0.7-0.1c-0.2,0-0.3-0.1-0.5-0.1
		c-0.1,0-0.3,0-0.4-0.1c-0.1,0-0.2,0-0.3,0c-0.2,0-0.4,0-0.6-0.1c-0.2,0-0.4,0-0.7-0.1c-0.2,0-0.4,0-0.6-0.1c-0.1,0-0.2,0-0.3,0
		s-0.2,0-0.3,0c-0.2,0-0.4,0-0.6,0s-0.4,0-0.6,0s-0.4,0-0.6,0c-0.1,0-0.2,0-0.3,0s-0.2,0-0.3,0c-0.3,0-0.5,0-0.8,0
		c-0.2,0-0.3,0-0.5,0c-0.3,0-0.5,0-0.8,0.1c-0.1,0-0.2,0-0.3,0l-0.1,0c-0.5,0-0.9,0.1-1.4,0.2c-0.1,0-0.1,0-0.2,0
		c-0.4,0.1-0.8,0.1-1.2,0.2c-0.1,0-0.1,0-0.2,0s-0.1,0-0.2,0c-0.6,0.1-1.1,0.2-1.7,0.4c0,0-0.1,0-0.1,0c-0.5,0.1-1.1,0.3-1.6,0.5
		c-0.1,0-0.1,0-0.2,0.1l-0.1,0.1c-0.2,0.1-0.4,0.2-0.6,0.2c-0.2,0.1-0.3,0.1-0.5,0.2c-0.2,0.1-0.4,0.2-0.7,0.3
		c-0.1,0.1-0.3,0.1-0.4,0.2c-0.2,0.1-0.5,0.2-0.7,0.4c-0.1,0.1-0.2,0.1-0.4,0.2c-0.4,0.2-0.7,0.4-1.1,0.6l-46.6,27.1
		c0.3-0.2,0.7-0.4,1.1-0.6c0.1-0.1,0.2-0.1,0.4-0.2c0.2-0.1,0.5-0.2,0.7-0.4c0.1-0.1,0.3-0.1,0.4-0.2c0.2-0.1,0.4-0.2,0.7-0.3
		c0.2-0.1,0.3-0.1,0.5-0.2c0.2-0.1,0.4-0.2,0.6-0.2c0.1,0,0.2-0.1,0.3-0.1c0.5-0.2,1.1-0.4,1.6-0.5l0.1,0c0.6-0.2,1.1-0.3,1.7-0.4
		c0.1,0,0.2-0.1,0.4-0.1c0.4-0.1,0.8-0.1,1.2-0.2c0.1,0,0.1,0,0.2,0c0.5-0.1,0.9-0.1,1.4-0.2c0.2,0,0.3,0,0.5,0c0.3,0,0.5,0,0.8-0.1
		c0.2,0,0.3,0,0.5,0c0.3,0,0.5,0,0.8,0c0.2,0,0.4,0,0.6,0s0.4,0,0.6,0s0.4,0,0.6,0s0.4,0,0.6,0s0.4,0,0.6,0c0.2,0,0.4,0,0.6,0.1
		c0.2,0,0.4,0,0.7,0.1c0.2,0,0.4,0,0.6,0.1c0.2,0,0.5,0.1,0.7,0.1c0.2,0,0.3,0,0.5,0.1c0.2,0,0.5,0.1,0.7,0.1c0.2,0,0.3,0.1,0.5,0.1
		c0.1,0,0.3,0.1,0.4,0.1c0.7,0.1,1.4,0.3,2.1,0.5l0.1,0c0.7,0.2,1.4,0.4,2.1,0.6c0.1,0,0.2,0.1,0.3,0.1c0.7,0.2,1.4,0.4,2.1,0.7
		c0.1,0,0.3,0.1,0.4,0.1c0.7,0.2,1.4,0.5,2.1,0.8l0.3,0.1c0.7,0.3,1.5,0.6,2.2,0.9l0.1,0c0.8,0.3,1.5,0.7,2.3,1.1
		c0.1,0.1,0.3,0.1,0.4,0.2c0.2,0.1,0.4,0.2,0.6,0.3c0.3,0.1,0.5,0.3,0.8,0.4c0.2,0.1,0.4,0.2,0.6,0.3l0.7,0.4
		c0.6,0.3,1.3,0.7,1.9,1.1c0.3,0.2,0.6,0.4,1,0.6c0.8,0.5,1.6,1,2.4,1.5c0.1,0,0.1,0.1,0.2,0.1c0.8,0.5,1.6,1.1,2.5,1.6
		c0.2,0.1,0.4,0.2,0.5,0.4c0.8,0.6,1.6,1.1,2.4,1.7l0.3,0.2c0.7,0.5,1.4,1.1,2.2,1.6c0.2,0.1,0.3,0.2,0.5,0.4
		c0.8,0.6,1.5,1.2,2.3,1.9c0.1,0.1,0.3,0.3,0.4,0.4c0.7,0.6,1.3,1.2,2,1.8c0.1,0.1,0.2,0.2,0.3,0.3c0.7,0.6,1.4,1.3,2.1,2
		c0.2,0.2,0.3,0.3,0.5,0.5c0.6,0.6,1.2,1.2,1.9,1.8c0.1,0.1,0.2,0.2,0.3,0.3c0.6,0.7,1.3,1.3,1.9,2c0.2,0.2,0.3,0.3,0.5,0.5
		c0.5,0.5,1,1.1,1.5,1.6c0.2,0.2,0.3,0.4,0.5,0.5c0.6,0.7,1.2,1.4,1.8,2.1c0.1,0.1,0.2,0.2,0.3,0.4c0.5,0.6,1,1.3,1.5,1.9
		c0.1,0.2,0.3,0.4,0.4,0.6c0.7,0.9,1.4,1.8,2.1,2.8c0.2,0.3,0.4,0.5,0.6,0.8c0.2,0.3,0.5,0.7,0.7,1c0.2,0.3,0.4,0.6,0.6,0.9
		c0.2,0.3,0.5,0.7,0.7,1c0.1,0.2,0.3,0.4,0.4,0.6c0.7,1,1.4,2.1,2.1,3.2c0.1,0.1,0.2,0.3,0.2,0.4c0.7,1.1,1.4,2.3,2.1,3.4
		c0.1,0.1,0.1,0.2,0.2,0.3c0.4,0.7,0.8,1.4,1.2,2c0.1,0.3,0.3,0.5,0.4,0.8c0.3,0.5,0.6,1.1,0.9,1.6c0.1,0.3,0.3,0.5,0.4,0.8
		c0.5,1,1.1,2.1,1.6,3.1c0.1,0.1,0.1,0.2,0.2,0.3c0.4,0.9,0.9,1.8,1.3,2.7c0.1,0.3,0.2,0.5,0.4,0.8c0.4,1,0.9,1.9,1.3,2.9l0,0.1
		c0.4,0.9,0.8,1.9,1.2,2.9c0.1,0.3,0.2,0.5,0.3,0.8c0.4,0.9,0.7,1.8,1.1,2.7c0.1,0.2,0.1,0.3,0.2,0.5c0.4,1.1,0.8,2.2,1.2,3.3
		c0.1,0.3,0.2,0.5,0.3,0.8c0.4,1.2,0.8,2.4,1.2,3.6l0.1,0.2c0.4,1.3,0.9,2.7,1.3,4c0.1,0.2,0.1,0.4,0.2,0.5c0.4,1.4,0.8,2.8,1.2,4.3
		c0.1,0.2,0.1,0.4,0.2,0.7c0.4,1.5,0.8,3,1.2,4.5c0.1,0.2,0.1,0.4,0.2,0.7c0.4,1.7,0.8,3.3,1.2,5c0.1,0.3,0.1,0.5,0.2,0.8
		c0.1,0.5,0.2,1.1,0.3,1.6c0.1,0.4,0.2,0.9,0.3,1.3c0.1,0.6,0.2,1.1,0.3,1.7c0.1,0.4,0.2,0.8,0.2,1.3c0.1,0.7,0.2,1.4,0.4,2
		c0.1,0.3,0.1,0.7,0.2,1c0.2,1,0.3,2,0.5,3.1l0,0c0.2,1,0.3,2.1,0.5,3.2c0,0.3,0.1,0.7,0.1,1c0.1,0.7,0.2,1.5,0.3,2.2
		c0.1,0.4,0.1,0.8,0.1,1.2c0.1,0.8,0.2,1.5,0.3,2.3c0,0.4,0.1,0.8,0.1,1.2c0.1,0.8,0.2,1.6,0.3,2.4c0,0.3,0.1,0.7,0.1,1
		c0.1,1.2,0.2,2.4,0.3,3.6c0,0.2,0,0.5,0.1,0.7c0.1,1,0.1,2,0.2,2.9c0,0.4,0,0.8,0.1,1.1c0.1,1,0.1,2.1,0.2,3.1c0,0.3,0,0.6,0,0.9
		c0.1,1.3,0.1,2.6,0.1,3.9c0,0.3,0,0.6,0,0.9c0,1.1,0.1,2.2,0.1,3.3c0,0.4,0,0.8,0,1.1c0,1.4,0,2.7,0,4.1c0,1.2,0,2.4,0,3.6
		c0,0.2,0,0.5,0,0.7c0,1,0,2-0.1,3c0,0.1,0,0.3,0,0.4c0,1.1-0.1,2.2-0.1,3.2c0,0.2,0,0.5,0,0.7c0,1.1-0.1,2.1-0.2,3.1
		c0,0.1,0,0.2,0,0.2c-0.1,1-0.1,1.9-0.2,2.9c0,0.2,0,0.4,0,0.6c0,0.4-0.1,0.9-0.1,1.3c-0.1,0.9-0.2,1.7-0.2,2.5
		c0,0.5-0.1,0.9-0.1,1.3c-0.1,0.8-0.2,1.5-0.3,2.3c-0.1,0.4-0.1,0.9-0.2,1.3c-0.1,0.7-0.2,1.5-0.3,2.2c-0.1,0.4-0.1,0.8-0.2,1.2
		c-0.1,0.9-0.3,1.7-0.4,2.6c0,0.2-0.1,0.5-0.1,0.7c-0.2,1.1-0.4,2.1-0.6,3.1c-0.1,0.3-0.1,0.5-0.2,0.8c-0.2,0.8-0.3,1.5-0.5,2.2
		c-0.1,0.4-0.2,0.7-0.2,1.1c-0.2,0.6-0.3,1.3-0.5,1.9c-0.1,0.4-0.2,0.7-0.3,1.1c-0.2,0.6-0.3,1.2-0.5,1.8c-0.1,0.4-0.2,0.9-0.4,1.3
		l-0.1,0.4c-0.2,0.7-0.4,1.4-0.7,2.1c0,0.1-0.1,0.2-0.1,0.4c-0.2,0.6-0.4,1.3-0.7,1.9c0,0.1-0.1,0.2-0.1,0.2
		c-0.2,0.7-0.5,1.3-0.8,1.9c-0.1,0.2-0.1,0.3-0.2,0.5c-0.2,0.6-0.5,1.1-0.7,1.7c0,0.1-0.1,0.2-0.1,0.2c-0.3,0.6-0.5,1.2-0.8,1.7
		c-0.1,0.2-0.2,0.4-0.3,0.6c-0.2,0.4-0.4,0.8-0.6,1.2c-0.1,0.2-0.2,0.4-0.3,0.6c-0.2,0.4-0.5,0.8-0.7,1.3c-0.1,0.1-0.2,0.3-0.2,0.4
		c-0.3,0.5-0.6,1.1-1,1.6c-0.4,0.6-0.8,1.2-1.2,1.8c-0.1,0.1-0.2,0.2-0.2,0.3c-0.3,0.4-0.7,0.9-1,1.3c-0.1,0.2-0.3,0.4-0.5,0.6
		c-0.3,0.3-0.6,0.7-0.8,1c-0.2,0.2-0.3,0.4-0.5,0.6c-0.3,0.3-0.5,0.6-0.8,0.9c-0.2,0.2-0.4,0.4-0.6,0.6c-0.3,0.3-0.6,0.5-0.8,0.8
		c-0.2,0.2-0.4,0.3-0.6,0.5c-0.3,0.3-0.6,0.5-0.9,0.7c-0.2,0.1-0.4,0.3-0.6,0.4c-0.3,0.3-0.7,0.5-1,0.7c-0.2,0.1-0.3,0.2-0.5,0.3
		c-0.5,0.3-1,0.7-1.5,1l46.6-27.1c0.5-0.3,1-0.6,1.5-1c0.2-0.1,0.3-0.2,0.5-0.3c0.3-0.2,0.7-0.5,1-0.7c0.2-0.1,0.4-0.3,0.6-0.4
		c0.3-0.2,0.6-0.5,0.9-0.7c0.2-0.2,0.4-0.3,0.6-0.5c0.3-0.3,0.6-0.5,0.8-0.8c0.2-0.2,0.4-0.4,0.6-0.6c0.3-0.3,0.5-0.6,0.8-0.9
		c0.2-0.2,0.3-0.4,0.5-0.6c0.3-0.3,0.6-0.7,0.8-1c0.2-0.2,0.3-0.4,0.5-0.6c0.3-0.4,0.7-0.9,1-1.3c0.1-0.1,0.2-0.2,0.2-0.3
		c0.4-0.6,0.8-1.2,1.2-1.8l0-0.1c0.3-0.5,0.6-1,0.9-1.5c0.1-0.1,0.2-0.3,0.2-0.4c0.2-0.4,0.5-0.8,0.7-1.3c0.1-0.2,0.2-0.4,0.3-0.6
		c0.2-0.4,0.4-0.8,0.6-1.2c0.1-0.2,0.2-0.4,0.3-0.6c0-0.1,0.1-0.2,0.1-0.3c0.2-0.5,0.4-1,0.7-1.4c0-0.1,0.1-0.2,0.1-0.2
		c0.2-0.5,0.5-1.1,0.7-1.7c0.1-0.2,0.1-0.3,0.2-0.5c0.2-0.6,0.5-1.2,0.7-1.8c0,0,0-0.1,0-0.1c0-0.1,0.1-0.2,0.1-0.2
		c0.2-0.6,0.4-1.3,0.7-1.9c0-0.1,0.1-0.2,0.1-0.4c0.2-0.7,0.4-1.4,0.7-2.1c0-0.1,0.1-0.3,0.1-0.4c0.1-0.2,0.1-0.4,0.2-0.7
		c0.1-0.2,0.1-0.4,0.2-0.6c0.2-0.6,0.3-1.2,0.5-1.8c0.1-0.4,0.2-0.7,0.3-1.1c0.2-0.6,0.3-1.3,0.5-1.9c0.1-0.2,0.1-0.5,0.2-0.7
		c0-0.1,0-0.2,0.1-0.3c0.2-0.7,0.3-1.5,0.5-2.2c0.1-0.3,0.1-0.5,0.2-0.8c0.2-1,0.4-2.1,0.6-3.1c0,0,0-0.1,0-0.1
		c0-0.2,0.1-0.4,0.1-0.6c0.1-0.8,0.3-1.7,0.4-2.6c0.1-0.4,0.1-0.8,0.2-1.2c0.1-0.7,0.2-1.5,0.3-2.2c0-0.2,0.1-0.4,0.1-0.6
		c0-0.2,0.1-0.5,0.1-0.8c0.1-0.8,0.2-1.5,0.3-2.3c0-0.4,0.1-0.9,0.1-1.3c0.1-0.8,0.2-1.7,0.2-2.5c0-0.3,0.1-0.6,0.1-0.9
		c0-0.1,0-0.3,0-0.4l0-0.6c0.1-1,0.1-1.9,0.2-2.9c0-0.1,0-0.2,0-0.2c0.1-1,0.1-2.1,0.2-3.1c0-0.2,0-0.5,0-0.7s0-0.4,0-0.7
		c0-0.8,0.1-1.7,0.1-2.5c0-0.1,0-0.3,0-0.4c0-1,0.1-2,0.1-3c0-0.2,0-0.5,0-0.7c0-1,0-2,0-3c0-0.2,0-0.4,0-0.6
		C596.9,565.6,596.9,564.2,596.9,562.9z"/>
	<path class="st12" d="M492,446.8c38.5,22.2,64.2,73.3,64,143.6s-26.1,93.2-64.6,71s-64.2-74.9-64-145.2S453.5,424.6,492,446.8z
		 M491.5,624.3c14.2,8.2,25-0.3,25.1-56.6c0.2-56.7-10.6-75.6-24.7-83.8c-13.9-8-25-1.7-25.1,55
		C466.6,595.2,477.7,616.3,491.5,624.3"/>
	<path class="st15" d="M606.1,644.6l46.6-27.1l38,21.9L644,666.5L606.1,644.6z"/>
	<path class="st16" d="M682.8,725.4l46.6-27.1l-0.1,49.5l-46.6,27.1L682.8,725.4z"/>
	<path class="st17" d="M630,613.4l46.6-27.1l-23.9,31.2l-46.6,27.1L630,613.4z"/>
	<path class="st16" d="M703.5,700.8l46.6-27.1l-0.1,36.5l-46.6,27.1L703.5,700.8z"/>
	<path class="st15" d="M682.9,688.9l46.6-27.1l20.7,11.9l-46.6,27.1L682.9,688.9z"/>
	<g>
		<g>
			<defs>
				<path id="SVGID_00000016785156422267088360000017435996919892998033_" d="M644.8,587l46.6-27.1c-4.6,8.8-9.7,17.6-14.8,26.3
					L630,613.4C635.1,604.6,640.3,595.8,644.8,587z"/>
			</defs>
			<clipPath id="SVGID_00000037673777162177219690000003433070948547314860_">
				<use xlink:href="#SVGID_00000016785156422267088360000017435996919892998033_"  style="overflow:visible;"/>
			</clipPath>
			<g style="clip-path:url(#SVGID_00000037673777162177219690000003433070948547314860_);">
				<path class="st17" d="M644.8,587l46.6-27.1c-4.6,8.8-9.7,17.6-14.8,26.3L630,613.4C635.1,604.6,640.3,595.8,644.8,587"/>
			</g>
		</g>
	</g>
	<path class="st16" d="M683.2,568.1l46.6-27.1l-0.3,120.8l-46.6,27.1L683.2,568.1z"/>
	<path class="st15" d="M632.2,538.6l46.6-27.1l51,29.4l-46.6,27.1L632.2,538.6z"/>
	<path class="st12" d="M688,685.6l20.7,11.9l-0.1,36.5l-5.1,3.3L687.9,722l-0.1,49.9l-5.1,3l-33.7-25.7l0.1-49.5l-77.9-45l0.1-32.9
		l61-83.1l5.4-3.2l50.7,29.3L688,685.6z M649.2,629.6c0-13.4,1.2-32.6,1.8-45.3l-1.1-0.7c-4.6,8.8-9.7,17.6-14.8,26.3l-23.9,31.2
		l38,21.9L649.2,629.6"/>
	<path class="st21" d="M486.3,450.5c38.5,22.2,64.2,73.3,64,143.6s-26.1,93.2-64.6,71s-64.2-74.9-64-145.2S447.7,428.2,486.3,450.5z
		 M485.8,627.9c14.2,8.2,25-0.3,25.1-56.6c0.2-56.7-10.6-75.6-24.7-83.8c-13.9-8-25-1.7-25.1,55
		C460.9,598.9,471.9,619.9,485.8,627.9"/>
	<path class="st21" d="M682.9,688.9l20.7,11.9l-0.1,36.5l-20.7-11.9l-0.1,49.5l-38.8-22.4l0.1-49.5L566,658l0.1-32.9l66.1-86.4
		l51,29.4L682.9,688.9z M644.1,632.9c0-13.4,1.2-32.6,1.8-45.3l-1.1-0.7c-4.6,8.8-9.7,17.6-14.8,26.3l-23.9,31.2l38,21.9
		L644.1,632.9"/>
	<path class="st21" d="M383.6,516.1l20.7,11.9l-0.1,36.5l-20.7-11.9l-0.1,49.5l-38.8-22.4l0.1-49.5l-77.9-45l0.1-32.9l66.1-86.4
		l51,29.4L383.6,516.1z M344.9,460.2c0-13.4,1.2-32.6,1.8-45.3l-1.1-0.7c-4.6,8.8-9.7,17.6-14.8,26.3l-23.9,31.2l38,21.9
		L344.9,460.2"/>
</g>
</svg>
