<svg xmlns="http://www.w3.org/2000/svg" xmlns:xlink="http://www.w3.org/1999/xlink" width="552.561" height="524.03" viewBox="0 0 552.561 524.03">
  <defs>
    <linearGradient id="linear-gradient" y1="0.5" x2="1" y2="0.5" gradientUnits="objectBoundingBox">
      <stop offset="0" stop-color="#978fff"/>
      <stop offset="0.272" stop-color="#a49dff"/>
      <stop offset="0.662" stop-color="#b1abff"/>
      <stop offset="1" stop-color="#b6b0ff"/>
    </linearGradient>
    <linearGradient id="linear-gradient-4" y1="0.5" x2="1" y2="0.5" gradientUnits="objectBoundingBox">
      <stop offset="0" stop-color="#fffdff"/>
      <stop offset="0.329" stop-color="#fcfaff"/>
      <stop offset="0.53" stop-color="#f4f1ff"/>
      <stop offset="0.696" stop-color="#e6e3ff"/>
      <stop offset="0.844" stop-color="#d3cfff"/>
      <stop offset="0.978" stop-color="#bab5ff"/>
      <stop offset="1" stop-color="#b6b0ff"/>
    </linearGradient>
    <linearGradient id="linear-gradient-5" x1="0.204" y1="0.5" x2="0.796" y2="0.5" gradientUnits="objectBoundingBox">
      <stop offset="0" stop-color="#7568d4"/>
      <stop offset="1" stop-color="#4424af"/>
    </linearGradient>
    <clipPath id="clip-path">
      <path id="Caminho_1596" data-name="Caminho 1596" d="M1443.336,874.971h-7.1c-7.289,0-12.244,3.416-16.864,9.217h-.193l-10.014,15.677c-3.215,5.029-4.581,11.725-.617,16.126h0c5.113,5.677,8.477,13.848,6.12,21.259l-9.946,40.2c16.589,7.27,22.354-2.507,49.283,2.753h0c-3.9-29.214,7.407-71.818,7.407-71.818C1467.879,886.287,1456.4,879.8,1443.336,874.971Z" transform="translate(-1404.719 -874.971)" fill="#6c2196"/>
    </clipPath>
    <linearGradient id="linear-gradient-6" x1="0.5" y1="-0.407" x2="0.5" y2="1.075" gradientUnits="objectBoundingBox">
      <stop offset="0" stop-color="#fffdff"/>
      <stop offset="0.557" stop-color="#d7d3ff"/>
      <stop offset="1" stop-color="#b6b0ff"/>
    </linearGradient>
    <clipPath id="clip-path-2">
      <path id="Caminho_1651" data-name="Caminho 1651" d="M1641.776,1111.56l.2.965-56.43-.965h-53.061l4.365-17.369a250.523,250.523,0,0,0,7.092-76.261l.46-25.059-29.507-5.046s.188-6.408,4.487-25.417c11.215-43.178,35.323-58.874,53.125-62.564l13.039,2.347,13.039-2.347a51.7,51.7,0,0,1,10.819,3.641c16.815,7.671,36.975,25.78,45.192,56.362,3.192,21.1,3.529,27.207,3.529,27.308l-21.727,4.8-.034.008h0l-6.72,1.356.647,31.077v.048l.713,34.244,6.853,33.606Z" transform="translate(-1514.893 -899.845)" fill="#6c2196"/>
    </clipPath>
    <linearGradient id="linear-gradient-7" y1="0.5" x2="1" y2="0.5" gradientUnits="objectBoundingBox">
      <stop offset="0" stop-color="#6c2196"/>
      <stop offset="0.133" stop-color="#782da2"/>
      <stop offset="0.466" stop-color="#9246bb"/>
      <stop offset="0.766" stop-color="#a256cb"/>
      <stop offset="1" stop-color="#a85cd1"/>
    </linearGradient>
  </defs>
  <g id="Grupo_1758" data-name="Grupo 1758" transform="translate(-1355.565 -692.271)">
    <g id="Grupo_1600" data-name="Grupo 1600" transform="translate(1375.389 692.271)">
      <path id="Caminho_1552" data-name="Caminho 1552" d="M1849.088,1076.532c-19.128-72.151-76.224-71.758-76.636-99.895-.214-14.543,15.658-22.682,26.46-32.211,19.446-17.161,25.181-46.821,19.078-72.184-15.774-65.564-101.913-115.681-162.94-145.106-32.21-15.538-65.656-29.862-101.135-33.807-102.705-11.419-151.6,72.072-125.543,127.091,10.547,22.271,33.056,40.689,31.218,65.5-2.693,36.208-48.532,47.852-68.264,72.724-23.244,29.288-24.079,80.664-14.38,116.8,13.524,50.39,74.6,106.05,137.559,102.875,17.079-.86,52.17-17.684,65.005-6.231,12.289,10.961,10.742,28,26.516,42.71h158.337c13.445-8.975,39.995-18.355,50.263-31.108C1839.741,1152.5,1862.68,1127.8,1849.088,1076.532Z" transform="translate(-1371.104 -692.271)" fill="#e6e6ff"/>
      <path id="Caminho_1553" data-name="Caminho 1553" d="M1777.168,925.2c-1.338,26.765-30.719,40.518-51.823,28.868-22.726-12.544-24.23-44.933-2.766-59.53C1746.32,878.4,1778.6,896.538,1777.168,925.2Z" transform="translate(-1278.396 -638.172)" fill="#e6e6ff"/>
    </g>
    <g id="Grupo_1604" data-name="Grupo 1604" transform="translate(1556.003 697.908)">
      <path id="Caminho_1554" data-name="Caminho 1554" d="M1576.468,724c-3.39,7.846-9.433,13.416-15.78,15.389-2.912-5.973-3-14.192.39-22.037s9.433-13.417,15.78-15.39C1579.771,707.937,1579.858,716.155,1576.468,724Z" transform="translate(-1500.044 -695.236)" fill="#ffb4e1"/>
      <g id="Grupo_1601" data-name="Grupo 1601" transform="translate(60.032 16.659)">
        <path id="Caminho_1555" data-name="Caminho 1555" d="M1560.864,737.191l-1.124-.242a76.774,76.774,0,0,1,11.4-27.2l.945.656A75.623,75.623,0,0,0,1560.864,737.191Z" transform="translate(-1559.74 -709.748)" fill="#d46893"/>
      </g>
      <ellipse id="Elipse_90" data-name="Elipse 90" cx="9.023" cy="21.946" rx="9.023" ry="21.946" transform="translate(0 16.567) rotate(-66.635)" fill="#ffb4e1"/>
      <path id="Caminho_1556" data-name="Caminho 1556" d="M1544.529,733.69c9.2.287,17.165,4.132,21.653,9.7-4.827,5.28-13.02,8.62-22.216,8.333s-17.165-4.133-21.653-9.7C1527.139,736.741,1535.333,733.4,1544.529,733.69Z" transform="translate(-1510.027 -686.493)" fill="#ffb4e1"/>
      <g id="Grupo_1602" data-name="Grupo 1602" transform="translate(12.339 9.991)">
        <path id="Caminho_1557" data-name="Caminho 1557" d="M1583.93,783.669c-.848-16.343-5.345-31.384-13-43.5-10.437-16.5-26.777-28.126-48.572-34.549l.325-1.1c22.07,6.5,38.629,18.292,49.217,35.038,7.765,12.277,12.322,27.511,13.181,44.05Z" transform="translate(-1522.355 -704.521)" fill="#d46893"/>
      </g>
      <g id="Grupo_1603" data-name="Grupo 1603" transform="translate(24.355 54.33)">
        <path id="Caminho_1558" data-name="Caminho 1558" d="M1577.04,751.033c-.334-.356-.744-.759-1.218-1.2a36.482,36.482,0,0,0-24.348-9.678c-9.2-.124-19.523.73-19.627.737l-.073-.861c.1-.009,10.462-.873,19.712-.741a37.345,37.345,0,0,1,24.924,9.908c.49.453.914.871,1.262,1.243Z" transform="translate(-1531.774 -739.277)" fill="#d46893"/>
      </g>
    </g>
    <g id="Grupo_1606" data-name="Grupo 1606" transform="translate(1419.766 732.215)">
      <g id="Grupo_1605" data-name="Grupo 1605">
        <path id="Caminho_1559" data-name="Caminho 1559" d="M1424.265,812.444A53.9,53.9,0,0,1,1438,727.715a1.764,1.764,0,1,0-1.657-3.114,57.421,57.421,0,0,0-14.463,90.451l-6.961,7.607,19.973,4.32-4.573-21.148Z" transform="translate(-1405.89 -723.358)" opacity="0.8" fill="url(#linear-gradient)"/>
        <path id="Caminho_1560" data-name="Caminho 1560" d="M1487.069,735.509l6.963-7.607-19.972-4.32,4.572,21.148,6.052-6.613a53.894,53.894,0,0,1-13.734,84.728,1.765,1.765,0,1,0,1.658,3.115,57.421,57.421,0,0,0,14.461-90.451Z" transform="translate(-1388.21 -723.582)" opacity="0.8" fill="url(#linear-gradient)"/>
        <path id="Caminho_1561" data-name="Caminho 1561" d="M1498.729,772.693A39.326,39.326,0,1,0,1459.4,812.02,39.371,39.371,0,0,0,1498.729,772.693Zm-50.456-34.016c-6.22,6.48-10.4,18.317-10.731,32.251h-13.89A35.863,35.863,0,0,1,1448.273,738.678Zm-24.621,35.78h13.89c.327,13.935,4.511,25.772,10.731,32.253A35.865,35.865,0,0,1,1423.652,774.458Zm33.988,33.856c-8.862-1.738-16.108-16.38-16.569-33.856h16.569Zm0-37.385H1441.07c.461-17.476,7.707-32.117,16.569-33.856Zm37.516,0h-13.891c-.327-13.935-4.51-25.771-10.73-32.251A35.865,35.865,0,0,1,1495.155,770.929Zm-33.988-33.856c8.862,1.739,16.108,16.38,16.568,33.856h-16.568Zm0,71.241V774.458h16.568C1477.276,791.934,1470.03,806.576,1461.168,808.314Zm9.366-1.6c6.22-6.481,10.4-18.318,10.73-32.253h13.891A35.866,35.866,0,0,1,1470.534,806.71Z" transform="translate(-1401.978 -720.884)" opacity="0.8" fill="url(#linear-gradient)"/>
      </g>
    </g>
    <g id="Grupo_1609" data-name="Grupo 1609" transform="translate(1701.932 838.181)">
      <path id="Caminho_1562" data-name="Caminho 1562" d="M1695.143,828.539c4.352-.671,7.886-3.73,9.721-5.2,6.871-5.517,9.65-10.828,17.535-14.761s19.9-1.911,22.039,6.638c2.253,8.99-9.021,15.37-15.33,23.055a9.757,9.757,0,0,0,1.185,13.6c4.242,3.622,8.271,8.184,9.193,12.257,1.875,8.288-1.744,15.071-7.386,18.594-4.53,2.828-10.4-.205-15.557,1.172s-9.245,7.5-8.454,12.776c.462,3.086,3.037,8.158,4.189,11.057,4.417,11.11-.509,23.252-9.794,30.927-3.568,2.949-22.085,6.162-29.955,4-15.006-4.128-28.012.193-34.161-2.872-6.413-3.194-9.4-10.712-10.554-17.783a60.49,60.49,0,0,1,14.176-49.033,13.3,13.3,0,0,1,4.677-3.763c2.244-.92,4.815-.705,7.093-1.538,4.964-1.815,6.912-7.859,7.021-13.142s-.917-10.761.852-15.742c3.508-9.873,9.486-13.451,19.942-14.143C1689.172,824.127,1689.346,829.433,1695.143,828.539Z" transform="translate(-1627.073 -806.646)" fill="#ffb4e1"/>
      <g id="Grupo_1608" data-name="Grupo 1608" transform="translate(22.957 19.13)">
        <g id="Grupo_1607" data-name="Grupo 1607">
          <path id="Caminho_1563" data-name="Caminho 1563" d="M1647.318,925.031l-2.25-1.158.352-.684a413.145,413.145,0,0,1,73.142-101l.541-.547,1.8,1.776-.54.547a410.58,410.58,0,0,0-72.694,100.384Z" transform="translate(-1645.068 -821.641)" fill="#d46893"/>
        </g>
      </g>
    </g>
    <g id="Grupo_1614" data-name="Grupo 1614" transform="translate(1500.657 754.673)">
      <g id="Grupo_1612" data-name="Grupo 1612">
        <rect id="Retângulo_442" data-name="Retângulo 442" width="253.831" height="460.128" rx="13.078" fill="#9087f4"/>
        <path id="Retângulo_443" data-name="Retângulo 443" d="M9.5,0h225.7a9.5,9.5,0,0,1,9.5,9.5v432a9.5,9.5,0,0,1-9.5,9.5H9.5A9.5,9.5,0,0,1,0,441.5V9.5A9.5,9.5,0,0,1,9.5,0Z" transform="translate(4.561 4.561)" fill="url(#linear-gradient-4)"/>
        <g id="Grupo_1610" data-name="Grupo 1610" transform="translate(88.504 13.247)">
          <path id="Caminho_1564" data-name="Caminho 1564" d="M1591.031,769.126h-43.58a8.778,8.778,0,0,1,0-17.556h43.58a8.778,8.778,0,0,1,0,17.556Zm-43.58-14.478a5.7,5.7,0,0,0,0,11.4h43.58a5.7,5.7,0,0,0,0-11.4Z" transform="translate(-1538.674 -751.57)" fill="#9087f4"/>
        </g>
        <g id="Grupo_1611" data-name="Grupo 1611" transform="translate(154.209 13.159)">
          <path id="Caminho_1565" data-name="Caminho 1565" d="M1599.045,769.233a8.866,8.866,0,1,1,8.866-8.866A8.877,8.877,0,0,1,1599.045,769.233Zm0-14.654a5.788,5.788,0,1,0,5.788,5.788A5.794,5.794,0,0,0,1599.045,754.579Z" transform="translate(-1590.179 -751.501)" fill="#9087f4"/>
        </g>
        <rect id="Retângulo_444" data-name="Retângulo 444" width="371.167" height="219.876" rx="7.209" transform="translate(236.853 43.918) rotate(90)" fill="url(#linear-gradient-5)"/>
        <rect id="Retângulo_445" data-name="Retângulo 445" width="76.084" height="76.084" rx="6.4" transform="translate(32.584 326.291)" fill="#9087f4"/>
        <rect id="Retângulo_446" data-name="Retângulo 446" width="76.084" height="76.084" rx="6.4" transform="translate(147.204 326.291)" fill="#9087f4"/>
        <rect id="Retângulo_447" data-name="Retângulo 447" width="76.084" height="76.084" rx="6.4" transform="translate(32.584 222.01)" fill="#9087f4"/>
        <rect id="Retângulo_448" data-name="Retângulo 448" width="76.084" height="76.084" rx="6.4" transform="translate(147.204 222.01)" fill="#9087f4"/>
        <rect id="Retângulo_449" data-name="Retângulo 449" width="189.032" height="128.671" rx="6.032" transform="translate(32.584 68.642)" fill="#9087f4"/>
        <path id="Caminho_1566" data-name="Caminho 1566" d="M1685.591,955.469l-141.724,141.721h65.3l76.428-76.426Z" transform="translate(-1448.738 -682.105)" fill="#afc4ff" opacity="0.4" style="mix-blend-mode: multiply;isolation: isolate"/>
        <path id="Caminho_1567" data-name="Caminho 1567" d="M1482.606,907.58v80.935l212.682-212.677a9.169,9.169,0,0,0-2-.226h-78.709Z" transform="translate(-1465.629 -731.694)" fill="#afc4ff" opacity="0.4" style="mix-blend-mode: multiply;isolation: isolate"/>
        <path id="Caminho_1568" data-name="Caminho 1568" d="M1491.8,775.612h201.482a9.2,9.2,0,0,1,8.79,6.49,9.147,9.147,0,0,0-4.468-1.162H1493.585a6.655,6.655,0,0,0-6.656,6.655V1142.91a9.171,9.171,0,0,0,.407,2.707,9.189,9.189,0,0,1-4.73-8.036V784.809A9.2,9.2,0,0,1,1491.8,775.612Z" transform="translate(-1465.629 -731.694)" fill="#786cf2" opacity="0.4" style="mix-blend-mode: multiply;isolation: isolate"/>
        <path id="Caminho_1569" data-name="Caminho 1569" d="M1650.559,1067.776l-6.953,43.492h6.953Z" transform="translate(-1421.238 -651.14)" fill="#171754"/>
      </g>
      <g id="Grupo_1613" data-name="Grupo 1613" transform="translate(113.278 424.534)">
        <path id="Caminho_1570" data-name="Caminho 1570" d="M1571.241,1100.261a13.147,13.147,0,1,1,13.148-13.147A13.162,13.162,0,0,1,1571.241,1100.261Zm0-23.217a10.069,10.069,0,1,0,10.069,10.069A10.081,10.081,0,0,0,1571.241,1077.044Z" transform="translate(-1558.094 -1073.967)" fill="#9087f4"/>
      </g>
    </g>
    <g id="Grupo_1636" data-name="Grupo 1636" transform="translate(1531.192 834.815)">
      <g id="Grupo_1621" data-name="Grupo 1621" transform="translate(6.814 82.906)">
        <circle id="Elipse_91" data-name="Elipse 91" cx="13.426" cy="13.426" r="13.426" transform="translate(0 6.169) rotate(-13.283)" fill="#fffdff"/>
        <g id="Grupo_1620" data-name="Grupo 1620" transform="translate(12 6.624)">
          <g id="Grupo_1619" data-name="Grupo 1619">
            <g id="Grupo_1616" data-name="Grupo 1616" transform="translate(0 1.994)">
              <g id="Grupo_1615" data-name="Grupo 1615">
                <path id="Caminho_1571" data-name="Caminho 1571" d="M1512.725,890.817h-3.974v-1.538h3.974a2.022,2.022,0,0,0,2.021-2.021v-1.184a2.023,2.023,0,0,0-2.021-2.021h-1.184a3.564,3.564,0,0,1-3.559-3.559V879.31a3.563,3.563,0,0,1,3.559-3.559h3.975v1.538h-3.975a2.022,2.022,0,0,0-2.019,2.021v1.184a2.023,2.023,0,0,0,2.019,2.021h1.184a3.564,3.564,0,0,1,3.561,3.559v1.184A3.563,3.563,0,0,1,1512.725,890.817Z" transform="translate(-1507.982 -875.751)" fill="#9087f4"/>
              </g>
            </g>
            <g id="Grupo_1617" data-name="Grupo 1617" transform="translate(3.52 15.636)">
              <path id="Caminho_1572" data-name="Caminho 1572" d="M1511.511,889.863a.77.77,0,0,1-.771-.769v-1.879a.77.77,0,0,1,1.54,0v1.879A.769.769,0,0,1,1511.511,889.863Z" transform="translate(-1510.741 -886.445)" fill="#9087f4"/>
            </g>
            <g id="Grupo_1618" data-name="Grupo 1618" transform="translate(3.52)">
              <path id="Caminho_1573" data-name="Caminho 1573" d="M1511.511,877.57a.77.77,0,0,1-.771-.769v-1.843a.77.77,0,0,1,1.54,0V876.8A.769.769,0,0,1,1511.511,877.57Z" transform="translate(-1510.741 -874.188)" fill="#9087f4"/>
            </g>
          </g>
        </g>
      </g>
      <g id="Grupo_1628" data-name="Grupo 1628" transform="translate(0 33.693)">
        <circle id="Elipse_92" data-name="Elipse 92" cx="12.492" cy="12.492" r="12.492" transform="matrix(0.973, -0.23, 0.23, 0.973, 0, 5.74)" fill="#fffdff"/>
        <g id="Grupo_1627" data-name="Grupo 1627" transform="translate(11.111 6.109)">
          <g id="Grupo_1626" data-name="Grupo 1626">
            <g id="Grupo_1623" data-name="Grupo 1623" transform="translate(0 1.856)">
              <g id="Grupo_1622" data-name="Grupo 1622">
                <path id="Caminho_1574" data-name="Caminho 1574" d="M1506.412,850.788h-3.7a.77.77,0,1,1,0-1.54h3.7a1.829,1.829,0,0,0,1.827-1.826v-1.1a1.83,1.83,0,0,0-1.827-1.827h-1.1a3.37,3.37,0,0,1-3.367-3.365v-1.1a3.37,3.37,0,0,1,3.367-3.365h3.7a.769.769,0,1,1,0,1.538h-3.7a1.828,1.828,0,0,0-1.827,1.827v1.1a1.828,1.828,0,0,0,1.827,1.827h1.1a3.369,3.369,0,0,1,3.365,3.365v1.1A3.369,3.369,0,0,1,1506.412,850.788Z" transform="translate(-1501.944 -836.662)" fill="#9087f4"/>
              </g>
            </g>
            <g id="Grupo_1624" data-name="Grupo 1624" transform="translate(3.276 14.55)">
              <path id="Caminho_1575" data-name="Caminho 1575" d="M1505.281,849.9a.769.769,0,0,1-.769-.769v-1.749a.769.769,0,0,1,1.539,0v1.749A.769.769,0,0,1,1505.281,849.9Z" transform="translate(-1504.512 -846.612)" fill="#9087f4"/>
            </g>
            <g id="Grupo_1625" data-name="Grupo 1625" transform="translate(3.276)">
              <path id="Caminho_1576" data-name="Caminho 1576" d="M1505.281,838.463a.769.769,0,0,1-.769-.769v-1.717a.769.769,0,0,1,1.539,0v1.717A.769.769,0,0,1,1505.281,838.463Z" transform="translate(-1504.512 -835.207)" fill="#9087f4"/>
            </g>
          </g>
        </g>
      </g>
      <g id="Grupo_1635" data-name="Grupo 1635" transform="translate(25.928)">
        <circle id="Elipse_93" data-name="Elipse 93" cx="9.153" cy="9.153" r="9.153" fill="#fffdff"/>
        <g id="Grupo_1634" data-name="Grupo 1634" transform="translate(6.078 2.413)">
          <g id="Grupo_1633" data-name="Grupo 1633">
            <g id="Grupo_1630" data-name="Grupo 1630" transform="translate(0 1.36)">
              <g id="Grupo_1629" data-name="Grupo 1629">
                <path id="Caminho_1577" data-name="Caminho 1577" d="M1521.8,817.727h-2.71a.77.77,0,0,1,0-1.54h2.71a1.134,1.134,0,0,0,1.133-1.133v-.806a1.134,1.134,0,0,0-1.133-1.133h-.808a2.676,2.676,0,0,1-2.671-2.673v-.806a2.675,2.675,0,0,1,2.671-2.671h2.71a.769.769,0,1,1,0,1.539h-2.71a1.134,1.134,0,0,0-1.133,1.133v.806a1.134,1.134,0,0,0,1.133,1.133h.808a2.675,2.675,0,0,1,2.671,2.673v.806A2.675,2.675,0,0,1,1521.8,817.727Z" transform="translate(-1518.323 -806.965)" fill="#9087f4"/>
              </g>
            </g>
            <g id="Grupo_1631" data-name="Grupo 1631" transform="translate(2.4 10.66)">
              <path id="Caminho_1578" data-name="Caminho 1578" d="M1520.973,817.076a.769.769,0,0,1-.769-.769v-1.281a.77.77,0,1,1,1.54,0v1.281A.77.77,0,0,1,1520.973,817.076Z" transform="translate(-1520.204 -814.255)" fill="#9087f4"/>
            </g>
            <g id="Grupo_1632" data-name="Grupo 1632" transform="translate(2.4)">
              <path id="Caminho_1579" data-name="Caminho 1579" d="M1520.973,808.7a.769.769,0,0,1-.769-.769v-1.258a.77.77,0,0,1,1.54,0v1.258A.77.77,0,0,1,1520.973,808.7Z" transform="translate(-1520.204 -805.899)" fill="#9087f4"/>
            </g>
          </g>
        </g>
      </g>
    </g>
    <g id="Grupo_1667" data-name="Grupo 1667" transform="translate(1355.565 870.606)">
      <g id="Grupo_1638" data-name="Grupo 1638" transform="translate(0 43.343)">
        <path id="Caminho_1580" data-name="Caminho 1580" d="M1370.255,902.7l6.079-8.2c10.452,5.567,22,12.583,29.3,17.5,4.068,2.742.589,3.744-2.494,7.56h0c-2.655,3.284-2.781,7.67-6.377,5.455C1390.337,921.059,1378.677,912.536,1370.255,902.7Z" transform="translate(-1351.514 -858.191)" fill="#f2a5c7"/>
        <path id="Caminho_1581" data-name="Caminho 1581" d="M1424.584,881.552c2.955-3.423,6.971-4.192,10.683-1.61h0l6.442,4.48,0,.014a277.246,277.246,0,0,1-27.131,41.444,17.469,17.469,0,0,1-23.634,3.493h0C1399.574,913.353,1411.175,897.085,1424.584,881.552Z" transform="translate(-1345.808 -862.628)" fill="#f2a5c7"/>
        <g id="Grupo_1637" data-name="Grupo 1637">
          <rect id="Retângulo_450" data-name="Retângulo 450" width="6.517" height="48.021" rx="1.022" transform="matrix(0.797, -0.604, 0.604, 0.797, 0, 3.939)" fill="#171754"/>
          <path id="Caminho_1582" data-name="Caminho 1582" d="M1376.449,888.905h0a2.994,2.994,0,0,0,1.6-3.923l-1.123-2.665a2.994,2.994,0,0,0-3.923-1.6h0a3,3,0,0,0-1.6,3.923l1.123,2.665A3,3,0,0,0,1376.449,888.905Z" transform="translate(-1351.262 -862.056)" fill="#d481a6"/>
          <path id="Caminho_1583" data-name="Caminho 1583" d="M1372.933,907.752l-7.184-7.409a12.14,12.14,0,0,1-1.738-14.624l3.6-5.829a2.588,2.588,0,0,1,4.19-.3l5.641,6.766a12.183,12.183,0,0,1,2.816,8.3l-.106,2.6a7.243,7.243,0,0,1-1.863,4.562Z" transform="translate(-1353.701 -862.558)" fill="#f2a5c7"/>
        </g>
      </g>
      <path id="Caminho_1584" data-name="Caminho 1584" d="M1416.976,1082.141l-12.443,20.785a4.077,4.077,0,0,0,1.8,5.8h0a4.076,4.076,0,0,0,3.643-.125l30.423-16.541a2.829,2.829,0,0,0,1.3-3.449,23.48,23.48,0,0,0-10.037-12.473,3.651,3.651,0,0,0-3.557-.051Z" transform="translate(-1342.223 -764.902)" fill="#171754"/>
      <path id="Caminho_1585" data-name="Caminho 1585" d="M1449.13,956.057c4.483,8.318,6.52,15.3,6.52,22.622,0,5.7-1.234,11.6-3.512,18.493-2.151,6.512-1.79,19.441-1.8,26.3-.022,22.217-.068,73.906-.089,92.219h-16.583c-.392-1.625-.828-3.513-1.287-5.6a575.243,575.243,0,0,1-13.567-124.558V956.057Z" transform="translate(-1338.126 -797.875)" fill="#fc5d9c"/>
      <g id="Grupo_1639" data-name="Grupo 1639" transform="translate(88.857 238.404)">
        <path id="Caminho_1586" data-name="Caminho 1586" d="M1426.446,1030.949a6.2,6.2,0,0,0-.962-12.008l-.267,1.672a4.5,4.5,0,0,1,.7,8.726Z" transform="translate(-1425.217 -1018.941)" fill="#171754" opacity="0.4" style="mix-blend-mode: multiply;isolation: isolate"/>
      </g>
      <path id="Caminho_1587" data-name="Caminho 1587" d="M1428.281,1076.809c-.342-.934-1.533-4.23-2-5.924l-11.48,6.243.272,1.286a12.974,12.974,0,0,1-1.577,9.382l-6.213,10.322h0a21.988,21.988,0,0,0,5.769-1.606,25.7,25.7,0,0,0,14.67-17.479Z" transform="translate(-1341.306 -766.215)" fill="#d481a6"/>
      <path id="Caminho_1588" data-name="Caminho 1588" d="M1385.942,1034.52l25.773-78.463h16.342l1.514,2.116a36.485,36.485,0,0,1,3.51,36.39c-7.468,16.325-15.292,31.458-24.194,43.017a3.208,3.208,0,0,0-.1,3.73c7.6,11.4,15.884,29.993,24.472,60.737l-13.884,7.551-32.782-65.618A12.341,12.341,0,0,1,1385.942,1034.52Z" transform="translate(-1347.368 -797.875)" fill="#fc5d9c"/>
      <g id="Grupo_1640" data-name="Grupo 1640" transform="translate(99.24 45.2)">
        <path id="Caminho_1589" data-name="Caminho 1589" d="M1435.911,908.9a3.8,3.8,0,0,1-1.309-2.206c-3.339-11.235.443-23.48,6.473-33.53,6.472.849,12.52-3.909,18.807-5.667-7.417,14.751-3.106,25.169,3.65,30.575-5.275,9.235-15.187,12.091-25.792,11.3A3.776,3.776,0,0,1,1435.911,908.9Z" transform="translate(-1433.356 -867.494)" fill="#171754"/>
      </g>
      <path id="Caminho_1590" data-name="Caminho 1590" d="M1420.838,857.3a23.373,23.373,0,1,0,29.3-15.3A23.373,23.373,0,0,0,1420.838,857.3Z" transform="translate(-1337.865 -829.619)" fill="#171754"/>
      <g id="Grupo_1647" data-name="Grupo 1647" transform="translate(62.707 54.739)">
        <path id="Caminho_1591" data-name="Caminho 1591" d="M1443.336,874.971h-7.1c-7.289,0-12.244,3.416-16.864,9.217h-.193l-10.014,15.677c-3.215,5.029-4.581,11.725-.617,16.126h0c5.113,5.677,8.477,13.848,6.12,21.259l-9.946,40.2c16.589,7.27,22.354-2.507,49.283,2.753h0c-3.9-29.214,7.407-71.818,7.407-71.818C1467.879,886.287,1456.4,879.8,1443.336,874.971Z" transform="translate(-1404.719 -874.971)" fill="#6c2196"/>
        <g id="Grupo_1646" data-name="Grupo 1646" clip-path="url(#clip-path)">
          <path id="Caminho_1592" data-name="Caminho 1592" d="M1407.849,885.641c1.6-.04,3.2-.078,4.786-.148,7.078-.315,12.108,1.391,16.552,2.893a41.679,41.679,0,0,0,9.792,2.424c15.55,1.513,34.007-3.753,45.932-13.086l5.745,7.338c-12.13,9.494-30.109,15.316-46.413,15.316-2.086,0-4.146-.1-6.162-.291a50.557,50.557,0,0,1-11.883-2.873c-4.2-1.42-7.825-2.65-13.149-2.411-1.647.074-3.31.115-4.975.154-7.937.193-15.435.374-21.248,4.133l-5.061-7.825C1389.786,886.077,1398.969,885.855,1407.849,885.641Z" transform="translate(-1411.047 -874.212)" fill="#9f5ac4" opacity="0.4" style="mix-blend-mode: multiply;isolation: isolate"/>
          <g id="Grupo_1642" data-name="Grupo 1642" transform="translate(-9.207 32.591)" opacity="0.4" style="mix-blend-mode: multiply;isolation: isolate">
            <g id="Grupo_1641" data-name="Grupo 1641">
              <path id="Caminho_1593" data-name="Caminho 1593" d="M1471.122,923.037c7.7,0,14.978-3.855,21.643-7.385,4.488-2.377,9.129-4.835,13.785-6.18l-2.586-8.954c-5.581,1.611-10.655,4.3-15.562,6.9-10.053,5.325-16.563,8.4-23.489,4.7-11.467-6.135-24.661-7.506-34.294-8.507-.945-.1-1.863-.193-2.747-.29-9.615-1.046-20.515-2.236-30.371,4.14l5.06,7.825c6.585-4.257,13.9-3.833,24.3-2.7q1.347.146,2.793.293c9.359.973,21.007,2.183,30.859,7.455A22.1,22.1,0,0,0,1471.122,923.037Z" transform="translate(-1397.502 -900.518)" fill="#9f5ac4"/>
            </g>
          </g>
          <g id="Grupo_1644" data-name="Grupo 1644" transform="translate(-13.64 54.411)" opacity="0.4" style="mix-blend-mode: multiply;isolation: isolate">
            <g id="Grupo_1643" data-name="Grupo 1643">
              <path id="Caminho_1594" data-name="Caminho 1594" d="M1462.872,933.234c11.775,0,24.563-2.141,40.2-6.658l-2.587-8.954c-18.536,5.354-32.651,7.173-45.759,5.9-4.859-.47-9.624-1.384-14.668-2.351-4.689-.9-9.537-1.829-14.454-2.365-12.884-1.4-23.511.531-31.582,5.751l5.06,7.825c6.227-4.026,14.811-5.479,25.513-4.311,4.542.495,8.994,1.348,13.708,2.253,5.031.964,10.235,1.963,15.525,2.475C1456.8,933.089,1459.8,933.234,1462.872,933.234Z" transform="translate(-1394.027 -917.622)" fill="#9f5ac4"/>
            </g>
          </g>
          <g id="Grupo_1645" data-name="Grupo 1645" transform="translate(-27.545 72.648)" opacity="0.4" style="mix-blend-mode: multiply;isolation: isolate">
            <path id="Caminho_1595" data-name="Caminho 1595" d="M1451.974,947.53c11.775,0,24.563-2.141,40.2-6.658l-2.586-8.954c-18.536,5.354-32.651,7.173-45.759,5.9-4.861-.469-9.625-1.384-14.67-2.351-4.69-.9-9.537-1.828-14.454-2.365-12.884-1.4-23.512.531-31.582,5.751l5.061,7.825c6.225-4.026,14.807-5.479,25.512-4.311,4.542.495,8.994,1.348,13.708,2.253,5.031.964,10.235,1.962,15.525,2.475C1445.9,947.385,1448.9,947.53,1451.974,947.53Z" transform="translate(-1383.127 -931.918)" fill="#6c2196"/>
          </g>
        </g>
      </g>
      <g id="Grupo_1648" data-name="Grupo 1648" transform="translate(81.893 87.489)">
        <path id="Caminho_1597" data-name="Caminho 1597" d="M1426.182,912.1h-6.424v-1.356h6.424a7.6,7.6,0,0,0,7.594-7.594v-2.508h1.356v2.508A8.96,8.96,0,0,1,1426.182,912.1Z" transform="translate(-1419.758 -900.643)" fill="#171754"/>
      </g>
      <path id="Caminho_1598" data-name="Caminho 1598" d="M1447.45,884.569h0a9.7,9.7,0,0,0-11.234,7.874l-1.734,9.857a9.7,9.7,0,0,0,7.874,11.234h0a9.7,9.7,0,0,0,11.235-7.874l1.733-9.858A9.7,9.7,0,0,0,1447.45,884.569Z" transform="translate(-1333.847 -817.627)" fill="#d481a6"/>
      <g id="Grupo_1653" data-name="Grupo 1653" transform="translate(68.455)">
        <circle id="Elipse_94" data-name="Elipse 94" cx="14.791" cy="14.791" r="14.791" transform="matrix(0.983, -0.182, 0.182, 0.983, 46.385, 9.712)" fill="#2268ff"/>
        <g id="Grupo_1649" data-name="Grupo 1649" transform="translate(48.826 6.768)">
          <path id="Caminho_1599" data-name="Caminho 1599" d="M1448.182,847.731a14.79,14.79,0,1,1,9.679,18.544A14.789,14.789,0,0,1,1448.182,847.731Z" transform="translate(-1447.498 -837.368)" fill="#171754"/>
        </g>
        <g id="Grupo_1650" data-name="Grupo 1650" transform="translate(4.898)">
          <circle id="Elipse_95" data-name="Elipse 95" cx="25.289" cy="25.289" r="25.289" transform="translate(0 7.413) rotate(-8.428)" fill="#171754"/>
        </g>
        <path id="Caminho_1600" data-name="Caminho 1600" d="M1444.515,860.562v17.362a16.507,16.507,0,0,1-9.2,14.8l-.218.107a8.284,8.284,0,0,1-11.747-9.252l3.992-17.676Z" transform="translate(-1405.39 -824.205)" fill="#d481a6"/>
        <path id="Caminho_1601" data-name="Caminho 1601" d="M1424.061,845.229c-4.438,5.718-10.895,14.125-11.561,24.544-.6,9.4.663,16.046,5.1,17.989s5.828,2.005,12.54-.126,18.24-10.661,22.426-18.479-13.394-27.07-13.394-27.07Z" transform="translate(-1408.36 -829.299)" fill="#f2a5c7"/>
        <ellipse id="Elipse_96" data-name="Elipse 96" cx="14.791" cy="14.157" rx="14.791" ry="14.157" transform="translate(20.492 41.897) rotate(-72.568)" fill="#171754"/>
        <path id="Caminho_1602" data-name="Caminho 1602" d="M1433.547,864.229c-1.928,2.768-1.7,6.259.508,7.795s5.558.538,7.486-2.23,1.7-6.259-.508-7.795S1435.473,861.461,1433.547,864.229Z" transform="translate(-1402.88 -824.008)" fill="#f2a5c7"/>
        <path id="Caminho_1603" data-name="Caminho 1603" d="M1435.837,867.161a2.093,2.093,0,0,0,2.093-2.093,2.051,2.051,0,0,0-.047-.436,2.092,2.092,0,1,1-3.242,2.152A2.077,2.077,0,0,0,1435.837,867.161Z" transform="translate(-1402.216 -823.083)" fill="#d481a6"/>
        <path id="Caminho_1604" data-name="Caminho 1604" d="M1427.3,848.872a10.529,10.529,0,1,0,13.2-6.89A10.528,10.528,0,0,0,1427.3,848.872Z" transform="translate(-1404.375 -829.462)" fill="#171754"/>
        <g id="Grupo_1651" data-name="Grupo 1651" transform="translate(34.657 9.789)">
          <path id="Caminho_1605" data-name="Caminho 1605" d="M1448.437,852.27a.941.941,0,0,0,1-.964,11.739,11.739,0,0,0-12.125-11.564.941.941,0,0,0-.917,1.046h0a.917.917,0,0,0,.93.814,9.88,9.88,0,0,1,10.252,9.777.917.917,0,0,0,.857.891Z" transform="translate(-1436.392 -839.736)" fill="#30328b"/>
        </g>
        <path id="Caminho_1606" data-name="Caminho 1606" d="M1437.152,860.446a29.768,29.768,0,0,1-8.034.244,14.739,14.739,0,0,1-11.507-7.413l.006-.022c-.005,0-.008.005-.014,0a14.741,14.741,0,0,0-5.539,3.858,10.248,10.248,0,0,0-2.563,6.944c-.783-3.487.171-7.648,1.971-11.04a30.224,30.224,0,0,1,7.052-8.443,27.251,27.251,0,0,1,4.436-3.25,12.892,12.892,0,0,1,11.559-.9,6.929,6.929,0,0,1,3.174,2.59c1.489,2.382,1.348,5.949.985,9.24-.154,1.425-.35,2.863-.611,4.285q-.279,1.581-.7,3.14C1437.3,859.933,1437.224,860.193,1437.152,860.446Z" transform="translate(-1409.225 -830.026)" fill="#171754"/>
        <g id="Grupo_1652" data-name="Grupo 1652" transform="translate(24.21 25.251)">
          <path id="Caminho_1607" data-name="Caminho 1607" d="M1430.4,865.825l.005,0a.836.836,0,0,0,.413-1.052,18.735,18.735,0,0,1,.052-11.782.849.849,0,0,0-.484-1.072h0a.843.843,0,0,0-1.11.5,20.379,20.379,0,0,0-.051,12.943A.854.854,0,0,0,1430.4,865.825Z" transform="translate(-1428.202 -851.856)" fill="#30328b"/>
        </g>
      </g>
      <g id="Grupo_1655" data-name="Grupo 1655" transform="translate(74.696 317.813)">
        <g id="Grupo_1654" data-name="Grupo 1654" transform="translate(0 6.478)">
          <path id="Caminho_1608" data-name="Caminho 1608" d="M1416.121,1098.583l20.862-12.317h13.574a1.985,1.985,0,0,1,1.626.866c4.269,6.177,3.981,13.076,3.433,16.63a2.828,2.828,0,0,1-2.794,2.407h-5.593v-4.45l-3.855,4.45h-25.18a4.073,4.073,0,0,1-3.261-1.63h0A4.076,4.076,0,0,1,1416.121,1098.583Z" transform="translate(-1414.117 -1086.266)" fill="#171754"/>
        </g>
        <path id="Caminho_1609" data-name="Caminho 1609" d="M1449.118,1087.666h-.078c0-.495-.658-6.478-.658-6.478h-13.631l.125,1.725a7.685,7.685,0,0,1-3.758,7.176l-10.613,6.266a22.4,22.4,0,0,0,21.521-2.906l7.224-5.382A.222.222,0,0,0,1449.118,1087.666Z" transform="translate(-1412.356 -1081.188)" fill="#f2a5c7"/>
      </g>
      <g id="Grupo_1663" data-name="Grupo 1663" transform="translate(52.974 112.458)">
        <rect id="Retângulo_451" data-name="Retângulo 451" width="87.92" height="43.654" transform="matrix(-0.955, -0.296, 0.296, -0.955, 83.983, 67.714)" fill="#9087f4"/>
        <rect id="Retângulo_452" data-name="Retângulo 452" width="87.92" height="43.654" transform="translate(92.311 55.883) rotate(-179.741)" fill="#9087f4"/>
        <g id="Grupo_1662" data-name="Grupo 1662" transform="translate(1.652 5.517)">
          <rect id="Retângulo_453" data-name="Retângulo 453" width="87.92" height="43.654" transform="translate(86.87 56.679) rotate(-171.137)" fill="#aea7fa"/>
          <path id="Caminho_1610" data-name="Caminho 1610" d="M1406.224,934.946l-3.263,20.929a6.8,6.8,0,0,1,5.408,7.716l-.011.074,65.758,10.254.011-.074a6.8,6.8,0,0,1,7.5-5.7l3.263-20.929a6.8,6.8,0,0,1-5.408-7.716l-65.758-10.254A6.8,6.8,0,0,1,1406.224,934.946Z" transform="translate(-1397.122 -923.243)" fill="#dadaff" opacity="0.8"/>
          <path id="Caminho_1611" data-name="Caminho 1611" d="M1460,951.21a3.105,3.105,0,1,1-2.59-3.546A3.1,3.1,0,0,1,1460,951.21Z" transform="translate(-1383.097 -918.175)" fill="#aea7fa"/>
          <path id="Caminho_1612" data-name="Caminho 1612" d="M1417.612,944.6a3.105,3.105,0,1,1-2.59-3.547A3.105,3.105,0,0,1,1417.612,944.6Z" transform="translate(-1394.785 -919.998)" fill="#aea7fa"/>
          <g id="Grupo_1661" data-name="Grupo 1661" transform="translate(34.397 15.938)">
            <path id="Caminho_1613" data-name="Caminho 1613" d="M1450,951.345a12.4,12.4,0,1,1-10.34-14.162A12.4,12.4,0,0,1,1450,951.345Z" transform="translate(-1425.347 -937.033)" fill="#fff"/>
            <g id="Grupo_1660" data-name="Grupo 1660" transform="translate(7.827 3.499)">
              <g id="Grupo_1657" data-name="Grupo 1657" transform="translate(0 1.357)">
                <g id="Grupo_1656" data-name="Grupo 1656">
                  <path id="Caminho_1614" data-name="Caminho 1614" d="M1438.181,955.928a.833.833,0,0,1-.138-.01l-3.627-.565a3.467,3.467,0,0,1-2.891-3.96l.168-1.081a3.468,3.468,0,0,1,3.96-2.892l1.081.168a1.685,1.685,0,0,0,1.925-1.406l.168-1.079a1.684,1.684,0,0,0-1.406-1.926l-3.627-.565a.891.891,0,0,1,.274-1.76l3.627.565a3.467,3.467,0,0,1,2.891,3.961l-.168,1.079a3.471,3.471,0,0,1-3.96,2.892l-1.079-.168a1.686,1.686,0,0,0-1.926,1.406l-.168,1.079a1.684,1.684,0,0,0,1.406,1.926l3.627.565a.891.891,0,0,1-.136,1.771Z" transform="translate(-1431.483 -940.841)" fill="#9087f4"/>
                </g>
              </g>
              <g id="Grupo_1658" data-name="Grupo 1658" transform="translate(2.31 14.267)">
                <path id="Caminho_1615" data-name="Caminho 1615" d="M1434.186,954.457a.987.987,0,0,1-.138-.01.893.893,0,0,1-.744-1.018l.268-1.715a.89.89,0,0,1,1.759.274l-.267,1.715A.891.891,0,0,1,1434.186,954.457Z" transform="translate(-1433.294 -950.96)" fill="#9087f4"/>
              </g>
              <g id="Grupo_1659" data-name="Grupo 1659" transform="translate(4.54)">
                <path id="Caminho_1616" data-name="Caminho 1616" d="M1435.934,943.239a.856.856,0,0,1-.139-.01.891.891,0,0,1-.742-1.017l.263-1.683a.89.89,0,1,1,1.759.274l-.261,1.683A.891.891,0,0,1,1435.934,943.239Z" transform="translate(-1435.042 -939.777)" fill="#9087f4"/>
              </g>
            </g>
          </g>
        </g>
      </g>
      <path id="Caminho_1617" data-name="Caminho 1617" d="M1447.336,935.881c-.074-.222-.144-.445-.2-.676a300.17,300.17,0,0,1-7.034-41.748,8.316,8.316,0,0,1,6.856-8.9l.036-.006h0a8.314,8.314,0,0,1,9.479,6.038,218.126,218.126,0,0,1,6.47,45.495,18.339,18.339,0,0,1-2.781,12.35c-5.734,8.865-13.291,18.714-20.59,28.081l-12.294-1.431C1431.174,964.035,1439.951,947.008,1447.336,935.881Z" transform="translate(-1335.792 -817.627)" fill="#f2a5c7"/>
      <g id="Grupo_1664" data-name="Grupo 1664" transform="translate(81.482 156.082)">
        <path id="Caminho_1618" data-name="Caminho 1618" d="M1425.672,970.263h0a2.847,2.847,0,0,0,2.807-2.37l1.687-9.934a2.26,2.26,0,0,0-2.229-2.638h0a2.261,2.261,0,0,0-2.169,1.625l-2.828,9.671A2.846,2.846,0,0,0,1425.672,970.263Z" transform="translate(-1418.502 -954.16)" fill="#f2a5c7"/>
        <path id="Caminho_1619" data-name="Caminho 1619" d="M1432.442,971.675h0a2.955,2.955,0,0,0,2.914-2.465l2.033-12.1a2.316,2.316,0,0,0-2.284-2.7h0a2.315,2.315,0,0,0-2.231,1.7l-3.279,11.825A2.953,2.953,0,0,0,1432.442,971.675Z" transform="translate(-1416.665 -954.411)" fill="#f2a5c7"/>
        <path id="Caminho_1620" data-name="Caminho 1620" d="M1428.917,971.675h0a2.954,2.954,0,0,0,2.913-2.465l2.033-12.1a2.315,2.315,0,0,0-2.284-2.7h0a2.316,2.316,0,0,0-2.231,1.7l-3.278,11.825A2.954,2.954,0,0,0,1428.917,971.675Z" transform="translate(-1417.637 -954.411)" fill="#f2a5c7"/>
        <path id="Caminho_1621" data-name="Caminho 1621" d="M1435.323,969.963h0a2.682,2.682,0,0,0,2.643-2.232l.863-9.9a1.783,1.783,0,0,0-1.776-1.937h-1.191l-3.112,10.64A2.681,2.681,0,0,0,1435.323,969.963Z" transform="translate(-1415.796 -954.003)" fill="#f2a5c7"/>
        <path id="Caminho_1622" data-name="Caminho 1622" d="M1435.366,956.269h0a3.1,3.1,0,0,0-3.675-1.583l-10.505,3.187a2.462,2.462,0,0,0-1.489,3.455h0a2.464,2.464,0,0,0,2.641,1.325l10.8-1.947A3.1,3.1,0,0,0,1435.366,956.269Z" transform="translate(-1419.436 -954.372)" fill="#f2a5c7"/>
      </g>
      <path id="Caminho_1623" data-name="Caminho 1623" d="M1422.23,979.16a143.166,143.166,0,0,1-15.807,47.422,209.494,209.494,0,0,0,15.324-26.768l.744-3.229Q1422.23,987.878,1422.23,979.16Z" transform="translate(-1341.542 -791.506)" fill="#171754"/>
      <g id="Grupo_1665" data-name="Grupo 1665" transform="translate(42.354 236.424)">
        <path id="Caminho_1624" data-name="Caminho 1624" d="M1389.809,1027.092a5.008,5.008,0,0,0-.778-9.7l-.265,1.673a3.313,3.313,0,0,1,.513,6.419Z" transform="translate(-1388.765 -1017.389)" fill="#171754" opacity="0.4" style="mix-blend-mode: multiply;isolation: isolate"/>
      </g>
      <g id="Grupo_1666" data-name="Grupo 1666" transform="translate(73.436 29.314)">
        <path id="Caminho_1625" data-name="Caminho 1625" d="M1423.624,860.31a5.373,5.373,0,0,1,2.54,2.225,3.335,3.335,0,0,0-5.9-2.569A5.365,5.365,0,0,1,1423.624,860.31Z" transform="translate(-1411.161 -854.021)" fill="#171754"/>
        <path id="Caminho_1626" data-name="Caminho 1626" d="M1414.364,856.24c.168-.4.337-.8.517-1.2a3.1,3.1,0,0,1,1.268.249,3.489,3.489,0,0,1,1.97,3.534,5.376,5.376,0,0,0-2.54-2.224A5.629,5.629,0,0,0,1414.364,856.24Z" transform="translate(-1412.788 -855.041)" fill="#171754"/>
        <path id="Caminho_1627" data-name="Caminho 1627" d="M1418.519,868.219c-1.813-.79-3.536-1.614-5.137-2.447-.889,2.254.639,5.039,3.471,6.273s5.91.455,6.957-1.731C1422.109,869.709,1420.332,869.008,1418.519,868.219Z" transform="translate(-1413.129 -852.082)" fill="#fff"/>
      </g>
    </g>
    <g id="Grupo_1669" data-name="Grupo 1669" transform="translate(1794.502 1171.307)">
      <rect id="Retângulo_454" data-name="Retângulo 454" width="86.867" height="43.131" transform="translate(0 0)" fill="#6585e0"/>
      <rect id="Retângulo_455" data-name="Retângulo 455" width="86.867" height="43.131" transform="translate(9.353 0)" fill="#9087f4"/>
      <path id="Caminho_1628" data-name="Caminho 1628" d="M1788.847,1077.9v20.928a6.722,6.722,0,0,0-6.454,6.709v.074h-65.755v-.074a6.722,6.722,0,0,0-6.455-6.709V1077.9a6.722,6.722,0,0,0,6.455-6.709h65.755A6.722,6.722,0,0,0,1788.847,1077.9Z" transform="translate(-1696.728 -1066.833)" fill="#dadaff" opacity="0.8"/>
      <circle id="Elipse_97" data-name="Elipse 97" cx="3.068" cy="3.068" r="3.068" transform="translate(22.681 18.497)" fill="#6585e0"/>
      <circle id="Elipse_98" data-name="Elipse 98" cx="3.068" cy="3.068" r="3.068" transform="translate(76.756 18.497)" fill="#9087f4"/>
      <g id="Grupo_1668" data-name="Grupo 1668" transform="translate(40.538 9.315)">
        <circle id="Elipse_99" data-name="Elipse 99" cx="12.25" cy="12.25" r="12.25" fill="#fff"/>
        <path id="Caminho_1629" data-name="Caminho 1629" d="M1742.382,1085.449h-1.014a1.306,1.306,0,0,1-1.3-1.3v-1.014a1.307,1.307,0,0,1,1.3-1.305h3.405a1.086,1.086,0,0,0,0-2.172h-1.693v-.623a1.086,1.086,0,0,0-2.173,0v.657a3.48,3.48,0,0,0-3.016,3.443v1.014a3.48,3.48,0,0,0,3.476,3.476h1.014a1.305,1.305,0,0,1,1.3,1.3v1.014a1.306,1.306,0,0,1-1.3,1.305h-3.4a1.086,1.086,0,0,0,0,2.172h1.93v.623a1.086,1.086,0,0,0,2.173,0v-.693a3.483,3.483,0,0,0,2.778-3.407v-1.014A3.48,3.48,0,0,0,1742.382,1085.449Z" transform="translate(-1729.625 -1074.285)" fill="#aea7fa"/>
      </g>
    </g>
    <g id="Grupo_1672" data-name="Grupo 1672" transform="translate(1729.977 1171.308)">
      <g id="Grupo_1671" data-name="Grupo 1671">
        <rect id="Retângulo_456" data-name="Retângulo 456" width="86.867" height="43.131" fill="#9087f4"/>
        <rect id="Retângulo_457" data-name="Retângulo 457" width="86.867" height="43.131" transform="translate(9.353)" fill="#aea7fa"/>
        <path id="Caminho_1630" data-name="Caminho 1630" d="M1738.269,1077.9v20.928a6.721,6.721,0,0,0-6.455,6.709v.074h-65.756v-.074a6.721,6.721,0,0,0-6.454-6.709V1077.9a6.722,6.722,0,0,0,6.454-6.709h65.756A6.722,6.722,0,0,0,1738.269,1077.9Z" transform="translate(-1646.149 -1066.834)" fill="#dadaff" opacity="0.8"/>
        <circle id="Elipse_100" data-name="Elipse 100" cx="3.068" cy="3.068" r="3.068" transform="translate(22.681 18.497)" fill="#aea7fa"/>
        <circle id="Elipse_101" data-name="Elipse 101" cx="3.068" cy="3.068" r="3.068" transform="translate(76.756 18.497)" fill="#aea7fa"/>
        <g id="Grupo_1670" data-name="Grupo 1670" transform="translate(35.464 4.24)">
          <circle id="Elipse_102" data-name="Elipse 102" cx="12.25" cy="12.25" r="12.25" transform="translate(0 17.324) rotate(-45)" fill="#fff"/>
          <path id="Caminho_1631" data-name="Caminho 1631" d="M1691.8,1085.45h-1.014a1.307,1.307,0,0,1-1.3-1.305v-1.014a1.306,1.306,0,0,1,1.3-1.3h3.405a1.086,1.086,0,0,0,0-2.172H1692.5v-.623a1.086,1.086,0,1,0-2.171,0v.657a3.477,3.477,0,0,0-3.016,3.442v1.014a3.481,3.481,0,0,0,3.476,3.478h1.014a1.3,1.3,0,0,1,1.3,1.3v1.014a1.306,1.306,0,0,1-1.3,1.3H1688.4a1.086,1.086,0,0,0,0,2.173h1.93v.621a1.086,1.086,0,1,0,2.171,0v-.692a3.483,3.483,0,0,0,2.78-3.407v-1.014A3.48,3.48,0,0,0,1691.8,1085.45Z" transform="translate(-1673.972 -1069.212)" fill="#aea7fa"/>
        </g>
      </g>
    </g>
    <g id="Grupo_1687" data-name="Grupo 1687" transform="translate(1656.664 705.797)">
      <g id="Grupo_1674" data-name="Grupo 1674" transform="translate(1.8 3.184)">
        <g id="Grupo_1673" data-name="Grupo 1673">
          <path id="Caminho_1632" data-name="Caminho 1632" d="M1593,705.37" transform="translate(-1592.999 -705.37)" fill="#70abcf"/>
        </g>
      </g>
      <g id="Grupo_1686" data-name="Grupo 1686">
        <path id="Caminho_1633" data-name="Caminho 1633" d="M1678.615,731.259v-13.5a14.885,14.885,0,0,0-14.885-14.885h-58v34.349h15.955v56.739a16.963,16.963,0,0,0,33.925,0v5.876h23.076V731.259Z" transform="translate(-1587.689 -702.874)" fill="url(#linear-gradient-6)"/>
        <g id="Grupo_1675" data-name="Grupo 1675" transform="translate(41.911 24.462)">
          <path id="Caminho_1634" data-name="Caminho 1634" d="M1626.228,725.625h39.852a1.788,1.788,0,0,0,0-3.576h-39.852a1.788,1.788,0,0,0,0,3.576Z" transform="translate(-1624.441 -722.049)" fill="#aea7fa"/>
        </g>
        <g id="Grupo_1676" data-name="Grupo 1676" transform="translate(41.911 56.147)">
          <path id="Caminho_1635" data-name="Caminho 1635" d="M1626.228,750.462h6.387a1.788,1.788,0,0,0,0-3.576h-6.387a1.788,1.788,0,0,0,0,3.576Z" transform="translate(-1624.441 -746.886)" fill="#aea7fa"/>
        </g>
        <g id="Grupo_1677" data-name="Grupo 1677" transform="translate(69.826 10.727)">
          <path id="Caminho_1636" data-name="Caminho 1636" d="M1648.11,714.859h6.387a1.788,1.788,0,0,0,0-3.576h-6.387a1.788,1.788,0,0,0,0,3.576Z" transform="translate(-1646.323 -711.283)" fill="#aea7fa"/>
        </g>
        <g id="Grupo_1678" data-name="Grupo 1678" transform="translate(54.209 56.147)">
          <path id="Caminho_1637" data-name="Caminho 1637" d="M1635.87,750.462h27.553a1.788,1.788,0,0,0,0-3.576H1635.87a1.788,1.788,0,1,0,0,3.576Z" transform="translate(-1634.081 -746.886)" fill="#aea7fa"/>
        </g>
        <g id="Grupo_1679" data-name="Grupo 1679" transform="translate(41.911 40.033)">
          <path id="Caminho_1638" data-name="Caminho 1638" d="M1626.228,737.831h39.852a1.788,1.788,0,0,0,0-3.576h-39.852a1.788,1.788,0,0,0,0,3.576Z" transform="translate(-1624.441 -734.255)" fill="#aea7fa"/>
        </g>
        <path id="Caminho_1639" data-name="Caminho 1639" d="M1625.513,740.686v-20.85a16.963,16.963,0,0,0-33.925,0v20.85Z" transform="translate(-1591.588 -702.874)" fill="#9087f4"/>
        <g id="Grupo_1681" data-name="Grupo 1681" transform="translate(52.034 70.441)">
          <g id="Grupo_1680" data-name="Grupo 1680">
            <path id="Caminho_1640" data-name="Caminho 1640" d="M1705.269,758.091v22.717a14.9,14.9,0,0,1-14.893,14.891h-58v-.033a16.993,16.993,0,0,0,15.9-16.939V758.233l3.946,3.938,4.078-4.08,4.08,4.08,4.078-4.08,4.087,4.08,4.078-4.08,4.079,4.08,4.078-4.08,4.08,4.08,4.086-4.08,4.078,4.08,4.08-4.08,4.078,4.08Z" transform="translate(-1632.376 -758.091)" fill="#9087f4"/>
          </g>
        </g>
        <g id="Grupo_1685" data-name="Grupo 1685" transform="translate(45.4 68.736)">
          <g id="Grupo_1682" data-name="Grupo 1682" transform="translate(0 2.969)">
            <path id="Caminho_1641" data-name="Caminho 1641" d="M1628.517,781.9h5.918a5.5,5.5,0,0,0,5.494-5.5v-1.762a5.5,5.5,0,0,0-5.494-5.5h-1.763a2.817,2.817,0,0,1-2.814-2.813v-1.762a2.818,2.818,0,0,1,2.814-2.814h5.917a1.341,1.341,0,1,0,0-2.682h-5.917a5.5,5.5,0,0,0-5.5,5.5v1.762a5.5,5.5,0,0,0,5.5,5.495h1.763a2.817,2.817,0,0,1,2.813,2.814v1.762a2.817,2.817,0,0,1-2.813,2.814h-5.918a1.341,1.341,0,1,0,0,2.682Z" transform="translate(-1627.176 -759.081)" fill="#9087f4"/>
          </g>
          <g id="Grupo_1683" data-name="Grupo 1683" transform="translate(5.242 23.281)">
            <path id="Caminho_1642" data-name="Caminho 1642" d="M1632.626,780.484a1.341,1.341,0,0,0,1.341-1.341v-2.8a1.341,1.341,0,1,0-2.681,0v2.8A1.342,1.342,0,0,0,1632.626,780.484Z" transform="translate(-1631.285 -775.003)" fill="#9087f4"/>
          </g>
          <g id="Grupo_1684" data-name="Grupo 1684" transform="translate(5.242)">
            <path id="Caminho_1643" data-name="Caminho 1643" d="M1632.626,762.181a1.341,1.341,0,0,0,1.341-1.341v-2.745a1.341,1.341,0,1,0-2.681,0v2.745A1.341,1.341,0,0,0,1632.626,762.181Z" transform="translate(-1631.285 -756.754)" fill="#9087f4"/>
          </g>
        </g>
      </g>
    </g>
    <g id="Grupo_1714" data-name="Grupo 1714" transform="translate(1529.755 861.345)">
      <g id="Grupo_1713" data-name="Grupo 1713">
        <circle id="Elipse_103" data-name="Elipse 103" cx="35.566" cy="35.566" r="35.566" transform="translate(85.014 82.918)" fill="#f24495"/>
        <path id="Caminho_1644" data-name="Caminho 1644" d="M1493.474,982.067c8.862-41.539,29.1-36.882,42.3-57.284,12.335-19.064,3.7-33.9,9.963-59.71,4.552-18.759,16.967-34.762,34.095-38.366,19.111-4.022,29.253-1.152,38.968,3.789,12.3,6.254,25.733,24.476,26.341,51.95.894,40.382-34.781,33.255-31.043,51.573,3.546,17.374,56.7,96.4,34.267,107.237s-54.205,18.318-80.748,17.2-47.134-6.222-60.935-21.807C1494.325,1022.689,1489.488,1000.759,1493.474,982.067Z" transform="translate(-1492.108 -824.804)" fill="#f24495"/>
        <g id="Grupo_1688" data-name="Grupo 1688" transform="translate(61.251 81.346)">
          <path id="Caminho_1645" data-name="Caminho 1645" d="M1541.284,901.9l-1.163-1.235a9.961,9.961,0,0,0,2.278-11.256l-.07-.159,1.552-.685.07.16A11.661,11.661,0,0,1,1541.284,901.9Z" transform="translate(-1540.121 -888.569)" fill="#1d0f4a"/>
        </g>
        <g id="Grupo_1689" data-name="Grupo 1689" transform="translate(117.242 10.15)">
          <path id="Caminho_1646" data-name="Caminho 1646" d="M1589.333,848.588a13.052,13.052,0,0,1-4.378-15.389l.176-.439,1.574.633-.176.439a11.358,11.358,0,0,0,3.809,13.389Z" transform="translate(-1584.011 -832.76)" fill="#1d0f4a"/>
        </g>
        <g id="Grupo_1690" data-name="Grupo 1690" transform="translate(1.14 148.857)">
          <path id="Caminho_1647" data-name="Caminho 1647" d="M1493.14,975.565c-.711-5.557,1.356-13.319,5.394-20.257,4.373-7.518,10.12-12.554,15.767-13.818l.371,1.656c-5.187,1.161-10.535,5.905-14.672,13.016-3.858,6.631-5.842,13.983-5.176,19.188Z" transform="translate(-1493.002 -941.489)" fill="#1d0f4a"/>
        </g>
        <path id="Caminho_1648" data-name="Caminho 1648" d="M1518.177,970.476c-1.166,9.216-3.642,34.312-2.3,47.159s21.334,12.034,21.334,12.034l10.286-67.891Z" transform="translate(-1485.662 -787.038)" fill="#f2a5c7"/>
        <path id="Caminho_1649" data-name="Caminho 1649" d="M1547.021,961.778l-29.317,8.7-.5,3.966,26.561,1.987Z" transform="translate(-1485.189 -787.038)" fill="#d46e9b"/>
        <g id="Grupo_1694" data-name="Grupo 1694" transform="translate(29.067 95.731)">
          <path id="Caminho_1650" data-name="Caminho 1650" d="M1641.776,1111.56l.2.965-56.43-.965h-53.061l4.365-17.369a250.523,250.523,0,0,0,7.092-76.261l.46-25.059-29.507-5.046s.188-6.408,4.487-25.417c11.215-43.178,35.323-58.874,53.125-62.564l13.039,2.347,13.039-2.347a51.7,51.7,0,0,1,10.819,3.641c16.815,7.671,36.975,25.78,45.192,56.362,3.192,21.1,3.529,27.207,3.529,27.308l-21.727,4.8-.034.008h0l-6.72,1.356.647,31.077v.048l.713,34.244,6.853,33.606Z" transform="translate(-1514.893 -899.845)" fill="#6c2196"/>
          <g id="Grupo_1693" data-name="Grupo 1693" clip-path="url(#clip-path-2)">
            <g id="Grupo_1692" data-name="Grupo 1692" transform="translate(-0.648 25.371)">
              <g id="Grupo_1691" data-name="Grupo 1691">
                <rect id="Retângulo_458" data-name="Retângulo 458" width="156.65" height="2.655" fill="#9f5ac4"/>
                <rect id="Retângulo_459" data-name="Retângulo 459" width="156.65" height="2.655" transform="translate(0 14.99)" fill="#9f5ac4"/>
                <rect id="Retângulo_460" data-name="Retângulo 460" width="156.65" height="2.655" transform="translate(0 29.979)" fill="#9f5ac4"/>
                <rect id="Retângulo_461" data-name="Retângulo 461" width="156.65" height="2.655" transform="translate(0 44.969)" fill="#9f5ac4"/>
                <rect id="Retângulo_462" data-name="Retângulo 462" width="156.65" height="2.655" transform="translate(0 59.959)" fill="#9f5ac4"/>
                <rect id="Retângulo_463" data-name="Retângulo 463" width="156.65" height="2.655" transform="translate(0 74.948)" fill="#9f5ac4"/>
                <rect id="Retângulo_464" data-name="Retângulo 464" width="156.65" height="2.655" transform="translate(0 89.938)" fill="#9f5ac4"/>
                <rect id="Retângulo_465" data-name="Retângulo 465" width="156.65" height="2.655" transform="translate(0 104.928)" fill="#9f5ac4"/>
                <rect id="Retângulo_466" data-name="Retângulo 466" width="156.65" height="2.655" transform="translate(0 119.917)" fill="#9f5ac4"/>
                <rect id="Retângulo_467" data-name="Retângulo 467" width="156.65" height="2.655" transform="translate(0 134.907)" fill="#9f5ac4"/>
                <rect id="Retângulo_468" data-name="Retângulo 468" width="156.65" height="2.655" transform="translate(0 149.897)" fill="#9f5ac4"/>
                <rect id="Retângulo_469" data-name="Retângulo 469" width="156.65" height="2.655" transform="translate(0 164.887)" fill="#9f5ac4"/>
                <rect id="Retângulo_470" data-name="Retângulo 470" width="156.65" height="2.655" transform="translate(0 179.876)" fill="#9f5ac4"/>
              </g>
            </g>
          </g>
        </g>
        <g id="Grupo_1695" data-name="Grupo 1695" transform="translate(46.657 294.633)">
          <path id="Caminho_1652" data-name="Caminho 1652" d="M1531.9,1055.759l-3.22,13.778h109.49l-2.62-12.857C1600.521,1063.226,1565.956,1063.115,1531.9,1055.759Z" transform="translate(-1528.681 -1055.759)" fill="#171754"/>
        </g>
        <path id="Caminho_1653" data-name="Caminho 1653" d="M1519.378,962.416c-4.3,19.008-4.486,25.419-4.486,25.419l29.51,5.045-.462,25.058c1.559,25.633-3.016,51.354-9.276,76.261l-4.365,17.369h32.223l10.113-68.215a314.04,314.04,0,0,0,3.4-46.055V962.109a129.447,129.447,0,0,0-14.122-58.793h0C1546.083,910.425,1528.482,927.368,1519.378,962.416Z" transform="translate(-1485.826 -803.157)" fill="#fafbff"/>
        <g id="Grupo_1696" data-name="Grupo 1696" transform="translate(57.729 167.527)">
          <rect id="Retângulo_471" data-name="Retângulo 471" width="21.244" height="1.697" transform="matrix(0.094, -0.996, 0.996, 0.094, 0, 21.151)" fill="#1d0f4a"/>
        </g>
        <path id="Caminho_1654" data-name="Caminho 1654" d="M1631.226,966.279c.963,9.239,5.617,37.067,3.994,49.882-1.075,8.5-10.226,10.812-16.265,11.4a5.454,5.454,0,0,1-5.958-4.719l-8.16-63.223Z" transform="translate(-1461.026 -787.632)" fill="#f2a5c7"/>
        <g id="Grupo_1698" data-name="Grupo 1698" transform="translate(143.812 171.99)">
          <g id="Grupo_1697" data-name="Grupo 1697">
            <path id="Caminho_1655" data-name="Caminho 1655" d="M1607.072,976.858l25.113-2.946c-.416-3.123-.763-5.761-.958-7.634l-26.388-6.657,8.16,63.223c.009.061.023.119.033.178Z" transform="translate(-1604.838 -959.622)" fill="#d46e9b"/>
            <path id="Caminho_1656" data-name="Caminho 1656" d="M1627.425,979.636c-.325-2.595-.653-5.076-.957-7.353C1626.71,974.282,1627.047,976.794,1627.425,979.636Z" transform="translate(-1598.874 -956.131)" fill="#cc7070"/>
          </g>
        </g>
        <path id="Caminho_1657" data-name="Caminho 1657" d="M1620.456,1091.533l4.881,20.228h-32.9l-7.886-50.531a528.94,528.94,0,0,1-6.571-83.121V961.334a129.41,129.41,0,0,1,14.083-58.717c1.077.459,2.167.964,3.271,1.507a.1.1,0,0,0,.029.014c16.775,8.261,37.384,25.5,41.838,54.948,3.193,21.1,3.53,27.206,3.53,27.307l-21.761,4.808h0l-6.72,1.356.647,31.077A379.449,379.449,0,0,0,1620.456,1091.533Z" transform="translate(-1468.432 -803.349)" fill="#fafbff"/>
        <g id="Grupo_1699" data-name="Grupo 1699" transform="translate(108.081 104.234)">
          <path id="Caminho_1658" data-name="Caminho 1658" d="M1578.479,961.78l-1.65-.4c7.31-30.472,19.656-47.46,26.364-54.875l1.259,1.139C1597.852,914.944,1585.7,931.676,1578.479,961.78Z" transform="translate(-1576.83 -906.51)" fill="#1d0f4a"/>
        </g>
        <path id="Caminho_1659" data-name="Caminho 1659" d="M1563.135,888.838l-2.906,16.272a12.5,12.5,0,0,0,12.309,14.7h0a12.5,12.5,0,0,0,12.308-14.7l-2.906-16.272Z" transform="translate(-1473.38 -807.148)" fill="#d481a6"/>
        <path id="Caminho_1660" data-name="Caminho 1660" d="M1557.894,973.9l3.23-11.892a10.79,10.79,0,0,1,4.871-6.428l11.656-6.973.7,4.105-10.42,25.07Z" transform="translate(-1473.97 -790.669)" fill="#d481a6"/>
        <path id="Caminho_1661" data-name="Caminho 1661" d="M1600.574,967.159s-4.61-14.862-4.984-15.984S1583,930.524,1583,930.524l-6.356,25.046L1588.88,980.4Z" transform="translate(-1468.799 -795.655)" fill="#f2a5c7"/>
        <path id="Caminho_1662" data-name="Caminho 1662" d="M1597.713,959.241c14.653,18.345,30.62,36.39,41.444,59.924h0a16.38,16.38,0,0,1-28.714,1.435c-9.81-15.944-18.753-32.777-23.417-51.279Z" transform="translate(-1465.937 -787.737)" fill="#f2a5c7"/>
        <g id="Grupo_1701" data-name="Grupo 1701" transform="translate(146.05 189.445)">
          <g id="Grupo_1700" data-name="Grupo 1700">
            <path id="Caminho_1663" data-name="Caminho 1663" d="M1623.487,997.563c-4.59-7.121-11.221-16.368-16.894-23.557l.889-.7c5.692,7.215,12.348,16.5,16.956,23.646Z" transform="translate(-1606.593 -973.305)" fill="#d46e9b"/>
          </g>
        </g>
        <rect id="Retângulo_472" data-name="Retângulo 472" width="30.84" height="67.42" rx="2.66" transform="translate(92.428 130.258)" fill="#171754"/>
        <path id="Caminho_1664" data-name="Caminho 1664" d="M1557.509,975.477s7.089-15.159,11.5-19.733l11.02-11.429a2.21,2.21,0,0,1,3.268.1h0a2.208,2.208,0,0,1,.11,2.736l-11.432,15.735,14.45-15.265a2.3,2.3,0,0,1,3.307-.037h0a2.3,2.3,0,0,1,.2,3.013l-12.291,16.138,11.7-11.443a2.16,2.16,0,0,1,3.1.089h0a2.158,2.158,0,0,1,.083,2.809l-11.478,14.206,10.4-9.32a1.676,1.676,0,0,1,2.521.33h0a1.679,1.679,0,0,1-.1,1.977l-2.5,3.066c-7.906,9.771-15.8,16.569-26.233,23.58h0Z" transform="translate(-1474.076 -792.039)" fill="#f2a5c7"/>
        <circle id="Elipse_104" data-name="Elipse 104" cx="2.359" cy="2.359" r="2.359" transform="translate(96.798 135.999)" fill="#fff"/>
        <path id="Caminho_1665" data-name="Caminho 1665" d="M1592.774,879.2h-3.581V866.922h3.581a6.139,6.139,0,0,1,6.14,6.139h0A6.139,6.139,0,0,1,1592.774,879.2Z" transform="translate(-1465.34 -813.191)" fill="#d481a6"/>
        <path id="Caminho_1666" data-name="Caminho 1666" d="M1546.393,856.641l3.9,31.571a40.38,40.38,0,0,0,17.618,28.607h0a16.085,16.085,0,0,0,17.892,0h0a40.383,40.383,0,0,0,17.616-28.607l.854-6.9c.031-2.238,3.89-10.693-4.663-12.849-13.61-3.432-29.325-10.966-33.968-34.291h0Z" transform="translate(-1477.141 -822.222)" fill="#f2a5c7"/>
        <path id="Caminho_1667" data-name="Caminho 1667" d="M1591.2,876.5a3.364,3.364,0,1,0,3.364-3.364A3.364,3.364,0,0,0,1591.2,876.5Z" transform="translate(-1464.786 -811.477)" fill="#fff"/>
        <path id="Caminho_1668" data-name="Caminho 1668" d="M1547.345,876.5a3.365,3.365,0,1,0,3.365-3.364A3.365,3.365,0,0,0,1547.345,876.5Z" transform="translate(-1476.878 -811.477)" fill="#fff"/>
        <path id="Caminho_1669" data-name="Caminho 1669" d="M1569.255,967.766c-18.544,14.4-36.594,31.062-52.63,51.406h0a16.365,16.365,0,0,0,27.5,8.2c13.3-13.224,25.972-27.517,34.858-44.445Z" transform="translate(-1485.348 -785.387)" fill="#f2a5c7"/>
        <g id="Grupo_1703" data-name="Grupo 1703" transform="translate(45.907 204.169)">
          <g id="Grupo_1702" data-name="Grupo 1702">
            <path id="Caminho_1670" data-name="Caminho 1670" d="M1528.918,997.382l-.825-.774c3.711-3.957,7.643-7.914,11.688-11.762l.779.82C1536.532,989.5,1532.614,993.441,1528.918,997.382Z" transform="translate(-1528.093 -984.846)" fill="#d46e9b"/>
          </g>
        </g>
        <g id="Grupo_1704" data-name="Grupo 1704" transform="translate(62.61 104.234)">
          <path id="Caminho_1671" data-name="Caminho 1671" d="M1567.16,961.78c-7.222-30.1-19.373-46.837-25.974-54.131l1.259-1.139c6.708,7.415,19.054,24.4,26.364,54.875Z" transform="translate(-1541.186 -906.51)" fill="#1d0f4a"/>
        </g>
        <g id="Grupo_1705" data-name="Grupo 1705" transform="translate(108.653 58.753)">
          <path id="Caminho_1672" data-name="Caminho 1672" d="M1578.032,871.918c2.391-1.708,4.857-.945,6.335-.487a30.429,30.429,0,0,1-4.411,2.708Z" transform="translate(-1577.07 -870.859)" fill="#171754"/>
          <path id="Caminho_1673" data-name="Caminho 1673" d="M1582.649,873.9a2.674,2.674,0,0,1-.521,1.644h-4.335a2.667,2.667,0,0,1-.516-1.526v-.062a2.683,2.683,0,0,1,2.624-2.684h.056A2.691,2.691,0,0,1,1582.649,873.9Z" transform="translate(-1577.278 -870.744)" fill="#171754"/>
        </g>
        <g id="Grupo_1706" data-name="Grupo 1706" transform="translate(87.725 58.753)">
          <path id="Caminho_1674" data-name="Caminho 1674" d="M1567.208,871.918c-2.391-1.708-4.857-.945-6.335-.487a30.472,30.472,0,0,0,4.413,2.708Z" transform="translate(-1560.873 -870.859)" fill="#171754"/>
          <path id="Caminho_1675" data-name="Caminho 1675" d="M1562.384,873.9a2.664,2.664,0,0,0,.519,1.644h4.335a2.676,2.676,0,0,0,.517-1.526v-.062a2.684,2.684,0,0,0-2.624-2.684h-.056A2.691,2.691,0,0,0,1562.384,873.9Z" transform="translate(-1560.457 -870.744)" fill="#171754"/>
        </g>
        <path id="Caminho_1676" data-name="Caminho 1676" d="M1538.359,866.045c-6.733,11.613,4.863,25.512,17.361,20.616.205-.079.409-.165.614-.253,9.8-4.271,27.443-10.389,27.443-32.362,0-8.573.5-25.152.5-25.152l-29.312,8.5Z" transform="translate(-1479.902 -823.676)" fill="#f24495"/>
        <g id="Grupo_1707" data-name="Grupo 1707" transform="translate(76.093 30.37)">
          <path id="Caminho_1677" data-name="Caminho 1677" d="M1552.434,881.749l-.679-1.555c.593-.259,1.215-.523,1.859-.8,9.986-4.261,25.076-10.7,25.076-30.786h1.7c0,9.355-3.048,16.73-9.315,22.546-5.255,4.878-11.651,7.607-16.792,9.8C1553.639,881.23,1553.022,881.493,1552.434,881.749Z" transform="translate(-1551.755 -848.61)" fill="#1d0f4a"/>
        </g>
        <g id="Grupo_1709" data-name="Grupo 1709" transform="translate(89.803 76.943)">
          <g id="Grupo_1708" data-name="Grupo 1708">
            <path id="Caminho_1678" data-name="Caminho 1678" d="M1574.972,892.64q-.576,0-1.165-.047a14.936,14.936,0,0,1-11.306-6.567l1.433-.908a13.21,13.21,0,0,0,10.009,5.784,10.109,10.109,0,0,0,8.523-3.067l1.268,1.128A11.536,11.536,0,0,1,1574.972,892.64Z" transform="translate(-1562.502 -885.117)" fill="#d46e9b"/>
          </g>
        </g>
        <path id="Caminho_1679" data-name="Caminho 1679" d="M1577.753,869.593s4.27-3.192,8.365-.786c-2.53-2.287-5.984-2.235-9.178,0Z" transform="translate(-1468.718 -813.139)" fill="#171754"/>
        <g id="Grupo_1711" data-name="Grupo 1711" transform="translate(99.688 60.751)">
          <g id="Grupo_1710" data-name="Grupo 1710">
            <path id="Caminho_1680" data-name="Caminho 1680" d="M1572.995,886.3h-2.744v-1.7h2.744a.245.245,0,0,0,.244-.264l-.906-11.788,1.692-.13.907,11.788a1.942,1.942,0,0,1-1.937,2.091Z" transform="translate(-1570.251 -872.425)" fill="#d46e9b"/>
          </g>
        </g>
        <g id="Grupo_1712" data-name="Grupo 1712" transform="translate(142.966 167.528)">
          <rect id="Retângulo_473" data-name="Retângulo 473" width="1.697" height="21.245" transform="matrix(0.996, -0.094, 0.094, 0.996, 0, 0.159)" fill="#1d0f4a"/>
        </g>
      </g>
    </g>
    <g id="Grupo_1719" data-name="Grupo 1719" transform="translate(1689.657 867.53)">
      <g id="Grupo_1715" data-name="Grupo 1715" transform="translate(7.734 6.503)">
        <rect id="Retângulo_474" data-name="Retângulo 474" width="103.24" height="64.206" rx="7.105" fill="url(#linear-gradient-7)"/>
        <rect id="Retângulo_475" data-name="Retângulo 475" width="103.24" height="10.575" transform="translate(0 9.484)" fill="#171754"/>
        <rect id="Retângulo_476" data-name="Retângulo 476" width="54.05" height="12.841" transform="translate(3.868 28.132)" fill="#fafbff"/>
        <rect id="Retângulo_477" data-name="Retângulo 477" width="34.747" height="12.841" transform="translate(63.206 28.132)" fill="#fafbff"/>
        <rect id="Retângulo_478" data-name="Retângulo 478" width="71.76" height="3.021" transform="translate(26.193 47.185)" fill="#171754"/>
        <rect id="Retângulo_479" data-name="Retângulo 479" width="57.132" height="3.021" transform="translate(40.821 53.983)" fill="#171754"/>
      </g>
      <g id="Grupo_1718" data-name="Grupo 1718">
        <circle id="Elipse_105" data-name="Elipse 105" cx="11.024" cy="11.024" r="11.024" fill="#fffdff"/>
        <g id="Grupo_1717" data-name="Grupo 1717" transform="translate(2.316 1.493)">
          <g id="Grupo_1716" data-name="Grupo 1716">
            <rect id="Retângulo_480" data-name="Retângulo 480" width="2.571" height="12.315" transform="translate(10.526 13.973) rotate(135)" fill="#fc5d9c"/>
            <rect id="Retângulo_481" data-name="Retângulo 481" width="2.571" height="19.761" transform="translate(20.863 0) rotate(44.998)" fill="#fc5d9c"/>
          </g>
        </g>
      </g>
    </g>
    <g id="Grupo_1739" data-name="Grupo 1739" transform="translate(1754.488 969.889)">
      <g id="Grupo_1738" data-name="Grupo 1738">
        <path id="Caminho_1681" data-name="Caminho 1681" d="M1731.806,1033.45l12.426-3.129,12.257,6v3.369h-27.635a1.59,1.59,0,0,1-1.04-2.794Z" transform="translate(-1652.005 -876.683)" fill="#f2a5c7"/>
        <g id="Grupo_1722" data-name="Grupo 1722" transform="translate(44.65 76.205)">
          <path id="Caminho_1682" data-name="Caminho 1682" d="M1745.566,997.686l-22.12,26.152a12.213,12.213,0,0,1-18.47.207h0a6.8,6.8,0,0,1,.457-9.477l33.106-24.549Z" transform="translate(-1703.27 -963.999)" fill="#6c2196"/>
          <g id="Grupo_1721" data-name="Grupo 1721" transform="translate(35.346)">
            <path id="Caminho_1683" data-name="Caminho 1683" d="M1732.788,993.964l3.4,3.422,4.191-3.143-5.867-4.715Z" transform="translate(-1730.477 -964.135)" fill="#d481a6"/>
            <rect id="Retângulo_482" data-name="Retângulo 482" width="17.322" height="34.266" rx="1.174" transform="translate(21.479 34.266) rotate(180)" fill="#171754"/>
            <rect id="Retângulo_483" data-name="Retângulo 483" width="30.017" height="13.074" rx="0.341" transform="translate(19.354 2.124) rotate(90)" fill="#dadaff"/>
            <rect id="Retângulo_484" data-name="Retângulo 484" width="7.001" height="0.737" transform="translate(16.275 7.188) rotate(180)" fill="#171754"/>
            <rect id="Retângulo_485" data-name="Retângulo 485" width="9.488" height="0.737" transform="translate(17.519 10.366) rotate(180)" fill="#171754"/>
            <path id="Caminho_1684" data-name="Caminho 1684" d="M1731.022,991.589l.768-5.8a3.363,3.363,0,0,1,1.933-2.613l7.44-3.406a1.376,1.376,0,0,1,1.9.9h0a1.375,1.375,0,0,1-.45,1.408l-5.466,4.395c1.535,5.085-.1,8.089-3.863,10.219l-.617-.566A5.221,5.221,0,0,1,1731.022,991.589Z" transform="translate(-1730.976 -966.86)" fill="#d481a6"/>
            <g id="Grupo_1720" data-name="Grupo 1720" transform="translate(17.962 15.274)">
              <path id="Caminho_1685" data-name="Caminho 1685" d="M1746.973,985.432h3.774v-.447a3.389,3.389,0,0,0-3.39-3.39h-.384a1.918,1.918,0,0,0-1.917,1.919h0A1.917,1.917,0,0,0,1746.973,985.432Z" transform="translate(-1745.056 -981.596)" fill="#d481a6"/>
              <path id="Caminho_1686" data-name="Caminho 1686" d="M1746.973,988.44h3.774V984.6h-3.774a1.918,1.918,0,0,0-1.917,1.919h0A1.918,1.918,0,0,0,1746.973,988.44Z" transform="translate(-1745.056 -980.767)" fill="#d481a6"/>
              <path id="Caminho_1687" data-name="Caminho 1687" d="M1746.973,991.448h3.774v-3.837h-3.774a1.918,1.918,0,0,0-1.917,1.919h0A1.918,1.918,0,0,0,1746.973,991.448Z" transform="translate(-1745.056 -979.938)" fill="#d481a6"/>
              <path id="Caminho_1688" data-name="Caminho 1688" d="M1747.639,993.739h-.527a3.39,3.39,0,0,0,3.39-3.39h-2.863a1.694,1.694,0,0,0-1.694,1.694h0A1.694,1.694,0,0,0,1747.639,993.739Z" transform="translate(-1744.811 -979.183)" fill="#d481a6"/>
            </g>
          </g>
        </g>
        <g id="Grupo_1723" data-name="Grupo 1723" transform="translate(17.505 94.484)">
          <path id="Caminho_1689" data-name="Caminho 1689" d="M1681.991,983.951l24.406,40.139,8.024,6.311" transform="translate(-1681.991 -983.951)" fill="#171754"/>
        </g>
        <path id="Caminho_1690" data-name="Caminho 1690" d="M1717.8,963.162l1.773,2.108a39.579,39.579,0,0,1,8.032,35.525c-6.442,24.528-11.043,40.2-11.308,56.7l-48.029,10.971v-33.885c0-24.309.356-41.318,12.372-60.054,9.516-14.837,23.351-16.748,25.291-16.12Z" transform="translate(-1668.27 -896.54)" fill="#6c2196"/>
        <g id="Grupo_1725" data-name="Grupo 1725" transform="translate(19.041 74.131)">
          <g id="Grupo_1724" data-name="Grupo 1724">
            <path id="Caminho_1691" data-name="Caminho 1691" d="M1705.487,977.47l5.745,36.568,40.948,34.326-13.043,8.484c-16.412-12.353-36.2-19.673-46.051-34.386l-9.587-40.681a11.213,11.213,0,0,1,10.084-13.752h0A11.212,11.212,0,0,1,1705.487,977.47Z" transform="translate(-1683.196 -967.998)" fill="#9f5ac4"/>
          </g>
        </g>
        <circle id="Elipse_106" data-name="Elipse 106" cx="1.856" cy="1.856" r="1.856" transform="translate(52.882 100.127)" fill="#fff"/>
        <circle id="Elipse_107" data-name="Elipse 107" cx="1.856" cy="1.856" r="1.856" transform="translate(54.738 89.565)" fill="#fff"/>
        <g id="Grupo_1737" data-name="Grupo 1737" transform="translate(31.51)">
          <g id="Grupo_1731" data-name="Grupo 1731">
            <path id="Caminho_1692" data-name="Caminho 1692" d="M1728.057,946.913c9.88-.485,17.175-6.729,15.658-9.99-1.17-2.516-9.6,3.16-10.092-2.815Z" transform="translate(-1683.295 -903.211)" fill="#fc5d9c"/>
            <path id="Caminho_1693" data-name="Caminho 1693" d="M1744.968,937.4l-2.568,4.3a51.455,51.455,0,0,0-6.921,20.335h0a2.15,2.15,0,0,1-2.55,1.857l-2.176-.427c-.907.786-1.168,2.207-1.183,3.872a.835.835,0,0,1-.829.832c-4.988.008-7.466-1.331-10.128-5.079-.426,4.672,3.684,6.845,7.023,8.182a1.178,1.178,0,0,1,.552,1.739l-2.666,4.08a4.6,4.6,0,0,1-6.82,1.008,25.854,25.854,0,0,0-5.6-3.531l-.39,4.354a2.949,2.949,0,0,1-4.8,2.016,42.931,42.931,0,0,0-8.39-5.218,5.976,5.976,0,0,1-2.9-7.728l2.719-6.384,1.562-30.456Z" transform="translate(-1692.649 -904.024)" fill="#f2a5c7"/>
            <path id="Caminho_1694" data-name="Caminho 1694" d="M1717.738,933.229c2.864,4.686-1.032,13.66-6.573,14.765a8.086,8.086,0,0,1-2.582.061,10.411,10.411,0,0,1-8.757-12.455l1.447-7.131Z" transform="translate(-1691.137 -904.765)" fill="#f25299"/>
            <path id="Caminho_1695" data-name="Caminho 1695" d="M1741.9,948.242c7.029-1.879,13.016-10.73,12.236-18.018s-8.331-17.442-13.537-19.525-7.55.26-7.028,2.344,2.082,5.206,1.562,8.07c-4.165-4.686-21.347-8.851-30.2-4.686s-10.152,13.8-10.412,19,2.706,32.046,2.706,32.046,5.5-5.681,5.625-11.27c.173-7.81,3.55-13.828,8.851-15.05,12.937-2.981,20.075,10.483,30.2,7.085" transform="translate(-1692.546 -909.888)" fill="#fc5d9c"/>
            <path id="Caminho_1696" data-name="Caminho 1696" d="M1700.554,934.2a18.834,18.834,0,0,0-.791-3.98,2.442,2.442,0,0,1-2.526-.023,7.158,7.158,0,0,1-1.933-1.809l-.02-.023a1.307,1.307,0,0,0-2.311.916,8.4,8.4,0,0,0,.561,2.438,9.641,9.641,0,0,0,.958,1.8c1.035,1.545,2.725,2.917,4.566,2.657a1.74,1.74,0,0,0,1.4-.9A2.2,2.2,0,0,0,1700.554,934.2Z" transform="translate(-1692.97 -904.923)" fill="#f25299"/>
            <g id="Grupo_1726" data-name="Grupo 1726" transform="translate(49.234 32.944)">
              <path id="Caminho_1697" data-name="Caminho 1697" d="M1731.807,941.578l-.244-.912a15.324,15.324,0,0,0,7.371-4.954l.718.616A16.285,16.285,0,0,1,1731.807,941.578Z" transform="translate(-1731.563 -935.712)" fill="#cf388d"/>
            </g>
            <g id="Grupo_1727" data-name="Grupo 1727" transform="translate(7.914 35.215)">
              <path id="Caminho_1698" data-name="Caminho 1698" d="M1724.474,945.339a.748.748,0,0,1-.356-.091l-11.477-6.22L1700,940.32a.748.748,0,0,1-.152-1.489l13.1-1.339,11.882,6.441a.748.748,0,0,1-.357,1.406Z" transform="translate(-1699.173 -937.492)" fill="#fff"/>
            </g>
            <path id="Caminho_1699" data-name="Caminho 1699" d="M1731.255,923.21c-4.207-7.739-10.228-12.168-13.55-12.147-1.865.012,2.5,9.537,0,10.264Z" transform="translate(-1686.281 -909.564)" fill="#f25299"/>
            <g id="Grupo_1728" data-name="Grupo 1728" transform="translate(31.137 39.496)">
              <path id="Caminho_1700" data-name="Caminho 1700" d="M1724.2,954.493a6.823,6.823,0,1,1,6.823-6.823A6.83,6.83,0,0,1,1724.2,954.493Zm0-12.149a5.326,5.326,0,1,0,5.325,5.326A5.332,5.332,0,0,0,1724.2,942.344Z" transform="translate(-1717.377 -940.848)" fill="#fff"/>
            </g>
            <g id="Grupo_1729" data-name="Grupo 1729" transform="translate(35.542 44.835)">
              <path id="Caminho_1701" data-name="Caminho 1701" d="M1723.016,945.033a2.257,2.257,0,0,1,2.141,2.967l-4.327-1.259A2.255,2.255,0,0,1,1723.016,945.033Z" transform="translate(-1720.83 -945.033)" fill="#171754"/>
            </g>
            <path id="Caminho_1702" data-name="Caminho 1702" d="M1708.554,938.765h0a5.748,5.748,0,0,0-7.819,3.91h0a5.749,5.749,0,0,0,2.092,5.955l2.352,1.794,3.687-10.964A.56.56,0,0,0,1708.554,938.765Z" transform="translate(-1690.875 -902.052)" fill="#f2a5c7"/>
            <g id="Grupo_1730" data-name="Grupo 1730" transform="translate(9.316 40.532)">
              <path id="Caminho_1703" data-name="Caminho 1703" d="M1703.279,948.457l-.6-.454a6.12,6.12,0,0,1-2.23-6.343l.726.181a5.373,5.373,0,0,0,1.957,5.567l.6.454Z" transform="translate(-1700.272 -941.66)" fill="#cc7070"/>
            </g>
          </g>
          <g id="Grupo_1732" data-name="Grupo 1732" transform="translate(12.572 39.974)">
            <path id="Caminho_1704" data-name="Caminho 1704" d="M1703.406,944.243a.376.376,0,0,1-.334-.2,2.433,2.433,0,0,1-.214-.844,2.2,2.2,0,0,1,.106-1.181,1.357,1.357,0,0,1,2.554.88.374.374,0,0,1-.727-.176.608.608,0,0,0-1.146-.394,1.571,1.571,0,0,0-.043.786,1.765,1.765,0,0,0,.138.591.373.373,0,0,1-.163.5A.369.369,0,0,1,1703.406,944.243Z" transform="translate(-1702.825 -941.223)" fill="#cc7070"/>
          </g>
          <g id="Grupo_1733" data-name="Grupo 1733" transform="translate(41.561 9.926)">
            <path id="Caminho_1705" data-name="Caminho 1705" d="M1726.745,927.168l-.855-.4c1.461-3.094.92-5.727-.342-8.73l.871-.366C1727.6,920.469,1728.45,923.558,1726.745,927.168Z" transform="translate(-1725.548 -917.669)" fill="#cf388d"/>
          </g>
          <g id="Grupo_1734" data-name="Grupo 1734" transform="translate(28.915 20.678)">
            <path id="Caminho_1706" data-name="Caminho 1706" d="M1716.388,931.465l-.753-.57a6.077,6.077,0,0,0,1.3-4.633l.93-.165A7,7,0,0,1,1716.388,931.465Z" transform="translate(-1715.635 -926.097)" fill="#cf388d"/>
          </g>
          <g id="Grupo_1735" data-name="Grupo 1735" transform="translate(9.952 22.368)">
            <path id="Caminho_1707" data-name="Caminho 1707" d="M1700.825,938.19l-.052-2.841a8.959,8.959,0,0,1,4.485-7.927l.471.819a8.02,8.02,0,0,0-4.012,7.09l.052,2.841Z" transform="translate(-1700.771 -927.422)" fill="#cf388d"/>
          </g>
          <g id="Grupo_1736" data-name="Grupo 1736" transform="translate(12.627 63.559)">
            <path id="Caminho_1708" data-name="Caminho 1708" d="M1708.689,967.075a.372.372,0,0,1-.265-.111c-1.971-1.981-5.339-6.465-5.482-6.655a.375.375,0,0,1,.6-.449c.034.046,3.479,4.632,5.413,6.576a.375.375,0,0,1-.265.639Z" transform="translate(-1702.868 -959.71)" fill="#cc7070"/>
          </g>
        </g>
        <path id="Caminho_1709" data-name="Caminho 1709" d="M1716.3,1036.053l61.38,2.309a12.859,12.859,0,0,1,12.375,12.85h0a12.857,12.857,0,0,1-10.4,12.622c-20.959,4.08-67.484,12.811-81.761,12.811h0a29.621,29.621,0,0,1-29.621-29.621h0Z" transform="translate(-1668.27 -875.102)" fill="#fc5d9c"/>
        <path id="Caminho_1710" data-name="Caminho 1710" d="M1727.247,1064.525h0a8.711,8.711,0,0,1,8.711-8.71h8.667l26.33-3.971a8.335,8.335,0,0,1,9.176,10.8l-.367,1.142a13.635,13.635,0,0,1-12.979,9.457h-30.826A8.711,8.711,0,0,1,1727.247,1064.525Z" transform="translate(-1652.009 -870.775)" fill="#171754"/>
      </g>
    </g>
    <g id="Grupo_1745" data-name="Grupo 1745" transform="translate(1858.972 1022.122)">
      <g id="Grupo_1744" data-name="Grupo 1744">
        <g id="Grupo_1741" data-name="Grupo 1741" transform="translate(0 1.994)">
          <g id="Grupo_1740" data-name="Grupo 1740">
            <path id="Caminho_1711" data-name="Caminho 1711" d="M1754.916,967.462h-3.975v-1.538h3.975a2.024,2.024,0,0,0,2.021-2.021v-1.184a2.023,2.023,0,0,0-2.021-2.021h-1.185a3.564,3.564,0,0,1-3.559-3.561v-1.184a3.564,3.564,0,0,1,3.559-3.559h3.975v1.538h-3.975a2.024,2.024,0,0,0-2.021,2.021v1.184a2.023,2.023,0,0,0,2.021,2.021h1.185a3.564,3.564,0,0,1,3.559,3.561V963.9A3.564,3.564,0,0,1,1754.916,967.462Z" transform="translate(-1750.172 -952.395)" fill="#9087f4"/>
          </g>
        </g>
        <g id="Grupo_1742" data-name="Grupo 1742" transform="translate(3.52 15.636)">
          <path id="Caminho_1712" data-name="Caminho 1712" d="M1753.7,966.508a.77.77,0,0,1-.771-.769v-1.88a.77.77,0,0,1,1.54,0v1.88A.769.769,0,0,1,1753.7,966.508Z" transform="translate(-1752.931 -963.089)" fill="#9087f4"/>
        </g>
        <g id="Grupo_1743" data-name="Grupo 1743" transform="translate(3.52)">
          <path id="Caminho_1713" data-name="Caminho 1713" d="M1753.7,954.215a.77.77,0,0,1-.771-.769V951.6a.77.77,0,0,1,1.54,0v1.845A.769.769,0,0,1,1753.7,954.215Z" transform="translate(-1752.931 -950.832)" fill="#9087f4"/>
        </g>
      </g>
    </g>
    <g id="Grupo_1751" data-name="Grupo 1751" transform="translate(1873.243 996.237)">
      <g id="Grupo_1750" data-name="Grupo 1750">
        <g id="Grupo_1747" data-name="Grupo 1747" transform="translate(0 1.995)">
          <g id="Grupo_1746" data-name="Grupo 1746">
            <path id="Caminho_1714" data-name="Caminho 1714" d="M1766.1,947.172h-3.974v-1.538h3.974a2.023,2.023,0,0,0,2.021-2.021v-1.184a2.023,2.023,0,0,0-2.021-2.021h-1.184a3.564,3.564,0,0,1-3.559-3.559v-1.184a3.563,3.563,0,0,1,3.559-3.559h3.974v1.538h-3.974a2.023,2.023,0,0,0-2.021,2.021v1.184a2.024,2.024,0,0,0,2.021,2.021h1.184a3.563,3.563,0,0,1,3.561,3.559v1.184A3.563,3.563,0,0,1,1766.1,947.172Z" transform="translate(-1761.359 -932.106)" fill="#9087f4"/>
          </g>
        </g>
        <g id="Grupo_1748" data-name="Grupo 1748" transform="translate(3.52 15.638)">
          <path id="Caminho_1715" data-name="Caminho 1715" d="M1764.887,946.218a.768.768,0,0,1-.769-.769v-1.879a.769.769,0,0,1,1.539,0v1.879A.768.768,0,0,1,1764.887,946.218Z" transform="translate(-1764.118 -942.8)" fill="#9087f4"/>
        </g>
        <g id="Grupo_1749" data-name="Grupo 1749" transform="translate(3.52)">
          <path id="Caminho_1716" data-name="Caminho 1716" d="M1764.887,933.925a.769.769,0,0,1-.769-.769v-1.843a.769.769,0,1,1,1.539,0v1.843A.769.769,0,0,1,1764.887,933.925Z" transform="translate(-1764.118 -930.542)" fill="#9087f4"/>
        </g>
      </g>
    </g>
    <g id="Grupo_1757" data-name="Grupo 1757" transform="translate(1859.374 976.378)">
      <g id="Grupo_1756" data-name="Grupo 1756">
        <g id="Grupo_1753" data-name="Grupo 1753" transform="translate(0 1.498)">
          <g id="Grupo_1752" data-name="Grupo 1752">
            <path id="Caminho_1717" data-name="Caminho 1717" d="M1754.05,927.466h-2.985V926.31h2.985a1.52,1.52,0,0,0,1.518-1.518V923.9a1.519,1.519,0,0,0-1.518-1.517h-.889a2.677,2.677,0,0,1-2.674-2.674v-.889a2.676,2.676,0,0,1,2.674-2.674h2.985V917.3h-2.985a1.52,1.52,0,0,0-1.518,1.518v.889a1.519,1.519,0,0,0,1.518,1.517h.889a2.678,2.678,0,0,1,2.674,2.674v.889A2.677,2.677,0,0,1,1754.05,927.466Z" transform="translate(-1750.487 -916.149)" fill="#9087f4"/>
          </g>
        </g>
        <g id="Grupo_1754" data-name="Grupo 1754" transform="translate(2.643 11.744)">
          <path id="Caminho_1718" data-name="Caminho 1718" d="M1753.138,926.749a.578.578,0,0,1-.579-.578v-1.412a.578.578,0,0,1,1.157,0v1.412A.578.578,0,0,1,1753.138,926.749Z" transform="translate(-1752.559 -924.181)" fill="#9087f4"/>
        </g>
        <g id="Grupo_1755" data-name="Grupo 1755" transform="translate(2.643)">
          <path id="Caminho_1719" data-name="Caminho 1719" d="M1753.138,917.516a.579.579,0,0,1-.579-.578v-1.385a.578.578,0,0,1,1.157,0v1.385A.578.578,0,0,1,1753.138,917.516Z" transform="translate(-1752.559 -914.975)" fill="#9087f4"/>
        </g>
      </g>
    </g>
    <line id="Linha_149" data-name="Linha 149" x2="501.353" transform="translate(1405.272 1214.801)" fill="none" stroke="#aea7fa" stroke-linecap="round" stroke-miterlimit="10" stroke-width="3"/>
  </g>
</svg>
