<?xml version="1.0" encoding="utf-8"?>
<!-- Generator: Adobe Illustrator 26.5.0, SVG Export Plug-In . SVG Version: 6.00 Build 0)  -->
<svg version="1.1" id="Layer_1" xmlns="http://www.w3.org/2000/svg" xmlns:xlink="http://www.w3.org/1999/xlink" x="0px" y="0px"
	 viewBox="0 0 232 152" style="enable-background:new 0 0 232 152;" xml:space="preserve">
<style type="text/css">
	.st0{fill:#6C2196;}
	.st1{fill:url(#Caminho_2094_00000054972000253005977140000002477864300849738421_);}
	.st2{opacity:0.4;fill:url(#Caminho_2096_00000031914700820968000610000000653208220229162901_);enable-background:new    ;}
	.st3{fill:#FFC2BD;}
	.st4{fill:#A85CD1;}
	.st5{clip-path:url(#SVGID_00000063598808115162864890000004152479246921053344_);}
	.st6{opacity:0.4;}
	.st7{fill:#8648A8;}
	.st8{fill:#FFA15E;}
	.st9{fill:#FFC587;}
	.st10{fill:#FFFFFF;}
</style>
<g id="Grupo_2283" transform="translate(7947.991 -1663.5)">
	<g id="Grupo_2081" transform="translate(-7947.991 1671.742)">
		<path id="Caminho_2093" class="st0" d="M40.5,41.9c-0.8,0-1.5-0.5-1.7-1.3c-1.3-4.7-3.9-8.9-7.6-12c-0.3,4.1-2.4,7.9-5.8,10.3
			c-4.3,2.8-10,2.5-13.9-0.9c-3.9-3.6-4.5-9.6-1.3-13.9c3.9-4.9,11.3-4.7,16.6-2.4C26,19.8,25,18,23.8,16.4c-1.6-2.2-6.8-5.3-13.2-8
			C9.7,8,9.3,7,9.6,6.1C10,5.2,11,4.8,11.9,5.1l0,0c2.7,1.1,11.8,5.1,14.7,9.1c2.2,2.9,3.7,6.2,4.4,9.7c5.5,3.7,9.5,9.3,11.2,15.7
			c0.2,0.9-0.3,1.9-1.2,2.1C40.8,41.9,40.7,41.9,40.5,41.9L40.5,41.9z M19.4,23.6c-2.6,0-5,0.8-6.5,2.7c-2,2.9-1.6,6.7,0.9,9.1
			c2.8,2.3,6.7,2.5,9.7,0.5c2.7-1.8,4.4-5.4,4.3-9.2c0-0.2,0-0.5,0-0.7c-0.7-0.4-1.3-0.7-2-1.1C23.7,24.1,21.6,23.6,19.4,23.6z"/>
	</g>
	
		<linearGradient id="Caminho_2094_00000029004817072266364340000011320392928389827732_" gradientUnits="userSpaceOnUse" x1="-8391.1738" y1="2950.9932" x2="-8391.1738" y2="2950.2612" gradientTransform="matrix(205.31 0 0 -118.074 1714972.25 350144.125)">
		<stop  offset="0" style="stop-color:#A85CD1"/>
		<stop  offset="0.389" style="stop-color:#893EB3"/>
		<stop  offset="0.761" style="stop-color:#74289D"/>
		<stop  offset="1" style="stop-color:#6C2196"/>
	</linearGradient>
	<path id="Caminho_2094" style="fill:url(#Caminho_2094_00000029004817072266364340000011320392928389827732_);" d="M-7862.8,1684
		h62.4c23.5,0,44.1,15.6,50.5,38.2h18.9c3.8,0,6.9,3.1,6.9,6.9v19.9c0,3.8-3.1,6.9-6.9,6.9c0,0,0,0,0,0h-18.9
		c-6.4,22.6-27,38.2-50.5,38.2h-62.4c-29,0-52.5-23.5-52.5-52.5l0,0v-4.9C-7915.3,1707.6-7891.8,1684-7862.8,1684
		C-7862.8,1684-7862.8,1684-7862.8,1684z"/>
	<path id="Caminho_2095" class="st0" d="M-7731,1744.4h-18.9c-6.4,22.6-27,38.2-50.5,38.2h-62.4c-27.7,0-50.7-21.6-52.4-49.3
		c-0.1,1.1-0.1,2.2-0.1,3.2v4.9c0,29,23.5,52.5,52.5,52.5h62.4c23.5,0,44.1-15.6,50.5-38.2h18.9c3.8,0,6.9-3.1,6.9-6.9c0,0,0,0,0,0
		v-11.4C-7724.1,1741.4-7727.2,1744.4-7731,1744.4C-7731,1744.4-7731,1744.4-7731,1744.4z"/>
	
		<linearGradient id="Caminho_2096_00000025433636080506472300000002986497974233774989_" gradientUnits="userSpaceOnUse" x1="-8391.1738" y1="2941.7815" x2="-8391.1738" y2="2939.9187" gradientTransform="matrix(205.31 0 0 -60.782 1714972.25 180509.2812)">
		<stop  offset="0" style="stop-color:#A85CD1"/>
		<stop  offset="0.625" style="stop-color:#7F34A9"/>
		<stop  offset="1" style="stop-color:#6C2196"/>
	</linearGradient>
	
		<path id="Caminho_2096" style="opacity:0.4;fill:url(#Caminho_2096_00000025433636080506472300000002986497974233774989_);enable-background:new    ;" d="
		M-7731,1722.2h-18.9c-6.4-22.6-27-38.2-50.5-38.2h-62.4c-29,0-52.5,23.5-52.5,52.5l0,0v4.1c0-29,23.5-52.5,52.5-52.5l0,0h62.4
		c23.5,0,44.1,15.6,50.5,38.2h18.9c3.8,0,6.9,3.1,6.9,6.9c0,0,0,0,0,0v-4.1C-7724.1,1725.3-7727.2,1722.2-7731,1722.2
		C-7731,1722.2-7731,1722.2-7731,1722.2z"/>
	<g id="Grupo_2082" transform="translate(-7801.49 1663.5)">
		<path id="Retângulo_715" class="st3" d="M29,36H-2l0,0l0,0C-2,19.2,11.6,5.6,28.4,5.6c0,0,0,0,0,0H29l0,0V36L29,36z"/>
		<path id="Caminho_2097" class="st4" d="M25.5,5.6C10.3,5.6-2,17.9-2,33.1v8.4l30.9,7V5.6H25.5z"/>
	</g>
	<g id="Grupo_2264" transform="translate(-7921.597 1679.566)">
		<g>
			<defs>
				<path id="SVGID_1_" d="M58.8,4.5h62.4c23.5,0,44.1,15.6,50.5,38.2h18.9c3.8,0,6.9,3.1,6.9,6.9v19.9c0,3.8-3.1,6.9-6.9,6.9
					c0,0,0,0,0,0h-18.9c-6.4,22.6-27,38.2-50.5,38.2H58.8c-29,0-52.5-23.5-52.5-52.5l0,0V57C6.3,28,29.8,4.5,58.8,4.5
					C58.8,4.5,58.8,4.5,58.8,4.5z"/>
			</defs>
			<clipPath id="SVGID_00000083082580855061916730000000276952100392641157_">
				<use xlink:href="#SVGID_1_"  style="overflow:visible;"/>
			</clipPath>
			
				<g id="Grupo_2263" transform="translate(0 0)" style="clip-path:url(#SVGID_00000083082580855061916730000000276952100392641157_);">
				<g id="Grupo_2262" transform="translate(1.114 5.104)" class="st6">
					<g id="Grupo_2091" transform="translate(12.806 94.013)">
						<g id="Grupo_2084">
							<g id="Grupo_2083">
								<path id="Caminho_2098" class="st7" d="M8.6,5.6c-1.2,0-2.4-0.5-3.3-1.4l0.9-0.9C7.5,4.6,9.6,4.7,11,3.4s1.4-3.4,0.1-4.7
									c0,0-0.1-0.1-0.1-0.1l0.9-0.9c1.8,1.8,1.8,4.7,0,6.5C11,5.1,9.8,5.6,8.6,5.6L8.6,5.6z"/>
							</g>
						</g>
						<g id="Grupo_2086" transform="translate(52.358)">
							<g id="Grupo_2085">
								<path id="Caminho_2099" class="st7" d="M5,5.6c-1.2,0-2.4-0.5-3.3-1.4l0.9-0.9C3.9,4.6,6,4.6,7.4,3.4C8.7,2.1,8.7,0,7.4-1.4
									c0,0,0,0-0.1-0.1l0.9-0.9c1.8,1.8,1.8,4.7,0,6.5C7.4,5.1,6.2,5.6,5,5.6L5,5.6z"/>
							</g>
						</g>
						<g id="Grupo_2088" transform="translate(104.717)">
							<g id="Grupo_2087">
								<path id="Caminho_2100" class="st7" d="M1.4,5.6C0.2,5.6-1,5.1-1.9,4.2L-1,3.3c1.3,1.3,3.4,1.4,4.7,0.1S5.1,0,3.9-1.3
									c0,0-0.1-0.1-0.1-0.1l0.9-0.9c1.8,1.8,1.8,4.7,0,6.5C3.8,5.1,2.6,5.6,1.4,5.6z"/>
							</g>
						</g>
						<g id="Grupo_2090" transform="translate(157.076)">
							<g id="Grupo_2089">
								<path id="Caminho_2101" class="st7" d="M-2.2,5.6c-1.2,0-2.4-0.5-3.3-1.4l0.9-0.9c1.3,1.3,3.4,1.2,4.7-0.1
									c1.2-1.3,1.2-3.3,0-4.6l0.9-0.9c1.8,1.8,1.8,4.7,0,6.5C0.2,5.1-1,5.6-2.2,5.6z"/>
							</g>
						</g>
					</g>
					<g id="Grupo_2100" transform="translate(0 75.898)">
						<g id="Grupo_2093">
							<g id="Grupo_2092">
								<path id="Caminho_2102" class="st7" d="M9.5,6.8c-1.2,0-2.4-0.5-3.3-1.4l0.9-0.9c1.3,1.3,3.4,1.2,4.7-0.1
									c1.2-1.3,1.2-3.3,0-4.6l0.9-0.9c1.8,1.8,1.8,4.7,0,6.5C11.9,6.3,10.7,6.8,9.5,6.8L9.5,6.8z"/>
							</g>
						</g>
						<g id="Grupo_2095" transform="translate(52.358)">
							<g id="Grupo_2094">
								<path id="Caminho_2103" class="st7" d="M5.9,6.8c-1.2,0-2.4-0.5-3.3-1.4l0.9-0.9C4.9,5.8,7,5.8,8.2,4.4
									c1.2-1.3,1.2-3.3,0-4.6l0.9-0.9c1.8,1.8,1.8,4.7,0,6.5C8.3,6.3,7.1,6.8,5.9,6.8L5.9,6.8z"/>
							</g>
						</g>
						<g id="Grupo_2097" transform="translate(104.717)">
							<g id="Grupo_2096">
								<path id="Caminho_2104" class="st7" d="M2.3,6.8C1.1,6.8-0.1,6.3-1,5.4l0.9-0.9c1.3,1.3,3.4,1.2,4.7-0.1
									c1.2-1.3,1.2-3.3,0-4.6l0.9-0.9c1.8,1.8,1.8,4.7,0,6.5C4.7,6.3,3.5,6.8,2.3,6.8L2.3,6.8z"/>
							</g>
						</g>
						<g id="Grupo_2099" transform="translate(157.076)">
							<g id="Grupo_2098" transform="translate(0)">
								<path id="Caminho_2105" class="st7" d="M-1.3,6.8c-1.2,0-2.4-0.5-3.3-1.4l0.9-0.9c1.3,1.3,3.4,1.2,4.7-0.1
									c1.2-1.3,1.2-3.3,0-4.6L2-1.1c1.8,1.8,1.8,4.7,0,6.5C1.1,6.3-0.1,6.8-1.3,6.8L-1.3,6.8z"/>
							</g>
						</g>
					</g>
					<g id="Grupo_2109" transform="translate(12.806 57.959)">
						<g id="Grupo_2102">
							<g id="Grupo_2101">
								<path id="Caminho_2106" class="st7" d="M8.6,8C7.4,8,6.2,7.5,5.3,6.7l0.9-0.9C7.5,7.1,9.6,7.1,11,5.8
									c1.3-1.3,1.3-3.4,0.1-4.7c0,0,0,0-0.1-0.1l0.9-0.9c1.8,1.8,1.8,4.7,0,6.5C11,7.5,9.8,8,8.6,8L8.6,8z"/>
							</g>
						</g>
						<g id="Grupo_2104" transform="translate(52.358)">
							<g id="Grupo_2103">
								<path id="Caminho_2107" class="st7" d="M5,8C3.8,8,2.6,7.5,1.7,6.7l0.9-0.9c1.3,1.3,3.4,1.3,4.7,0s1.3-3.4,0-4.7l0,0
									l0.9-0.9c1.8,1.8,1.8,4.7,0,6.5C7.4,7.5,6.2,8,5,8L5,8z"/>
							</g>
						</g>
						<g id="Grupo_2106" transform="translate(104.717)">
							<g id="Grupo_2105">
								<path id="Caminho_2108" class="st7" d="M1.4,8C0.2,8-1,7.5-1.9,6.7L-1,5.8c1.3,1.3,3.4,1.3,4.7,0.1s1.3-3.4,0.1-4.7
									c0,0,0,0-0.1-0.1l0.9-0.9c1.8,1.8,1.8,4.7,0,6.5C3.8,7.5,2.6,8,1.4,8L1.4,8z"/>
							</g>
						</g>
						<g id="Grupo_2108" transform="translate(157.076)">
							<g id="Grupo_2107">
								<path id="Caminho_2109" class="st7" d="M-2.2,8c-1.2,0-2.4-0.5-3.3-1.4l0.9-0.9C-3.2,7.1-1.1,7,0.2,5.7
									c1.3-1.3,1.3-3.4,0-4.7l0.9-0.9c1.8,1.8,1.8,4.7,0,6.5C0.2,7.5-1,8-2.2,8L-2.2,8z"/>
							</g>
						</g>
					</g>
					<g id="Grupo_2118" transform="translate(0 39.843)">
						<g id="Grupo_2111">
							<g id="Grupo_2110">
								<path id="Caminho_2110" class="st7" d="M9.5,9.3c-1.2,0-2.4-0.5-3.3-1.4L7.1,7c1.3,1.3,3.4,1.4,4.7,0.1s1.4-3.4,0.1-4.7
									c0,0-0.1-0.1-0.1-0.1l0.9-0.9c1.8,1.8,1.8,4.7,0,6.5C11.9,8.8,10.7,9.3,9.5,9.3L9.5,9.3z"/>
							</g>
						</g>
						<g id="Grupo_2113" transform="translate(52.358)">
							<g id="Grupo_2112">
								<path id="Caminho_2111" class="st7" d="M5.9,9.3c-1.2,0-2.4-0.5-3.3-1.4L3.5,7c1.3,1.3,3.4,1.4,4.7,0.1s1.4-3.4,0.1-4.7
									c0,0-0.1-0.1-0.1-0.1l0.9-0.9c1.8,1.8,1.8,4.7,0,6.5C8.3,8.8,7.1,9.3,5.9,9.3L5.9,9.3z"/>
							</g>
						</g>
						<g id="Grupo_2115" transform="translate(104.717)">
							<g id="Grupo_2114">
								<path id="Caminho_2112" class="st7" d="M2.3,9.3C1.1,9.3-0.1,8.8-1,7.9L-0.1,7c1.3,1.3,3.4,1.4,4.7,0.1S6,3.7,4.7,2.4
									c0,0-0.1-0.1-0.1-0.1l0.9-0.9c1.8,1.8,1.8,4.7,0,6.5C4.7,8.8,3.5,9.3,2.3,9.3L2.3,9.3z"/>
							</g>
						</g>
						<g id="Grupo_2117" transform="translate(157.076)">
							<g id="Grupo_2116" transform="translate(0)">
								<path id="Caminho_2113" class="st7" d="M-1.3,9.3c-1.2,0-2.4-0.5-3.3-1.4L-3.7,7c1.3,1.3,3.4,1.4,4.7,0.1s1.4-3.4,0.1-4.7
									c0,0-0.1-0.1-0.1-0.1L2,1.4c1.8,1.8,1.8,4.7,0,6.5C1.1,8.8-0.1,9.3-1.3,9.3L-1.3,9.3z"/>
							</g>
						</g>
					</g>
					<g id="Grupo_2127" transform="translate(12.806 21.904)">
						<g id="Grupo_2120">
							<g id="Grupo_2119">
								<path id="Caminho_2114" class="st7" d="M8.6,10.5c-1.2,0-2.4-0.5-3.3-1.4l0.9-0.9C7.5,9.6,9.6,9.6,11,8.3
									c1.3-1.3,1.4-3.4,0.1-4.7c0,0-0.1-0.1-0.1-0.1l0.9-0.9c1.8,1.8,1.8,4.7,0,6.5C11,10,9.8,10.5,8.6,10.5L8.6,10.5z"/>
							</g>
						</g>
						<g id="Grupo_2122" transform="translate(52.358)">
							<g id="Grupo_2121">
								<path id="Caminho_2115" class="st7" d="M5,10.5c-1.2,0-2.4-0.5-3.3-1.4l0.9-0.9C3.9,9.6,6,9.6,7.4,8.3
									C8.7,7,8.7,4.9,7.4,3.6c0,0,0,0-0.1-0.1l0.9-0.9c1.8,1.8,1.8,4.7,0,6.5C7.4,10,6.2,10.5,5,10.5L5,10.5z"/>
							</g>
						</g>
						<g id="Grupo_2124" transform="translate(104.717)">
							<g id="Grupo_2123">
								<path id="Caminho_2116" class="st7" d="M1.4,10.5C0.2,10.5-1,10-1.9,9.2L-1,8.2c1.3,1.3,3.4,1.4,4.7,0.1
									c1.3-1.3,1.4-3.4,0.1-4.7c0,0-0.1-0.1-0.1-0.1l0.9-0.9c1.8,1.8,1.8,4.7,0,6.5C3.8,10,2.6,10.5,1.4,10.5L1.4,10.5z"/>
							</g>
						</g>
						<g id="Grupo_2126" transform="translate(157.076)">
							<g id="Grupo_2125">
								<path id="Caminho_2117" class="st7" d="M-2.2,10.5c-1.2,0-2.4-0.5-3.3-1.4l0.9-0.9c1.3,1.3,3.4,1.2,4.7-0.1
									c1.2-1.3,1.2-3.3,0-4.6l0.9-0.9c1.8,1.8,1.8,4.7,0,6.5C0.2,10-1,10.5-2.2,10.5L-2.2,10.5z"/>
							</g>
						</g>
					</g>
					<g id="Grupo_2136" transform="translate(0 3.789)">
						<g id="Grupo_2129">
							<g id="Grupo_2128">
								<path id="Caminho_2118" class="st7" d="M9.5,11.8c-1.2,0-2.4-0.5-3.3-1.4l0.9-0.9c1.3,1.3,3.4,1.2,4.7-0.1
									c1.2-1.3,1.2-3.3,0-4.6l0.9-0.9c1.8,1.8,1.8,4.7,0,6.5C11.9,11.3,10.7,11.8,9.5,11.8L9.5,11.8z"/>
							</g>
						</g>
						<g id="Grupo_2131" transform="translate(52.358)">
							<g id="Grupo_2130">
								<path id="Caminho_2119" class="st7" d="M5.9,11.8c-1.2,0-2.4-0.5-3.3-1.4l0.9-0.9c1.3,1.3,3.4,1.2,4.7-0.1
									c1.2-1.3,1.2-3.3,0-4.6l0.9-0.9c1.8,1.8,1.8,4.7,0,6.5C8.3,11.3,7.1,11.8,5.9,11.8L5.9,11.8z"/>
							</g>
						</g>
						<g id="Grupo_2133" transform="translate(104.717)">
							<g id="Grupo_2132">
								<path id="Caminho_2120" class="st7" d="M2.3,11.8c-1.2,0-2.4-0.5-3.3-1.4l0.9-0.9c1.3,1.3,3.4,1.2,4.7-0.1
									c1.2-1.3,1.2-3.3,0-4.6l0.9-0.9c1.8,1.8,1.8,4.7,0,6.5C4.7,11.3,3.5,11.8,2.3,11.8L2.3,11.8z"/>
							</g>
						</g>
						<g id="Grupo_2135" transform="translate(157.076)">
							<g id="Grupo_2134" transform="translate(0)">
								<path id="Caminho_2121" class="st7" d="M-1.3,11.8c-1.2,0-2.4-0.5-3.3-1.4l0.9-0.9c1.3,1.3,3.4,1.2,4.7-0.1
									c1.2-1.3,1.2-3.3,0-4.6L2,3.9c1.8,1.8,1.8,4.7,0,6.5C1.1,11.3-0.1,11.8-1.3,11.8L-1.3,11.8z"/>
							</g>
						</g>
					</g>
					<g id="Grupo_2141" transform="translate(25.673 35.639)">
						<g id="Grupo_2138" transform="translate(0 1.741)">
							<g id="Grupo_2137">
								<path id="Caminho_2122" class="st7" d="M8.3,13.8H5.1c-0.4,0-0.7-0.3-0.7-0.6c0-0.4,0.3-0.7,0.6-0.7c0,0,0,0,0,0h3.2
									c0.9,0,1.6-0.7,1.6-1.6v-1c0-0.9-0.7-1.6-1.6-1.6h-1C5.8,8.3,4.4,7,4.4,5.4v-1c0-1.6,1.3-2.9,2.9-2.9h3.2
									c0.4,0,0.6,0.3,0.6,0.7c0,0.3-0.3,0.6-0.6,0.6H7.4c-0.9,0-1.6,0.7-1.6,1.6v1c0,0.9,0.7,1.6,1.6,1.6h1c1.6,0,2.9,1.3,2.9,2.9
									v1C11.2,12.5,9.9,13.8,8.3,13.8z"/>
							</g>
						</g>
						<g id="Grupo_2139" transform="translate(3.075 13.66)">
							<path id="Caminho_2123" class="st7" d="M4.9,3.5c-0.4,0-0.6-0.3-0.6-0.6l0,0V1.4c0-0.4,0.3-0.7,0.6-0.7
								c0.4,0,0.7,0.3,0.7,0.6c0,0,0,0,0,0v1.5C5.5,3.3,5.2,3.5,4.9,3.5z"/>
						</g>
						<g id="Grupo_2140" transform="translate(3.075)">
							<path id="Caminho_2124" class="st7" d="M4.9,4.5c-0.4,0-0.6-0.3-0.6-0.6l0,0V2.3c0-0.4,0.3-0.7,0.6-0.7
								c0.4,0,0.7,0.3,0.7,0.6c0,0,0,0,0,0v1.5C5.5,4.2,5.2,4.5,4.9,4.5z"/>
						</g>
					</g>
					<g id="Grupo_2146" transform="translate(78.032 35.639)">
						<g id="Grupo_2143" transform="translate(0 1.741)">
							<g id="Grupo_2142">
								<path id="Caminho_2125" class="st7" d="M4.7,13.8H1.5c-0.4,0-0.6-0.3-0.6-0.7c0-0.3,0.3-0.6,0.6-0.6h3.2
									c0.9,0,1.6-0.7,1.6-1.6v-1c0-0.9-0.7-1.6-1.6-1.6h-1C2.2,8.3,0.9,7,0.9,5.4v-1c0-1.6,1.3-2.9,2.9-2.9H7
									c0.4,0,0.6,0.3,0.6,0.7c0,0.3-0.3,0.6-0.6,0.6H3.8c-0.9,0-1.6,0.7-1.6,1.6v1c0,0.9,0.7,1.6,1.6,1.6h1c1.6,0,2.9,1.3,2.9,2.9
									v1C7.6,12.5,6.3,13.8,4.7,13.8z"/>
							</g>
						</g>
						<g id="Grupo_2144" transform="translate(3.074 13.66)">
							<path id="Caminho_2126" class="st7" d="M1.3,3.5c-0.4,0-0.6-0.3-0.6-0.6l0,0V1.4c0-0.4,0.3-0.7,0.6-0.7S1.9,1,1.9,1.3
								c0,0,0,0,0,0v1.5C1.9,3.3,1.6,3.5,1.3,3.5z"/>
						</g>
						<g id="Grupo_2145" transform="translate(3.074)">
							<path id="Caminho_2127" class="st7" d="M1.3,4.5c-0.4,0-0.6-0.3-0.6-0.6l0,0V2.3c0-0.4,0.3-0.7,0.6-0.7
								c0.4,0,0.7,0.3,0.7,0.6c0,0,0,0,0,0v1.5C1.9,4.2,1.6,4.5,1.3,4.5C1.3,4.5,1.3,4.5,1.3,4.5z"/>
						</g>
					</g>
					<g id="Grupo_2151" transform="translate(130.39 35.639)">
						<g id="Grupo_2148" transform="translate(0 1.741)">
							<g id="Grupo_2147">
								<path id="Caminho_2128" class="st7" d="M1.1,13.8h-3.2c-0.4,0-0.7-0.3-0.7-0.6s0.3-0.7,0.6-0.7c0,0,0,0,0,0h3.2
									c0.9,0,1.6-0.7,1.6-1.6v-1c0-0.9-0.7-1.6-1.6-1.6h-1c-1.6,0-2.9-1.3-2.9-2.9v-1c0-1.6,1.3-2.9,2.9-2.9h3.2
									c0.4,0,0.7,0.3,0.7,0.6c0,0.4-0.3,0.7-0.6,0.7c0,0,0,0,0,0H0.2c-0.9,0-1.6,0.7-1.6,1.6v1c0,0.9,0.7,1.6,1.6,1.6h1
									C2.7,7.1,4,8.4,4,10v1C4,12.5,2.7,13.8,1.1,13.8z"/>
							</g>
						</g>
						<g id="Grupo_2149" transform="translate(3.075 13.66)">
							<path id="Caminho_2129" class="st7" d="M-2.3,3.5C-2.7,3.5-3,3.3-3,2.9l0,0V1.4c0-0.4,0.3-0.6,0.7-0.6C-2,0.8-1.7,1-1.7,1.4
								v1.5C-1.7,3.3-2,3.5-2.3,3.5z"/>
						</g>
						<g id="Grupo_2150" transform="translate(3.075)">
							<path id="Caminho_2130" class="st7" d="M-2.3,4.5C-2.7,4.5-3,4.2-3,3.8l0,0V2.3c0-0.4,0.3-0.6,0.7-0.6C-2,1.7-1.7,2-1.7,2.3
								v1.5C-1.7,4.2-2,4.5-2.3,4.5C-2.3,4.5-2.3,4.5-2.3,4.5z"/>
						</g>
					</g>
					<g id="Grupo_2156" transform="translate(182.749 35.639)">
						<g id="Grupo_2153" transform="translate(0 1.741)">
							<g id="Grupo_2152">
								<path id="Caminho_2131" class="st7" d="M-2.5,13.8h-3.2c-0.4,0-0.6-0.3-0.6-0.7c0-0.3,0.3-0.6,0.6-0.6h3.2
									c0.9,0,1.6-0.7,1.6-1.6v-1c0-0.9-0.7-1.6-1.6-1.6h-1C-5,8.3-6.3,7-6.3,5.4v-1c0-1.6,1.3-2.9,2.9-2.9h3.2
									c0.4,0,0.7,0.3,0.7,0.6S0.2,2.8-0.1,2.8c0,0,0,0,0,0h-3.2c-0.9,0-1.6,0.7-1.6,1.6v1c0,0.9,0.7,1.6,1.6,1.6h1
									c1.6,0,2.9,1.3,2.9,2.9v1C0.4,12.5-0.9,13.8-2.5,13.8z"/>
							</g>
						</g>
						<g id="Grupo_2154" transform="translate(3.075 13.66)">
							<path id="Caminho_2132" class="st7" d="M-5.9,3.5c-0.4,0-0.6-0.3-0.6-0.6l0,0V1.4c0-0.4,0.3-0.7,0.6-0.7
								c0.4,0,0.7,0.3,0.7,0.6c0,0,0,0,0,0v1.5C-5.3,3.3-5.6,3.5-5.9,3.5z"/>
						</g>
						<g id="Grupo_2155" transform="translate(3.075)">
							<path id="Caminho_2133" class="st7" d="M-5.9,4.5c-0.4,0-0.6-0.3-0.6-0.6l0,0V2.3c0-0.4,0.3-0.7,0.6-0.7
								c0.4,0,0.7,0.3,0.7,0.6c0,0,0,0,0,0v1.5C-5.3,4.2-5.6,4.5-5.9,4.5z"/>
						</g>
					</g>
					<g id="Grupo_2177" transform="translate(38.906 18.083)">
						<g id="Grupo_2161">
							<g id="Grupo_2158" transform="translate(0 1.742)">
								<g id="Grupo_2157">
									<path id="Caminho_2134" class="st7" d="M7.4,15.1H4.2c-0.4,0-0.6-0.3-0.6-0.7c0-0.3,0.3-0.6,0.6-0.6h3.2
										C8.3,13.8,9,13,9,12.1v-1c0-0.9-0.7-1.6-1.6-1.6h-1c-1.6,0-2.9-1.3-2.9-2.9v-1c0-1.6,1.3-2.9,2.9-2.9h3.2
										c0.4,0,0.6,0.3,0.6,0.7C10.3,3.8,10,4,9.7,4H6.5C5.6,4,4.8,4.8,4.8,5.7v1c0,0.9,0.7,1.6,1.6,1.6h1c1.6,0,2.9,1.3,2.9,2.9v1
										C10.3,13.7,9,15.1,7.4,15.1z"/>
								</g>
							</g>
							<g id="Grupo_2159" transform="translate(3.075 13.66)">
								<path id="Caminho_2135" class="st7" d="M4,4.8c-0.4,0-0.6-0.3-0.6-0.6l0,0V2.6C3.3,2.2,3.6,2,4,2c0.3,0,0.6,0.3,0.6,0.6v1.5
									C4.6,4.5,4.3,4.8,4,4.8z"/>
							</g>
							<g id="Grupo_2160" transform="translate(3.075)">
								<path id="Caminho_2136" class="st7" d="M4,5.7C3.6,5.7,3.3,5.4,3.3,5c0,0,0,0,0,0V3.5c0-0.4,0.3-0.6,0.7-0.6
									c0.3,0,0.6,0.3,0.6,0.6V5C4.6,5.4,4.3,5.7,4,5.7z"/>
							</g>
						</g>
						<g id="Grupo_2166" transform="translate(52.358)">
							<g id="Grupo_2163" transform="translate(0 1.742)">
								<g id="Grupo_2162">
									<path id="Caminho_2137" class="st7" d="M3.8,15.1H0.6c-0.4,0-0.7-0.3-0.7-0.6c0-0.4,0.3-0.7,0.6-0.7c0,0,0,0,0,0h3.2
										c0.9,0,1.6-0.7,1.6-1.6v-1c0-0.9-0.7-1.6-1.6-1.6h-1c-1.6,0-2.9-1.3-2.9-2.9v-1c0-1.6,1.3-2.9,2.9-2.9h3.2
										c0.4,0,0.7,0.3,0.7,0.6C6.8,3.7,6.5,4,6.1,4c0,0,0,0,0,0H2.9C2,4.1,1.2,4.8,1.2,5.7v1c0,0.9,0.7,1.6,1.6,1.6h1
										c1.6,0,2.9,1.3,2.9,2.9v1C6.7,13.7,5.4,15,3.8,15.1z"/>
								</g>
							</g>
							<g id="Grupo_2164" transform="translate(3.075 13.66)">
								<path id="Caminho_2138" class="st7" d="M0.4,4.8C0,4.8-0.3,4.5-0.3,4.1l0,0V2.6c0-0.4,0.3-0.7,0.6-0.7C0.7,1.9,1,2.2,1,2.5
									c0,0,0,0,0,0v1.5C1,4.5,0.7,4.8,0.4,4.8z"/>
							</g>
							<g id="Grupo_2165" transform="translate(3.075)">
								<path id="Caminho_2139" class="st7" d="M0.4,5.7C0,5.7-0.3,5.4-0.3,5c0,0,0,0,0,0V3.5c0-0.4,0.3-0.6,0.7-0.6
									C0.7,2.9,1,3.2,1,3.5V5C1,5.4,0.7,5.7,0.4,5.7z"/>
							</g>
						</g>
						<g id="Grupo_2171" transform="translate(104.717)">
							<g id="Grupo_2168" transform="translate(0 1.742)">
								<g id="Grupo_2167">
									<path id="Caminho_2140" class="st7" d="M0.2,15.1H-3c-0.4,0-0.6-0.3-0.6-0.7c0-0.3,0.3-0.6,0.6-0.6h3.2
										c0.9,0,1.6-0.7,1.6-1.6v-1c0-0.9-0.7-1.6-1.6-1.6h-1c-1.6,0-2.9-1.3-2.9-2.9v-1c0-1.6,1.3-2.9,2.9-2.9h3.2
										c0.4,0,0.6,0.3,0.6,0.7C3.1,3.8,2.8,4,2.5,4h-3.2c-0.9,0-1.6,0.7-1.6,1.6v1c0,0.9,0.7,1.6,1.6,1.6h1c1.6,0,2.9,1.3,2.9,2.9
										v1C3.1,13.7,1.8,15,0.2,15.1z"/>
								</g>
							</g>
							<g id="Grupo_2169" transform="translate(3.075 13.66)">
								<path id="Caminho_2141" class="st7" d="M-3.2,4.8c-0.4,0-0.6-0.3-0.6-0.6c0,0,0,0,0,0V2.6C-3.9,2.2-3.6,2-3.2,2
									c0.3,0,0.6,0.3,0.6,0.6v1.5C-2.6,4.5-2.9,4.8-3.2,4.8z"/>
							</g>
							<g id="Grupo_2170" transform="translate(3.075)">
								<path id="Caminho_2142" class="st7" d="M-3.2,5.7c-0.4,0-0.6-0.3-0.6-0.6c0,0,0,0,0,0V3.5c0-0.4,0.3-0.7,0.6-0.7
									c0.4,0,0.7,0.3,0.7,0.6c0,0,0,0,0,0V5C-2.6,5.4-2.9,5.7-3.2,5.7z"/>
							</g>
						</g>
						<g id="Grupo_2176" transform="translate(157.076)">
							<g id="Grupo_2173" transform="translate(0 1.742)">
								<g id="Grupo_2172">
									<path id="Caminho_2143" class="st7" d="M-3.4,15.1h-3.2c-0.4,0-0.7-0.3-0.7-0.6c0-0.4,0.3-0.7,0.6-0.7c0,0,0,0,0,0h3.2
										c0.9,0,1.6-0.7,1.6-1.6v-1c0-0.9-0.7-1.6-1.6-1.6h-1c-1.6,0-2.9-1.3-2.9-2.9v-1c0-1.6,1.3-2.9,2.9-2.9h3.2
										c0.4,0,0.6,0.3,0.6,0.7C-0.5,3.8-0.8,4-1.1,4h-3.2C-5.2,4-6,4.8-6,5.7v1c0,0.9,0.7,1.6,1.6,1.6h1c1.6,0,2.9,1.3,2.9,2.9v1
										C-0.5,13.7-1.8,15-3.4,15.1z"/>
								</g>
							</g>
							<g id="Grupo_2174" transform="translate(3.075 13.66)">
								<path id="Caminho_2144" class="st7" d="M-6.8,4.8c-0.4,0-0.6-0.3-0.6-0.6c0,0,0,0,0,0V2.6c0-0.4,0.3-0.7,0.6-0.7
									c0.4,0,0.7,0.3,0.7,0.6c0,0,0,0,0,0v1.5C-6.2,4.5-6.5,4.8-6.8,4.8z"/>
							</g>
							<g id="Grupo_2175" transform="translate(3.075)">
								<path id="Caminho_2145" class="st7" d="M-6.8,5.7c-0.4,0-0.6-0.3-0.6-0.6c0,0,0,0,0,0V3.5c0-0.4,0.3-0.7,0.6-0.7
									c0.4,0,0.7,0.3,0.7,0.6c0,0,0,0,0,0V5C-6.2,5.4-6.5,5.7-6.8,5.7z"/>
							</g>
						</g>
					</g>
					<g id="Grupo_2198" transform="translate(38.906 54.138)">
						<g id="Grupo_2182">
							<g id="Grupo_2179" transform="translate(0 1.742)">
								<g id="Grupo_2178">
									<path id="Caminho_2146" class="st7" d="M7.4,12.6H4.2c-0.4,0-0.6-0.3-0.6-0.7c0-0.3,0.3-0.6,0.6-0.6h3.2
										c0.9,0,1.6-0.7,1.6-1.6v-1c0-0.9-0.7-1.6-1.6-1.6h-1c-1.6,0-2.9-1.3-2.9-2.9v-1c0-1.6,1.3-2.9,2.9-2.9h3.2
										c0.4,0,0.6,0.3,0.6,0.7c0,0.3-0.3,0.6-0.6,0.6H6.5c-0.9,0-1.6,0.7-1.6,1.6v1c0,0.9,0.7,1.6,1.6,1.6h1
										c1.6,0,2.9,1.3,2.9,2.9v1C10.3,11.3,9,12.6,7.4,12.6z"/>
								</g>
							</g>
							<g id="Grupo_2180" transform="translate(3.075 13.659)">
								<path id="Caminho_2147" class="st7" d="M4,2.3C3.6,2.3,3.3,2,3.3,1.6l0,0V0.1c0-0.4,0.3-0.6,0.7-0.6c0.3,0,0.6,0.3,0.6,0.6
									v1.5C4.6,2,4.3,2.3,4,2.3z"/>
							</g>
							<g id="Grupo_2181" transform="translate(3.075)">
								<path id="Caminho_2148" class="st7" d="M4,3.2c-0.4,0-0.6-0.3-0.6-0.6l0,0V1c0-0.4,0.3-0.6,0.7-0.6c0.3,0,0.6,0.3,0.6,0.6
									v1.5C4.6,2.9,4.3,3.2,4,3.2z"/>
							</g>
						</g>
						<g id="Grupo_2187" transform="translate(52.358)">
							<g id="Grupo_2184" transform="translate(0 1.742)">
								<g id="Grupo_2183">
									<path id="Caminho_2149" class="st7" d="M3.8,12.6H0.6c-0.4,0-0.7-0.3-0.7-0.6s0.3-0.7,0.6-0.7c0,0,0,0,0,0h3.2
										c0.9,0,1.6-0.7,1.6-1.6v-1c0-0.9-0.7-1.6-1.6-1.6h-1c-1.6,0-2.9-1.3-2.9-2.9v-1c0-1.6,1.3-2.9,2.9-2.9h3.2
										c0.4,0,0.7,0.3,0.7,0.6c0,0.4-0.3,0.7-0.6,0.7c0,0,0,0,0,0H2.9C2,1.6,1.2,2.3,1.2,3.2v1c0,0.9,0.7,1.6,1.6,1.6h1
										c1.6,0,2.9,1.3,2.9,2.9v1C6.7,11.3,5.4,12.6,3.8,12.6z"/>
								</g>
							</g>
							<g id="Grupo_2185" transform="translate(3.075 13.659)">
								<path id="Caminho_2150" class="st7" d="M0.4,2.3C0,2.3-0.3,2-0.3,1.6l0,0V0.1c0-0.4,0.3-0.7,0.6-0.7S1-0.3,1,0.1
									c0,0,0,0,0,0v1.5C1,2,0.7,2.3,0.4,2.3z"/>
							</g>
							<g id="Grupo_2186" transform="translate(3.075)">
								<path id="Caminho_2151" class="st7" d="M0.4,3.2C0,3.2-0.3,2.9-0.3,2.5l0,0V1c0-0.4,0.3-0.6,0.7-0.6C0.7,0.4,1,0.7,1,1v1.5
									C1,2.9,0.7,3.2,0.4,3.2C0.4,3.2,0.4,3.2,0.4,3.2z"/>
							</g>
						</g>
						<g id="Grupo_2192" transform="translate(104.717)">
							<g id="Grupo_2189" transform="translate(0 1.742)">
								<g id="Grupo_2188">
									<path id="Caminho_2152" class="st7" d="M0.2,12.6H-3c-0.4,0-0.7-0.3-0.7-0.6c0-0.4,0.3-0.7,0.6-0.7c0,0,0,0,0,0h3.2
										c0.9,0,1.6-0.7,1.6-1.6v-1c0-0.9-0.7-1.6-1.6-1.6h-1c-1.6,0-2.9-1.3-2.9-2.9v-1c0-1.6,1.3-2.9,2.9-2.9h3.2
										c0.4,0,0.6,0.3,0.6,0.7c0,0.3-0.3,0.6-0.6,0.6h-3.2c-0.9,0-1.6,0.7-1.6,1.6v1c0,0.9,0.7,1.6,1.6,1.6h1
										c1.6,0,2.9,1.3,2.9,2.9v1C3.1,11.3,1.8,12.6,0.2,12.6z"/>
								</g>
							</g>
							<g id="Grupo_2190" transform="translate(3.075 13.659)">
								<path id="Caminho_2153" class="st7" d="M-3.2,2.3c-0.4,0-0.6-0.3-0.6-0.6c0,0,0,0,0,0V0.1c0-0.4,0.3-0.6,0.7-0.6
									c0.3,0,0.6,0.3,0.6,0.6v1.5C-2.6,2-2.9,2.3-3.2,2.3z"/>
							</g>
							<g id="Grupo_2191" transform="translate(3.075)">
								<path id="Caminho_2154" class="st7" d="M-3.2,3.2c-0.4,0-0.6-0.3-0.6-0.6c0,0,0,0,0,0V1c0-0.4,0.3-0.6,0.7-0.6
									c0.3,0,0.6,0.3,0.6,0.6v1.5C-2.6,2.9-2.9,3.2-3.2,3.2z"/>
							</g>
						</g>
						<g id="Grupo_2197" transform="translate(157.076)">
							<g id="Grupo_2194" transform="translate(0 1.742)">
								<g id="Grupo_2193">
									<path id="Caminho_2155" class="st7" d="M-3.4,12.6h-3.2c-0.4,0-0.7-0.3-0.7-0.6c0-0.4,0.3-0.7,0.6-0.7c0,0,0,0,0,0h3.2
										c0.9,0,1.6-0.7,1.6-1.6v-1c0-0.9-0.7-1.6-1.6-1.6h-1c-1.6,0-2.9-1.3-2.9-2.9v-1c0-1.6,1.3-2.9,2.9-2.9h3.2
										c0.4,0,0.6,0.3,0.6,0.7c0,0.3-0.3,0.6-0.6,0.6h-3.2C-5.2,1.6-6,2.3-6,3.2v1c0,0.9,0.7,1.6,1.6,1.6h1c1.6,0,2.9,1.3,2.9,2.9
										v1C-0.5,11.3-1.8,12.6-3.4,12.6z"/>
								</g>
							</g>
							<g id="Grupo_2195" transform="translate(3.075 13.659)">
								<path id="Caminho_2156" class="st7" d="M-6.8,2.3c-0.4,0-0.6-0.3-0.6-0.6c0,0,0,0,0,0V0.1c0-0.4,0.3-0.7,0.6-0.7
									c0.4,0,0.7,0.3,0.7,0.6c0,0,0,0,0,0v1.5C-6.2,2-6.5,2.3-6.8,2.3z"/>
							</g>
							<g id="Grupo_2196" transform="translate(3.075)">
								<path id="Caminho_2157" class="st7" d="M-6.8,3.2c-0.4,0-0.6-0.3-0.6-0.6c0,0,0,0,0,0V1c0-0.4,0.3-0.7,0.6-0.7
									c0.4,0,0.7,0.3,0.7,0.6c0,0,0,0,0,0v1.5C-6.2,2.9-6.5,3.2-6.8,3.2z"/>
							</g>
						</g>
					</g>
					<g id="Grupo_2219" transform="translate(25.673 72.047)">
						<g id="Grupo_2203">
							<g id="Grupo_2200" transform="translate(0 1.742)">
								<g id="Grupo_2199">
									<path id="Caminho_2158" class="st7" d="M8.3,11.3H5.1c-0.4,0-0.6-0.3-0.6-0.7c0-0.3,0.3-0.6,0.6-0.6h3.2
										c0.9,0,1.6-0.7,1.6-1.6v-1c0-0.9-0.7-1.6-1.6-1.6h-1c-1.6,0-2.9-1.3-2.9-2.9V2c0-1.6,1.3-2.9,2.9-2.9h3.2
										c0.4,0,0.7,0.3,0.7,0.6S11,0.3,10.6,0.3c0,0,0,0,0,0H7.4C6.5,0.3,5.7,1.1,5.7,2v1c0,0.9,0.7,1.6,1.6,1.6h1
										c1.6,0,2.9,1.3,2.9,2.9v1C11.2,10,9.9,11.3,8.3,11.3z"/>
								</g>
							</g>
							<g id="Grupo_2201" transform="translate(3.075 13.66)">
								<path id="Caminho_2159" class="st7" d="M4.9,1C4.5,1,4.2,0.8,4.2,0.4c0,0,0,0,0,0v-1.5c0-0.4,0.3-0.6,0.7-0.6
									c0.3,0,0.6,0.3,0.6,0.6v1.5C5.5,0.8,5.2,1,4.9,1C4.9,1,4.9,1,4.9,1z"/>
							</g>
							<g id="Grupo_2202" transform="translate(3.075)">
								<path id="Caminho_2160" class="st7" d="M4.9,2C4.5,2,4.2,1.7,4.2,1.3c0,0,0,0,0,0v-1.5c0-0.4,0.3-0.6,0.7-0.6
									c0.3,0,0.6,0.3,0.6,0.6v1.5C5.5,1.7,5.2,2,4.9,2C4.9,2,4.9,2,4.9,2z"/>
							</g>
						</g>
						<g id="Grupo_2208" transform="translate(52.359)">
							<g id="Grupo_2205" transform="translate(0 1.742)">
								<g id="Grupo_2204">
									<path id="Caminho_2161" class="st7" d="M4.7,11.3H1.5c-0.4,0-0.6-0.3-0.6-0.7c0-0.3,0.3-0.6,0.6-0.6h3.2
										c0.9,0,1.6-0.7,1.6-1.6v-1c0-0.9-0.7-1.6-1.6-1.6h-1c-1.6,0-2.9-1.3-2.9-2.9V2c0-1.6,1.3-2.9,2.9-2.9H7
										c0.4,0,0.7,0.3,0.7,0.6C7.7,0,7.4,0.3,7,0.3c0,0,0,0,0,0H3.8C2.9,0.3,2.1,1.1,2.1,2v1c0,0.9,0.7,1.6,1.6,1.6h1
										c1.6,0,2.9,1.3,2.9,2.9v1C7.6,10,6.3,11.3,4.7,11.3z"/>
								</g>
							</g>
							<g id="Grupo_2206" transform="translate(3.074 13.66)">
								<path id="Caminho_2162" class="st7" d="M1.3,1C0.9,1,0.6,0.8,0.6,0.4c0,0,0,0,0,0v-1.5c0-0.4,0.3-0.7,0.6-0.7
									c0.4,0,0.7,0.3,0.7,0.6c0,0,0,0,0,0v1.5C1.9,0.8,1.6,1,1.3,1C1.3,1,1.3,1,1.3,1z"/>
							</g>
							<g id="Grupo_2207" transform="translate(3.074)">
								<path id="Caminho_2163" class="st7" d="M1.3,2C0.9,2,0.6,1.7,0.6,1.3c0,0,0,0,0,0v-1.5c0-0.4,0.3-0.6,0.7-0.6
									c0.3,0,0.6,0.3,0.6,0.6v1.5C1.9,1.7,1.6,2,1.3,2C1.3,2,1.3,2,1.3,2z"/>
							</g>
						</g>
						<g id="Grupo_2213" transform="translate(104.717)">
							<g id="Grupo_2210" transform="translate(0 1.742)">
								<g id="Grupo_2209">
									<path id="Caminho_2164" class="st7" d="M1.1,11.3h-3.2c-0.4,0-0.6-0.3-0.6-0.7c0-0.3,0.3-0.6,0.6-0.6h3.2
										c0.9,0,1.6-0.7,1.6-1.6v-1c0-0.9-0.7-1.6-1.6-1.6h-1c-1.6,0-2.9-1.3-2.9-2.9V2c0-1.6,1.3-2.9,2.9-2.9h3.2
										C3.8-0.9,4-0.6,4-0.3c0,0.3-0.3,0.6-0.6,0.6H0.2c-0.9,0-1.6,0.7-1.6,1.6v1c0,0.9,0.7,1.6,1.6,1.6h1C2.7,4.6,4,5.9,4,7.5v1
										C4,10,2.7,11.3,1.1,11.3z"/>
								</g>
							</g>
							<g id="Grupo_2211" transform="translate(3.075 13.66)">
								<path id="Caminho_2165" class="st7" d="M-2.3,1C-2.7,1-3,0.8-3,0.4c0,0,0,0,0,0v-1.5c0-0.4,0.3-0.7,0.6-0.7
									c0.4,0,0.7,0.3,0.7,0.6c0,0,0,0,0,0v1.5C-1.7,0.8-2,1-2.3,1C-2.3,1-2.3,1-2.3,1z"/>
							</g>
							<g id="Grupo_2212" transform="translate(3.075)">
								<path id="Caminho_2166" class="st7" d="M-2.3,2C-2.7,2-3,1.7-3,1.3c0,0,0,0,0,0v-1.5c0-0.4,0.3-0.7,0.6-0.7s0.7,0.3,0.7,0.6
									c0,0,0,0,0,0v1.5C-1.7,1.7-2,2-2.3,2C-2.3,2-2.3,2-2.3,2z"/>
							</g>
						</g>
						<g id="Grupo_2218" transform="translate(157.076)">
							<g id="Grupo_2215" transform="translate(0 1.742)">
								<g id="Grupo_2214">
									<path id="Caminho_2167" class="st7" d="M-2.5,11.3h-3.2c-0.4,0-0.6-0.3-0.6-0.7c0-0.3,0.3-0.6,0.6-0.6h3.2
										c0.9,0,1.6-0.7,1.6-1.6v-1c0-0.9-0.7-1.6-1.6-1.6h-1c-1.6,0-2.9-1.3-2.9-2.9V2c0-1.6,1.3-2.9,2.9-2.9h3.2
										c0.4,0,0.6,0.3,0.6,0.7c0,0.3-0.3,0.6-0.6,0.6h-3.2c-0.9,0-1.6,0.7-1.6,1.6v1c0,0.9,0.7,1.6,1.6,1.6h1
										c1.6,0,2.9,1.3,2.9,2.9v1C0.4,10-0.9,11.3-2.5,11.3z"/>
								</g>
							</g>
							<g id="Grupo_2216" transform="translate(3.075 13.66)">
								<path id="Caminho_2168" class="st7" d="M-5.9,1c-0.4,0-0.6-0.3-0.6-0.6c0,0,0,0,0,0v-1.5c0-0.4,0.3-0.7,0.6-0.7
									c0.4,0,0.7,0.3,0.7,0.6c0,0,0,0,0,0v1.5C-5.3,0.8-5.6,1-5.9,1C-5.9,1-5.9,1-5.9,1z"/>
							</g>
							<g id="Grupo_2217" transform="translate(3.075)">
								<path id="Caminho_2169" class="st7" d="M-5.9,2c-0.4,0-0.6-0.3-0.6-0.6c0,0,0,0,0,0v-1.5c0-0.4,0.3-0.7,0.6-0.7
									c0.4,0,0.7,0.3,0.7,0.6c0,0,0,0,0,0v1.5C-5.3,1.7-5.6,2-5.9,2C-5.9,2-5.9,2-5.9,2z"/>
							</g>
						</g>
					</g>
					<g id="Grupo_2240" transform="translate(38.448 90.624)">
						<g id="Grupo_2224">
							<g id="Grupo_2221" transform="translate(0 1.742)">
								<g id="Grupo_2220">
									<path id="Caminho_2170" class="st7" d="M7.4,10.1H4.2c-0.4,0-0.6-0.3-0.6-0.7c0-0.3,0.3-0.6,0.6-0.6h3.2
										c0.9,0,1.6-0.7,1.6-1.6v-1c0-0.9-0.7-1.6-1.6-1.6h-1c-1.6,0-2.9-1.3-2.9-2.9v-1c0-1.6,1.3-2.9,2.9-2.9h3.2
										c0.4,0,0.7,0.3,0.7,0.6S10.1-1,9.8-0.9c0,0,0,0,0,0H6.5c-0.9,0-1.6,0.7-1.6,1.6v1c0,0.9,0.7,1.6,1.6,1.6h1
										c1.6,0,2.9,1.3,2.9,2.9v1C10.4,8.8,9.1,10.1,7.4,10.1z"/>
								</g>
							</g>
							<g id="Grupo_2222" transform="translate(3.075 13.66)">
								<path id="Caminho_2171" class="st7" d="M4-0.2c-0.4,0-0.6-0.3-0.6-0.6c0,0,0,0,0,0v-1.5c0-0.4,0.3-0.7,0.6-0.7
									c0.4,0,0.7,0.3,0.7,0.6c0,0,0,0,0,0v1.5C4.6-0.5,4.4-0.2,4-0.2C4-0.2,4-0.2,4-0.2z"/>
							</g>
							<g id="Grupo_2223" transform="translate(3.075)">
								<path id="Caminho_2172" class="st7" d="M4,0.7C3.6,0.7,3.4,0.4,3.4,0c0,0,0,0,0,0v-1.5c0-0.4,0.3-0.6,0.7-0.6
									c0.3,0,0.6,0.3,0.6,0.6V0C4.6,0.4,4.4,0.7,4,0.7C4,0.7,4,0.7,4,0.7z"/>
							</g>
						</g>
						<g id="Grupo_2229" transform="translate(52.359)">
							<g id="Grupo_2226" transform="translate(0 1.742)">
								<g id="Grupo_2225">
									<path id="Caminho_2173" class="st7" d="M3.8,10.1H0.6c-0.4,0-0.7-0.3-0.7-0.6c0-0.4,0.3-0.7,0.6-0.7c0,0,0,0,0,0h3.2
										c0.9,0,1.6-0.7,1.6-1.6v-1c0-0.9-0.7-1.6-1.6-1.6h-1C1.3,4.6,0,3.3,0,1.7v-1c0-1.6,1.3-2.9,2.9-2.9h3.2
										c0.4,0,0.6,0.3,0.6,0.7c0,0.3-0.3,0.6-0.6,0.6H2.9C2-0.9,1.3-0.2,1.3,0.7v1c0,0.9,0.7,1.6,1.6,1.6h1c1.6,0,2.9,1.3,2.9,2.9
										v1C6.8,8.8,5.5,10.1,3.8,10.1z"/>
								</g>
							</g>
							<g id="Grupo_2227" transform="translate(3.075 13.66)">
								<path id="Caminho_2174" class="st7" d="M0.4-0.2c-0.4,0-0.6-0.3-0.6-0.6c0,0,0,0,0,0v-1.5C-0.2-2.8,0.1-3,0.4-3
									C0.8-3,1-2.7,1-2.4v1.5C1-0.5,0.8-0.2,0.4-0.2C0.4-0.2,0.4-0.2,0.4-0.2z"/>
							</g>
							<g id="Grupo_2228" transform="translate(3.075)">
								<path id="Caminho_2175" class="st7" d="M0.4,0.7C0.1,0.7-0.2,0.4-0.2,0c0,0,0,0,0,0v-1.5c0-0.4,0.3-0.7,0.6-0.7
									C0.7-2.1,1-1.9,1-1.5c0,0,0,0,0,0V0C1,0.4,0.8,0.7,0.4,0.7C0.4,0.7,0.4,0.7,0.4,0.7z"/>
							</g>
						</g>
						<g id="Grupo_2234" transform="translate(104.717)">
							<g id="Grupo_2231" transform="translate(0 1.742)">
								<g id="Grupo_2230">
									<path id="Caminho_2176" class="st7" d="M0.3,10.1H-3c-0.4,0-0.6-0.3-0.6-0.7c0-0.3,0.3-0.6,0.6-0.6h3.2
										c0.9,0,1.6-0.7,1.6-1.6v-1c0-0.9-0.7-1.6-1.6-1.6h-1c-1.6,0-2.9-1.3-2.9-2.9v-1c0-1.6,1.3-2.9,2.9-2.9h3.2
										c0.4,0,0.6,0.3,0.6,0.7c0,0.3-0.3,0.6-0.6,0.6h-3.2c-0.9,0-1.6,0.7-1.6,1.6v1c0,0.9,0.7,1.6,1.6,1.6h1
										c1.6,0,2.9,1.3,2.9,2.9v1C3.2,8.8,1.9,10.1,0.3,10.1z"/>
								</g>
							</g>
							<g id="Grupo_2232" transform="translate(3.075 13.66)">
								<path id="Caminho_2177" class="st7" d="M-3.2-0.2c-0.4,0-0.6-0.3-0.6-0.6c0,0,0,0,0,0v-1.5c0-0.4,0.3-0.7,0.6-0.7
									c0.4,0,0.7,0.3,0.7,0.6c0,0,0,0,0,0v1.5C-2.6-0.5-2.8-0.2-3.2-0.2C-3.2-0.2-3.2-0.2-3.2-0.2z"/>
							</g>
							<g id="Grupo_2233" transform="translate(3.075)">
								<path id="Caminho_2178" class="st7" d="M-3.2,0.7c-0.4,0-0.6-0.3-0.6-0.6c0,0,0,0,0,0v-1.5c0-0.4,0.3-0.6,0.7-0.6
									c0.3,0,0.6,0.3,0.6,0.6V0C-2.6,0.4-2.8,0.7-3.2,0.7C-3.2,0.7-3.2,0.7-3.2,0.7z"/>
							</g>
						</g>
						<g id="Grupo_2239" transform="translate(157.076)">
							<g id="Grupo_2236" transform="translate(0 1.742)">
								<g id="Grupo_2235">
									<path id="Caminho_2179" class="st7" d="M-3.3,10.1h-3.2c-0.4,0-0.7-0.3-0.7-0.6c0-0.4,0.3-0.7,0.6-0.7c0,0,0,0,0,0h3.2
										c0.9,0,1.6-0.7,1.6-1.6v-1c0-0.9-0.7-1.6-1.6-1.6h-1c-1.6,0-2.9-1.3-2.9-2.9v-1c0-1.6,1.3-2.9,2.9-2.9h3.2
										c0.4,0,0.6,0.3,0.6,0.7c0,0.3-0.3,0.6-0.6,0.6h-3.2c-0.9,0-1.6,0.7-1.6,1.6v1c0,0.9,0.7,1.6,1.6,1.6h1
										c1.6,0,2.9,1.3,2.9,2.9v1C-0.4,8.8-1.7,10.1-3.3,10.1z"/>
								</g>
							</g>
							<g id="Grupo_2237" transform="translate(3.075 13.66)">
								<path id="Caminho_2180" class="st7" d="M-6.8-0.2c-0.4,0-0.6-0.3-0.6-0.6c0,0,0,0,0,0v-1.5C-7.4-2.8-7.1-3-6.8-3
									c0.3,0,0.6,0.3,0.6,0.6v1.5C-6.1-0.5-6.4-0.2-6.8-0.2C-6.8-0.2-6.8-0.2-6.8-0.2z"/>
							</g>
							<g id="Grupo_2238" transform="translate(3.075)">
								<path id="Caminho_2181" class="st7" d="M-6.8,0.7c-0.4,0-0.6-0.3-0.6-0.6c0,0,0,0,0,0v-1.5c0-0.4,0.3-0.6,0.7-0.6
									c0.3,0,0.6,0.3,0.6,0.6V0C-6.1,0.4-6.4,0.7-6.8,0.7C-6.8,0.7-6.8,0.7-6.8,0.7z"/>
							</g>
						</g>
					</g>
					<g id="Grupo_2261" transform="translate(25.673)">
						<g id="Grupo_2245">
							<g id="Grupo_2242" transform="translate(0 1.742)">
								<g id="Grupo_2241">
									<path id="Caminho_2182" class="st7" d="M8.3,16.3H5.1c-0.4,0-0.6-0.3-0.6-0.7c0-0.3,0.3-0.6,0.6-0.6h3.2
										c0.9,0,1.6-0.7,1.6-1.6v-1c0-0.9-0.7-1.6-1.6-1.6h-1c-1.6,0-2.9-1.3-2.9-2.9v-1C4.4,5.3,5.8,4,7.4,4h3.2
										c0.4,0,0.7,0.3,0.7,0.6c0,0.4-0.3,0.7-0.6,0.7c0,0,0,0,0,0H7.4C6.5,5.3,5.7,6,5.7,6.9v1c0,0.9,0.7,1.6,1.6,1.6h1
										c1.6,0,2.9,1.3,2.9,2.9v1C11.2,15,9.9,16.3,8.3,16.3z"/>
								</g>
							</g>
							<g id="Grupo_2243" transform="translate(3.075 13.66)">
								<path id="Caminho_2183" class="st7" d="M4.9,6C4.5,6,4.2,5.7,4.2,5.4l0,0V3.8c0-0.4,0.3-0.6,0.7-0.6c0.3,0,0.6,0.3,0.6,0.6
									v1.5C5.5,5.7,5.2,6,4.9,6z"/>
							</g>
							<g id="Grupo_2244" transform="translate(3.075)">
								<path id="Caminho_2184" class="st7" d="M4.9,6.9c-0.4,0-0.6-0.3-0.6-0.6l0,0V4.8c0-0.4,0.3-0.6,0.7-0.6
									c0.3,0,0.6,0.3,0.6,0.6v1.5C5.5,6.6,5.2,6.9,4.9,6.9z"/>
							</g>
						</g>
						<g id="Grupo_2250" transform="translate(52.359)">
							<g id="Grupo_2247" transform="translate(0 1.742)">
								<g id="Grupo_2246">
									<path id="Caminho_2185" class="st7" d="M4.7,16.3H1.5c-0.4,0-0.6-0.3-0.6-0.7c0-0.3,0.3-0.6,0.6-0.6h3.2
										c0.9,0,1.6-0.7,1.6-1.6v-1c0-0.9-0.7-1.6-1.6-1.6h-1c-1.6,0-2.9-1.3-2.9-2.9v-1C0.9,5.3,2.2,4,3.8,4H7
										c0.4,0,0.7,0.3,0.7,0.6C7.7,5,7.4,5.3,7,5.3c0,0,0,0,0,0H3.8C2.9,5.3,2.1,6,2.1,6.9v1c0,0.9,0.7,1.6,1.6,1.6h1
										c1.6,0,2.9,1.3,2.9,2.9v1C7.6,15,6.3,16.3,4.7,16.3z"/>
								</g>
							</g>
							<g id="Grupo_2248" transform="translate(3.074 13.66)">
								<path id="Caminho_2186" class="st7" d="M1.3,6C0.9,6,0.6,5.7,0.6,5.4l0,0V3.8c0-0.4,0.3-0.7,0.6-0.7s0.7,0.3,0.7,0.6
									c0,0,0,0,0,0v1.5C1.9,5.7,1.6,6,1.3,6C1.3,6,1.3,6,1.3,6z"/>
							</g>
							<g id="Grupo_2249" transform="translate(3.074)">
								<path id="Caminho_2187" class="st7" d="M1.3,6.9c-0.4,0-0.6-0.3-0.6-0.6l0,0V4.8c0-0.4,0.3-0.6,0.7-0.6
									c0.3,0,0.6,0.3,0.6,0.6v1.5C1.9,6.6,1.6,6.9,1.3,6.9C1.3,6.9,1.3,6.9,1.3,6.9z"/>
							</g>
						</g>
						<g id="Grupo_2255" transform="translate(104.717)">
							<g id="Grupo_2252" transform="translate(0 1.742)">
								<g id="Grupo_2251">
									<path id="Caminho_2188" class="st7" d="M1.1,16.3h-3.2c-0.4,0-0.6-0.3-0.6-0.7c0-0.3,0.3-0.6,0.6-0.6h3.2
										c0.9,0,1.6-0.7,1.6-1.6v-1c0-0.9-0.7-1.6-1.6-1.6h-1c-1.6,0-2.9-1.3-2.9-2.9v-1C-2.7,5.3-1.4,4,0.2,4h3.2
										C3.8,4,4,4.3,4,4.7C4,5,3.7,5.3,3.4,5.3H0.2c-0.9,0-1.6,0.7-1.6,1.6v1c0,0.9,0.7,1.6,1.6,1.6h1c1.6,0,2.9,1.3,2.9,2.9v1
										C4,15,2.7,16.3,1.1,16.3z"/>
								</g>
							</g>
							<g id="Grupo_2253" transform="translate(3.075 13.66)">
								<path id="Caminho_2189" class="st7" d="M-2.3,6C-2.7,6-3,5.7-3,5.4l0,0V3.8c0-0.4,0.3-0.6,0.7-0.6c0.3,0,0.6,0.3,0.6,0.6
									v1.5C-1.7,5.7-2,6-2.3,6C-2.3,6-2.3,6-2.3,6z"/>
							</g>
							<g id="Grupo_2254" transform="translate(3.075)">
								<path id="Caminho_2190" class="st7" d="M-2.3,6.9C-2.7,6.9-3,6.6-3,6.3l0,0V4.8c0-0.4,0.3-0.6,0.7-0.6
									c0.3,0,0.6,0.3,0.6,0.6v1.5C-1.7,6.6-2,6.9-2.3,6.9C-2.3,6.9-2.3,6.9-2.3,6.9z"/>
							</g>
						</g>
						<g id="Grupo_2260" transform="translate(157.076)">
							<g id="Grupo_2257" transform="translate(0 1.742)">
								<g id="Grupo_2256">
									<path id="Caminho_2191" class="st7" d="M-2.5,16.3h-3.2c-0.4,0-0.6-0.3-0.6-0.7c0-0.3,0.3-0.6,0.6-0.6h3.2
										c0.9,0,1.6-0.7,1.6-1.6v-1c0-0.9-0.7-1.6-1.6-1.6h-1c-1.6,0-2.9-1.3-2.9-2.9v-1C-6.3,5.3-5,4-3.4,4h3.2
										c0.4,0,0.7,0.3,0.7,0.6c0,0.4-0.3,0.7-0.6,0.7c0,0,0,0,0,0h-3.2c-0.9,0-1.6,0.7-1.6,1.6v1c0,0.9,0.7,1.6,1.6,1.6h1
										c1.6,0,2.9,1.3,2.9,2.9v1C0.4,15-0.9,16.3-2.5,16.3z"/>
								</g>
							</g>
							<g id="Grupo_2258" transform="translate(3.075 13.66)">
								<path id="Caminho_2192" class="st7" d="M-5.9,6c-0.4,0-0.6-0.3-0.6-0.6l0,0V3.8c0-0.4,0.3-0.7,0.6-0.7
									c0.4,0,0.7,0.3,0.7,0.6c0,0,0,0,0,0v1.5C-5.3,5.7-5.6,6-5.9,6z"/>
							</g>
							<g id="Grupo_2259" transform="translate(3.075)">
								<path id="Caminho_2193" class="st7" d="M-5.9,6.9c-0.4,0-0.6-0.3-0.6-0.6l0,0V4.8c0-0.4,0.3-0.7,0.6-0.7
									c0.4,0,0.7,0.3,0.7,0.6c0,0,0,0,0,0v1.5C-5.3,6.6-5.6,6.9-5.9,6.9z"/>
							</g>
						</g>
					</g>
				</g>
			</g>
		</g>
	</g>
	<g id="Grupo_2265" transform="translate(-7780.982 1719.544)">
		<circle id="Elipse_132" class="st0" cx="7.5" cy="12.6" r="9"/>
		<path id="Caminho_2195" class="st4" d="M7.5,21.6c5,0,9-4,9-9c0,0,0,0,0,0h-18C-1.5,17.5,2.5,21.6,7.5,21.6z"/>
		<path id="Caminho_2196" class="st0" d="M11.7,12.6c0,2.2-1.8,3.9-3.9,3.9s-3.9-1.8-3.9-3.9s1.8-3.9,3.9-3.9l0,0
			C9.9,8.6,11.7,10.4,11.7,12.6z"/>
	</g>
	<g id="Grupo_2268" transform="translate(-7882.083 1668.692)">
		<path id="Caminho_2197" class="st0" d="M70.8,36.6H7.2c-2,0-3.6-1.6-3.6-3.6l0,0c0-2,1.6-3.6,3.6-3.6h63.6c2,0,3.6,1.6,3.6,3.6
			l0,0l0,0C74.4,34.9,72.8,36.6,70.8,36.6L70.8,36.6z"/>
		<g id="Grupo_2267" transform="translate(8.9 0)">
			<path id="Caminho_2198" class="st8" d="M10.4,26.3l2,10.3h43.8c0.7-3,0.7-6.1,0.1-9.2l-0.8-4.1c-0.4-2.2-1.2-4.4-2.3-6.4L49,17.7
				l2.8-3c-5.1-7.2-14-10.8-22.7-9l-5.8,1.1C23,6.9,22.6,7,22.3,7.1c-5.5,1.5-9.9,5.8-11.5,11.2c-0.7,2.4-0.9,4.9-0.5,7.4
				C10.3,25.9,10.4,26.1,10.4,26.3z"/>
			<path id="Caminho_2199" class="st9" d="M3.5,34.3l2,0.8l-1.7,0.3L4,36.6h44.4c0.4-2.5,0.3-5.1-0.2-7.6l-0.8-4.1
				C45,13.2,34,5.4,22.3,7.1c-0.4,0.1-0.9,0.1-1.3,0.2C8.9,9.7,1,21.5,3.4,33.6L3.5,34.3z"/>
			<path id="Caminho_2200" class="st10" d="M29,36.6l2.3-3.8l3.2-5.4l1.2-2.1l2.6-4.5l1.5-2.6l2.2-3.8c-1.9-2.1-4.1-3.9-6.7-5.1
				l-2.1,3.6L32,15.2l-5.4,9.1l-5.4,9.2l-1.8,3.1H29z"/>
			<g id="Grupo_2266" transform="translate(4.444 6.19)">
				<path id="Caminho_2201" class="st8" d="M3.8,30.4h2.8c0,0,0-0.1,0-0.1l-0.8-4.1C4.1,17.7,9.5,9.5,17.9,7.9
					c8.4-1.7,16.6,3.8,18.2,12.2l0.8,4.1c0.4,2,0.4,4.2,0,6.2h2.8c0.4-2.2,0.4-4.5-0.1-6.7l-0.8-4.1C36.8,9.6,27.1,3.3,17.2,5.4
					C7.5,7.4,1.2,16.9,3,26.7L3.8,30.4z"/>
			</g>
			<path id="Caminho_2202" class="st8" d="M21.1,36.6h5.2l0.5-0.5l1.2,0.5h5.4l-2.5-4.9l5.6-6.6l-8.5,1.3l-4.5-7.3L22,27.7l-8.4,2
				l7.7,3.9L21.1,36.6z"/>
		</g>
	</g>
	<g id="Grupo_2269" transform="translate(-7912.261 1773.13)">
		<circle id="Elipse_133" class="st8" cx="26.3" cy="18.7" r="18"/>
		<circle id="Elipse_134" class="st9" cx="26.3" cy="18.7" r="9.3"/>
		<circle id="Elipse_135" class="st10" cx="26.3" cy="18.7" r="7"/>
	</g>
	<g id="Grupo_2270" transform="translate(-7798.222 1772.05)">
		<circle id="Elipse_136" class="st8" cx="19.5" cy="19.8" r="18"/>
		<circle id="Elipse_137" class="st9" cx="19.5" cy="19.8" r="9.3"/>
		<circle id="Elipse_138" class="st10" cx="19.5" cy="19.8" r="7"/>
	</g>
</g>
</svg>
