<?xml version="1.0" encoding="utf-8"?>
<!-- Generator: Adobe Illustrator 26.5.0, SVG Export Plug-In . SVG Version: 6.00 Build 0)  -->
<svg version="1.1" id="Layer_1" xmlns="http://www.w3.org/2000/svg" xmlns:xlink="http://www.w3.org/1999/xlink" x="0px" y="0px"
	 viewBox="0 0 232 152" style="enable-background:new 0 0 232 152;" xml:space="preserve">
<style type="text/css">
	.st0{fill:#9087F4;}
	.st1{opacity:0.8;fill:#AEA7FA;enable-background:new    ;}
	.st2{fill:#DADAFF;}
	.st3{fill:url(#Elipse_130_00000142168715466128422680000007143440293759076543_);}
	.st4{opacity:0.4;}
	.st5{fill:#FFFFFF;}
	.st6{fill:#FFC587;}
	.st7{fill:#FFA15E;}
	.st8{fill:#AEA7FA;}
	.st9{opacity:0.8;fill:#DADAFF;enable-background:new    ;}
</style>
<g id="Grupo_1987" transform="translate(-581.089 -98.424)">
	<g id="Grupo_2063" transform="translate(743.812 176.381)">
		<rect id="Retângulo_709" x="-35.3" y="-22.7" class="st0" width="85" height="42.2"/>
		<rect id="Retângulo_710" x="-26.1" y="-22.7" class="st0" width="85" height="42.2"/>
		<path id="Caminho_2070" class="st1" d="M54.9-11.9V8.6c-3.5,0.1-6.3,3-6.3,6.6v0.1h-64.4v-0.1c0-3.5-2.8-6.4-6.3-6.6v-20.5
			c3.5-0.1,6.3-3,6.3-6.6h64.4C48.6-14.9,51.4-12,54.9-11.9z"/>
		<path id="Caminho_2071" class="st0" d="M-13.1-1.6c0,1.7,1.3,3,3,3c1.7,0,3-1.3,3-3c0-1.7-1.3-3-3-3C-11.7-4.6-13.1-3.3-13.1-1.6
			C-13.1-1.6-13.1-1.6-13.1-1.6z"/>
		<path id="Caminho_2072" class="st0" d="M39.9-1.6c0,1.7,1.3,3,3,3c1.7,0,3-1.3,3-3c0-1.7-1.3-3-3-3l0,0
			C41.2-4.6,39.9-3.3,39.9-1.6z"/>
		<g id="Grupo_2062" transform="translate(44.706 10.272)">
			<circle id="Elipse_129" class="st2" cx="-28.3" cy="-11.9" r="12"/>
			<g id="Grupo_2061" transform="translate(9.807 4.728)">
				<g id="Grupo_2058" transform="translate(0 1.884)">
					<g id="Grupo_2057">
						<path id="Caminho_2073" class="st0" d="M-37.6-12.4h-3.3c-0.2,0-0.4-0.2-0.4-0.4c0-0.2,0.2-0.4,0.4-0.4l0,0h3.3
							c1,0,1.9-0.8,1.9-1.9v-1c0-1-0.8-1.9-1.9-1.9h-1c-1.5,0-2.8-1.2-2.8-2.8v-1c0-1.5,1.3-2.8,2.8-2.8h3.3c0.2,0,0.4,0.2,0.4,0.4
							s-0.2,0.4-0.4,0.4h-3.3c-1,0-1.9,0.8-1.9,1.9v1c0,1,0.8,1.9,1.9,1.9h1c1.5,0,2.8,1.2,2.8,2.8v1
							C-34.8-13.6-36.1-12.4-37.6-12.4z"/>
					</g>
				</g>
				<g id="Grupo_2059" transform="translate(3.326 14.775)">
					<path id="Caminho_2074" class="st0" d="M-41.3-23.6c-0.2,0-0.5-0.2-0.5-0.4v0v-1.6c0-0.2,0.2-0.5,0.4-0.5s0.5,0.2,0.5,0.4
						c0,0,0,0,0,0v1.6C-40.9-23.8-41.1-23.6-41.3-23.6z"/>
				</g>
				<g id="Grupo_2060" transform="translate(3.326)">
					<path id="Caminho_2075" class="st0" d="M-41.3-22c-0.2,0-0.4-0.2-0.5-0.4c0,0,0,0,0,0V-24c0-0.2,0.2-0.4,0.5-0.4
						c0.2,0,0.4,0.2,0.4,0.4v1.5C-40.9-22.2-41.1-22-41.3-22z"/>
				</g>
			</g>
		</g>
	</g>
	<g id="Grupo_2068" transform="translate(593.007 98.424)">
		
			<linearGradient id="Elipse_130_00000140734033440024394800000001394906017419650448_" gradientUnits="userSpaceOnUse" x1="-454.7451" y1="1271.3602" x2="-453.8575" y2="1271.3602" gradientTransform="matrix(101.088 -101.088 -101.088 -101.088 174527.6562 82670.6172)">
			<stop  offset="0" style="stop-color:#A85CD1"/>
			<stop  offset="0.389" style="stop-color:#893EB3"/>
			<stop  offset="0.761" style="stop-color:#74289D"/>
			<stop  offset="1" style="stop-color:#6C2196"/>
		</linearGradient>
		
			<circle id="Elipse_130" style="fill:url(#Elipse_130_00000140734033440024394800000001394906017419650448_);" cx="84" cy="75.8" r="63.4"/>
		<g id="Grupo_2067" transform="translate(58.536 61.429)" class="st4">
			<g id="Grupo_2064">
				<path id="Caminho_2076" class="st5" d="M4.6,13c-9.4,0-16.9-7.6-16.9-16.9c0-9.4,7.6-16.9,16.9-16.9c9.4,0,16.9,7.6,16.9,16.9
					C21.6,5.4,14,13,4.6,13z M4.6-14.1C-1-14.1-5.5-9.5-5.5-3.9S-1,6.2,4.6,6.2S14.8,1.7,14.8-3.9l0,0C14.8-9.5,10.2-14.1,4.6-14.1
					L4.6-14.1z"/>
			</g>
			<g id="Grupo_2065" transform="translate(46.945 41.159)">
				<path id="Caminho_2077" class="st5" d="M-0.6,8.4c-9.4,0-16.9-7.6-16.9-16.9c0-9.4,7.6-16.9,16.9-16.9c9.4,0,16.9,7.6,16.9,16.9
					c0,0,0,0,0,0C16.3,0.8,8.7,8.4-0.6,8.4z M-0.6-18.7c-5.6,0-10.2,4.5-10.2,10.2c0,5.6,4.5,10.2,10.2,10.2C5,1.6,9.5-2.9,9.5-8.6
					c0,0,0,0,0,0C9.5-14.2,5-18.7-0.6-18.7L-0.6-18.7z"/>
			</g>
			<g id="Grupo_2066" transform="translate(10.709 2.544)">
				
					<rect id="Retângulo_711" x="-22.9" y="6.2" transform="matrix(0.7071 -0.7071 0.7071 0.7071 -1.743 15.0211)" class="st5" width="80.2" height="6.8"/>
			</g>
		</g>
	</g>
	<g id="Grupo_2072" transform="translate(581.089 201.798)">
		<g id="Grupo_2069" transform="translate(0 51.977)">
			<path id="Retângulo_712" class="st6" d="M4.7-31.4h47c2.6,0,4.7,2.1,4.7,4.7v4.3c0,2.6-2.1,4.7-4.7,4.7h-47
				c-2.6,0-4.7-2.1-4.7-4.7v-4.3C0-29.3,2.1-31.4,4.7-31.4z"/>
			<path id="Caminho_2078" class="st7" d="M53-21.5H3.4C1.5-21.5,0-23,0-24.9l0,0v3.8c0,1.9,1.5,3.4,3.4,3.4l0,0H53
				c1.9,0,3.4-1.5,3.4-3.4v-3.8C56.3-23,54.8-21.5,53-21.5L53-21.5z"/>
			<path id="Caminho_2079" class="st7" d="M53-31.4h-7.3c1.9,0,3.4,1.5,3.4,3.3c0,0,0,0,0,0v7c0,1.9-1.5,3.4-3.4,3.4l0,0H53
				c1.9,0,3.4-1.5,3.4-3.4c0,0,0,0,0,0v-7C56.3-29.9,54.8-31.4,53-31.4L53-31.4z"/>
			<path id="Caminho_2080" class="st5" d="M20.9-21.1v-7c0-1.9,1.5-3.4,3.4-3.4l0,0h-8.5c-1.9,0-3.4,1.5-3.4,3.4v7
				c0,1.9,1.5,3.4,3.4,3.4l0,0h8.5C22.4-17.7,20.9-19.2,20.9-21.1C20.9-21.1,20.9-21.1,20.9-21.1z"/>
		</g>
		<g id="Grupo_2071" transform="translate(11.793)">
			<path id="Caminho_2081" class="st7" d="M49.5-4.2v4c0,11.8-9.6,21.4-21.4,21.4h-6.6c-8.2,0-14.8-6.6-14.8-14.8c0,0,0,0,0,0V-9.8
				c0-8.7,7.1-15.8,15.8-15.8c0,0,0,0,0,0H28c8.5,0,16.1,5,19.6,12.7l-3.2,2.3h4.1C49.1-8.5,49.5-6.3,49.5-4.2z"/>
			<path id="Caminho_2082" class="st6" d="M41.5-4.2v4C41.4,11.7,31.8,21.2,20,21.2C8.2,21.1-1.2,11.6-1.3-0.1v-2.3h1.7l-1.7-1.1
				v-0.6C-1.2-16,8.4-25.5,20.2-25.4C32-25.4,41.4-15.9,41.5-4.2L41.5-4.2z"/>
			<path id="Caminho_2083" class="st5" d="M8.9,18.1l29.7-33.1c-1.4-2.3-3.2-4.4-5.3-6.1L3,12.8C4.6,14.9,6.6,16.7,8.9,18.1z"/>
			<path id="Caminho_2084" class="st5" d="M41.5-0.1v-4c0-0.4,0-0.8,0-1.3L17.7,21.2c1.7,0.2,3.4,0.2,5,0l18.8-21
				C41.5,0,41.5,0,41.5-0.1z"/>
			<g id="Grupo_2070" transform="translate(4.455 4.457)">
				<path id="Caminho_2085" class="st7" d="M15.6,12.9C6,12.9-1.8,5.1-1.8-4.6v-4C-1.8-18.3,6.1-26,15.8-26
					c9.5,0.1,17.3,7.8,17.3,17.3v4C33.1,5.1,25.3,12.9,15.6,12.9z M15.6-23.4c-8.2,0-14.8,6.6-14.8,14.8v4c0,8.2,6.6,14.8,14.8,14.8
					S30.5,3.6,30.5-4.6v-4C30.4-16.8,23.8-23.4,15.6-23.4L15.6-23.4z"/>
			</g>
			<path id="Caminho_2086" class="st7" d="M20.1,2.5l-6.8,4.6l2.2-7.9L9-6l8.2-0.3l2.9-7.7l2.9,7.7L31.2-6l-6.5,5.1l2.2,7.9
				L20.1,2.5z"/>
		</g>
	</g>
	<g id="Grupo_2079" transform="translate(755.468 223.947)">
		<rect id="Retângulo_713" x="-36.6" y="-28.1" class="st0" width="85" height="42.2"/>
		<rect id="Retângulo_714" x="-27.4" y="-28.1" class="st8" width="85" height="42.2"/>
		<path id="Caminho_2087" class="st9" d="M53.6-17.2V3.2c-3.5,0.1-6.3,3-6.3,6.6v0.1h-64.4V9.8c0-3.5-2.8-6.4-6.3-6.6v-20.5
			c3.5-0.1,6.3-3,6.3-6.6h64.4C47.3-20.3,50.1-17.4,53.6-17.2z"/>
		<path id="Caminho_2088" class="st8" d="M-14.4-7c0,1.7,1.3,3,3,3c1.7,0,3-1.3,3-3s-1.3-3-3-3c0,0,0,0,0,0C-13-10-14.4-8.6-14.4-7
			C-14.4-7-14.4-7-14.4-7z"/>
		<path id="Caminho_2089" class="st8" d="M38.6-7c0,1.7,1.3,3,3,3c1.7,0,3-1.3,3-3s-1.3-3-3-3l0,0C39.9-10,38.6-8.6,38.6-7z"/>
		<g id="Grupo_2078" transform="translate(39.11 4.677)">
			<circle id="Elipse_131" class="st5" cx="-24" cy="-11.6" r="12"/>
			<g id="Grupo_2077" transform="translate(15.403 10.323)">
				<g id="Grupo_2074" transform="translate(0 1.885)">
					<g id="Grupo_2073">
						<path id="Caminho_2090" class="st0" d="M-38.9-17.7h-3.3c-0.2,0-0.4-0.2-0.4-0.4s0.2-0.4,0.4-0.4h3.3c1,0,1.9-0.8,1.9-1.9v-1
							c0-1-0.8-1.9-1.9-1.9h-1c-1.5,0-2.8-1.2-2.8-2.8v-1c0-1.5,1.3-2.8,2.8-2.8h3.3c0.2,0,0.4,0.2,0.4,0.4s-0.2,0.4-0.4,0.4h-3.3
							c-1,0-1.9,0.8-1.9,1.9v1c0,1,0.8,1.9,1.9,1.9h1c1.5,0,2.8,1.2,2.8,2.8v1C-36.1-19-37.4-17.7-38.9-17.7z"/>
					</g>
				</g>
				<g id="Grupo_2075" transform="translate(3.326 14.775)">
					<path id="Caminho_2091" class="st0" d="M-42.6-28.9c-0.2,0-0.5-0.2-0.5-0.4l0,0V-31c0-0.2,0.2-0.4,0.5-0.4
						c0.2,0,0.4,0.2,0.4,0.4v1.6C-42.2-29.1-42.4-28.9-42.6-28.9L-42.6-28.9z"/>
				</g>
				<g id="Grupo_2076" transform="translate(3.326)">
					<path id="Caminho_2092" class="st0" d="M-42.6-27.3c-0.2,0-0.4-0.2-0.5-0.4c0,0,0,0,0,0v-1.5c0-0.2,0.2-0.4,0.5-0.4
						c0.2,0,0.4,0.2,0.4,0.4v1.5C-42.2-27.5-42.4-27.3-42.6-27.3z"/>
				</g>
			</g>
		</g>
	</g>
</g>
</svg>
