<svg xmlns="http://www.w3.org/2000/svg" xmlns:xlink="http://www.w3.org/1999/xlink" width="712.292" height="468.845" viewBox="0 0 712.292 468.845"><defs><linearGradient id="a" x1="9.539" y1="1.024" x2="9.539" y2="0.019" gradientUnits="objectBoundingBox"><stop offset="0" stop-color="#6c2196"/><stop offset="0.239" stop-color="#74289d"/><stop offset="0.611" stop-color="#893eb3"/><stop offset="1" stop-color="#a85cd1"/></linearGradient><clipPath id="c"><path d="M1633.432,260.806l-1.884,2.239a42.059,42.059,0,0,0-8.535,37.752c6.845,26.065,11.734,42.716,12.016,60.249l51.039,11.658V336.7c0-25.833-.378-43.907-13.147-63.817-10.113-15.768-24.815-17.8-26.876-17.13Z" transform="translate(-1621.64 -255.64)" fill="#6c2196"/></clipPath></defs><g transform="translate(-1203.754 -182.336)"><path d="M1533.277,217.215c-33.763,27.346-37.95,66.8-19.177,90.606,10.739,6.14,24.6,4.3,35.506-1.538,15.349-8.219,42.907-38.337,49.828-54.333C1616.383,212.777,1575.484,183.03,1533.277,217.215Z" transform="translate(50.947 3.233)" fill="#bcb6f9" opacity="0.4" style="mix-blend-mode:multiply;isolation:isolate"/><path d="M1842.751,259.2c-38.711-39.925-107.438-52.32-151.18-17.982-20.055,15.742-32.829,38.7-48.47,58.834s-36.972,38.86-62.455,39.659c-35.638,1.12-61.817-31.728-93.408-48.26-49.948-26.139-114.823-8.2-154.962,31.381s-70.479,85.754-73.753,142.034c-3.258,56.022,32.581,136.99,79.824,178.33h469.121q15-35.172,30-70.344c21.818-51.152,43.882-103.225,49.982-158.5S1881.461,299.128,1842.751,259.2Z" transform="translate(9.079 6.482)" fill="#bcb6f9" opacity="0.4" style="mix-blend-mode:multiply;isolation:isolate"/><g transform="translate(1216.632 183.336)"><g transform="translate(565.041 327.318)"><rect width="66.333" height="16.107" rx="3.372" transform="translate(0 0)" fill="#ffc587"/><path d="M1759.84,473.374H1701.4a3.949,3.949,0,0,1-3.949-3.948v4.435a3.95,3.95,0,0,0,3.949,3.949h58.436a3.95,3.95,0,0,0,3.949-3.949v-4.435A3.949,3.949,0,0,1,1759.84,473.374Z" transform="translate(-1697.455 -461.703)" fill="#ff9549"/><path d="M1751.988,462.831h-8.645a3.949,3.949,0,0,1,3.949,3.949v8.209a3.949,3.949,0,0,1-3.949,3.949h8.645a3.949,3.949,0,0,0,3.949-3.949V466.78A3.949,3.949,0,0,0,1751.988,462.831Z" transform="translate(-1689.603 -462.831)" fill="#ff9549"/><path d="M1719.923,474.989V466.78a3.949,3.949,0,0,1,3.949-3.949H1713.9a3.949,3.949,0,0,0-3.949,3.949v8.209a3.949,3.949,0,0,0,3.949,3.949h9.976A3.949,3.949,0,0,1,1719.923,474.989Z" transform="translate(-1695.317 -462.831)" fill="#fff"/></g><g transform="translate(558.994 138.313)"><g transform="translate(0 17.119)"><path d="M1731.8,376.781l-.79-.124c-11.825-1.848-23.358-10.178-30.851-22.284s-9.809-26.144-6.192-37.552l.242-.762.79.123c11.825,1.848,23.358,10.179,30.852,22.285s9.808,26.144,6.191,37.55Zm-36.29-58.621c-3.112,10.754-.808,23.855,6.234,35.23s17.741,19.28,28.755,21.288c3.113-10.754.809-23.855-6.233-35.23S1706.526,320.17,1695.51,318.16Z" transform="translate(-1692.291 -316.059)" fill="#aea7fa"/></g><g transform="translate(12.608 33.451)"><path d="M1728.444,373.387l1.821-.683c-4.332-11.558-12.324-28.347-25.789-42.7l-1.419,1.332C1716.3,345.454,1724.174,362,1728.444,373.387Z" transform="translate(-1703.057 -330.005)" fill="#aea7fa"/></g><g transform="translate(61.326)"><path d="M1757.525,345.881h0a39.978,39.978,0,0,1-12.106-1.794l-.762-.241.123-.79c1.986-12.709,10.942-25.106,23.957-33.163a54.706,54.706,0,0,1,28.26-8.451,40.014,40.014,0,0,1,12.106,1.794l.762.241-.123.792c-1.986,12.708-10.943,25.1-23.958,33.162A54.7,54.7,0,0,1,1757.525,345.881Zm-10.769-3.336a38.5,38.5,0,0,0,10.769,1.471,52.811,52.811,0,0,0,27.278-8.171c12.284-7.6,20.814-19.169,22.962-31.067A38.494,38.494,0,0,0,1797,303.307a52.822,52.822,0,0,0-27.278,8.171C1757.434,319.083,1748.9,330.646,1746.757,342.544Z" transform="translate(-1744.657 -301.441)" fill="#aea7fa"/></g><g transform="translate(48.315 73.574)"><path d="M1763.732,398.02h0c-11.475,0-21.975-3.406-29.566-9.591l-.62-.5.405-.691c6.521-11.087,19.408-19.323,34.473-22.03a59.057,59.057,0,0,1,10.421-.938c11.474,0,21.975,3.406,29.566,9.59l.619.506-.405.69c-6.521,11.088-19.406,19.323-34.473,22.031A59.167,59.167,0,0,1,1763.732,398.02Zm-27.754-10.533c7.206,5.6,17.025,8.667,27.754,8.667a57.214,57.214,0,0,0,10.09-.909c14.221-2.554,26.4-10.172,32.777-20.447-7.206-5.6-17.024-8.669-27.754-8.669a57.222,57.222,0,0,0-10.09.909C1754.534,369.594,1742.351,377.212,1735.978,387.487Z" transform="translate(-1733.547 -364.265)" fill="#aea7fa"/></g><g transform="translate(25.02 7.783)"><path d="M1716.4,455.646c-2.616-27.557,1.194-53.835,11.019-75.991,13.386-30.189,37.86-53.673,72.739-69.8l-.816-1.766c-35.322,16.333-60.116,40.148-73.7,70.78-9.96,22.461-13.825,49.074-11.177,76.963Z" transform="translate(-1713.655 -308.087)" fill="#aea7fa"/></g><g transform="translate(28.056 86.122)"><path d="M1717.451,404.566c.47-.678,1.055-1.454,1.74-2.307a61.715,61.715,0,0,1,38.351-22.206c15.366-2.479,32.848-3.6,33.024-3.612l-.092-1.46c-.176.011-17.721,1.124-33.166,3.628a63.176,63.176,0,0,0-39.257,22.733c-.707.879-1.314,1.684-1.8,2.391Z" transform="translate(-1716.248 -374.98)" fill="#aea7fa"/></g></g><g transform="translate(119.125 257.912)"><path d="M1386.343,548.989c-9.446,0-21.818-2.562-24.976-5.172a35.023,35.023,0,0,1-10.842-15.327,26.066,26.066,0,0,1,.269-18.283c.337-.849.788-1.869,1.265-2.95,1.219-2.763,2.736-6.2,3.067-8.414.746-4.98-3.193-10.929-8.107-12.242a12.089,12.089,0,0,0-3.14-.363c-1.22,0-2.5.122-3.733.24-1.257.121-2.556.246-3.821.246a10.715,10.715,0,0,1-5.9-1.474c-6.955-4.342-10.1-12.238-8.207-20.6,1.194-5.275,6.763-10.668,9.977-13.413a9.235,9.235,0,0,0,1.116-12.817,75.5,75.5,0,0,0-6.276-6.449c-5.826-5.537-11.85-11.264-10-18.635,1.486-5.932,7.445-9.766,15.181-9.766a21.147,21.147,0,0,1,9.4,2.131c5.315,2.651,8.486,5.886,11.844,9.311a74.348,74.348,0,0,0,6.729,6.286l.4.319c1.986,1.61,5.312,4.3,9.307,4.921a7.613,7.613,0,0,0,1.163.095,7.142,7.142,0,0,0,4.293-1.683,12.122,12.122,0,0,1,7.576-2.558c.357,0,.73.012,1.105.037,11.86.785,18.18,5.281,21.818,15.517,1.388,3.9,1.217,8.049,1.053,12.06-.064,1.574-.131,3.2-.1,4.771.105,5.059,1.916,11.087,6.682,12.829a16.175,16.175,0,0,0,3.361.7,16.457,16.457,0,0,1,4.114.93,14.929,14.929,0,0,1,5.286,4.218,64.141,64.141,0,0,1,15.11,52.266c-1.1,6.758-4.006,15.613-11.626,19.409-2.4,1.2-5.608,1.359-8.425,1.359h0c-1.531,0-3.175-.055-4.915-.112-1.992-.066-4.051-.135-6.242-.135a61.793,61.793,0,0,0-16.425,1.971A28.62,28.62,0,0,1,1386.343,548.989Zm-42.464-64.824a14.142,14.142,0,0,1,3.675.433c5.939,1.587,10.525,8.522,9.622,14.552-.372,2.487-1.885,5.918-3.22,8.944-.47,1.062-.912,2.065-1.234,2.877a24.024,24.024,0,0,0-.236,16.849,32.94,32.94,0,0,0,10.2,14.4c2.5,2.071,14.146,4.7,23.656,4.7a26.7,26.7,0,0,0,6.818-.706,63.77,63.77,0,0,1,16.974-2.045c2.225,0,4.3.069,6.311.136,1.723.057,3.349.111,4.847.111h0c3.651,0,5.894-.342,7.5-1.142,3.772-1.878,8.657-6.508,10.506-17.886a62.05,62.05,0,0,0-14.618-50.561,13.131,13.131,0,0,0-4.521-3.674,14.722,14.722,0,0,0-3.607-.794,17.911,17.911,0,0,1-3.793-.8c-3.769-1.378-7.86-5.971-8.042-14.734-.034-1.633.034-3.292.1-4.9.163-3.99.317-7.757-.934-11.282-3.356-9.447-8.965-13.413-20-14.143-.331-.021-.658-.033-.97-.033a10.226,10.226,0,0,0-6.419,2.205,9.122,9.122,0,0,1-5.45,2.035,9.818,9.818,0,0,1-1.479-.118c-4.547-.7-8.287-3.731-10.3-5.359l-.389-.314a75.793,75.793,0,0,1-6.911-6.451c-3.373-3.441-6.285-6.412-11.29-8.909a19.33,19.33,0,0,0-8.471-1.912c-5.129,0-11.656,2.147-13.171,8.2-1.553,6.2,3.778,11.265,9.421,16.63a76.668,76.668,0,0,1,6.449,6.637,11.317,11.317,0,0,1-1.371,15.707c-3.018,2.578-8.239,7.6-9.3,12.293-2.024,8.943,2.436,15.364,7.284,18.39a8.637,8.637,0,0,0,4.8,1.159c1.166,0,2.36-.115,3.625-.235C1341.232,484.293,1342.56,484.165,1343.878,484.165Z" transform="translate(-1316.69 -403.566)" fill="#aea7fa"/><g transform="translate(21.959 22.237)"><path d="M1411.808,528.737l.924-.475a432.37,432.37,0,0,0-76.551-105.708l-.74.728A431.335,431.335,0,0,1,1411.808,528.737Z" transform="translate(-1335.441 -422.554)" fill="#aea7fa"/></g></g><g transform="translate(528.645 344.036)"><rect width="123.166" height="61.154" fill="#9087f4"/><rect width="123.166" height="61.154" transform="translate(13.262)" fill="#867de3"/><path d="M1794.2,491.891v29.675a9.529,9.529,0,0,0-9.151,9.512v.1h-93.233v-.1a9.529,9.529,0,0,0-9.151-9.512V491.891a9.53,9.53,0,0,0,9.151-9.512h93.233A9.529,9.529,0,0,0,1794.2,491.891Z" transform="translate(-1663.589 -476.205)" fill="#bcb6f9" opacity="0.8"/><path d="M1693.837,503.851a4.35,4.35,0,1,0,4.349-4.349A4.35,4.35,0,0,0,1693.837,503.851Z" transform="translate(-1661.678 -473.275)" fill="#9087f4"/><path d="M1759.306,503.851a4.351,4.351,0,1,0,4.351-4.349A4.35,4.35,0,0,0,1759.306,503.851Z" transform="translate(-1650.476 -473.275)" fill="#9087f4"/><g transform="translate(57.477 13.207)"><circle cx="17.369" cy="17.369" r="17.369" fill="#867de3"/><g transform="translate(12.086 5.554)"><g transform="translate(0 2.422)"><path d="M1731.778,513.978h-4.827a1.174,1.174,0,1,1,0-2.348h4.827a2.219,2.219,0,0,0,2.216-2.216v-1.438a2.218,2.218,0,0,0-2.216-2.215h-1.438a4.569,4.569,0,0,1-4.564-4.564V499.76a4.57,4.57,0,0,1,4.564-4.565h4.828a1.175,1.175,0,0,1,0,2.349h-4.828a2.218,2.218,0,0,0-2.215,2.216V501.2a2.217,2.217,0,0,0,2.215,2.215h1.438a4.569,4.569,0,0,1,4.564,4.564v1.438A4.569,4.569,0,0,1,1731.778,513.978Z" transform="translate(-1725.776 -495.195)" fill="#bcb6f9"/></g><g transform="translate(4.276 18.995)"><path d="M1730.6,513.98a1.174,1.174,0,0,1-1.175-1.175v-2.284a1.175,1.175,0,1,1,2.349,0v2.284A1.174,1.174,0,0,1,1730.6,513.98Z" transform="translate(-1729.427 -509.347)" fill="#bcb6f9"/></g><g transform="translate(4.276)"><path d="M1730.6,497.716a1.174,1.174,0,0,1-1.175-1.175V494.3a1.175,1.175,0,1,1,2.349,0v2.24A1.175,1.175,0,0,1,1730.6,497.716Z" transform="translate(-1729.427 -493.127)" fill="#bcb6f9"/></g></g></g></g><g transform="translate(217.275)"><g transform="translate(0 16.728)"><g transform="translate(0 169.813)"><g transform="translate(140.584)"><path d="M1533.543,415.6l-13-18.279L1570.2,349.3a23.764,23.764,0,0,1,35.884,3.31l3.882,5.459C1580.593,380.97,1553.438,405.041,1533.543,415.6Z" transform="translate(-1520.543 -342.623)" fill="#c41c6a"/></g><rect width="374.835" height="233.113" rx="28.102" transform="translate(374.835 279.803) rotate(180)" fill="url(#a)"/><rect width="374.835" height="38.395" transform="translate(374.835 119.518) rotate(180)" fill="#171754"/><rect width="196.24" height="46.623" transform="translate(360.79 195.453) rotate(180)" fill="#fafbff" opacity="0.4" style="mix-blend-mode:screen;isolation:isolate"/><rect width="126.155" height="46.623" transform="translate(145.353 195.453) rotate(180)" fill="#fafbff" opacity="0.4" style="mix-blend-mode:screen;isolation:isolate"/><rect width="260.538" height="10.97" transform="translate(279.735 228.975) rotate(180)" fill="#171754"/><rect width="207.429" height="10.97" transform="translate(226.627 253.658) rotate(180)" fill="#171754"/><path d="M1775.334,461.252V569.219a32.91,32.91,0,0,1-32.91,32.909H1433.409a32.909,32.909,0,0,1-32.909-32.909Z" transform="translate(-1400.499 -322.325)" opacity="0.4" fill="url(#a)" style="mix-blend-mode:multiply;isolation:isolate"/></g><g transform="translate(113.087 0)"><path d="M1556.9,430.257l-.869-.745a41.487,41.487,0,0,1-11.766,19c-.443.43-.9.854-1.383,1.265l-39.727-23.388,0-.013c.077-.267.167-.527.266-.781l0-.011c.043-.112.1-.219.144-.328.02-.046.039-.091.058-.136.038-.083.074-.167.114-.248.007-.014.015-.028.023-.043.062-.124.131-.245.2-.365.035-.062.067-.128.1-.189l.037-.063c.022-.037.049-.073.073-.11.066-.105.134-.207.2-.309.046-.067.087-.137.133-.2h0l.011.006a9.144,9.144,0,0,1,9.688-3.445c6.142,1.622,12.631,2.73,18.671,2.327l-.05-.221c.573-.046,1.145-.1,1.708-.187l.057.248c.15-.019.3-.023.452-.043a7.326,7.326,0,0,0,4.038-1.963l2.952-2.781-1.757-1.5,20.928-33.536h35.547C1581.928,402.117,1568.483,419.836,1556.9,430.257Z" transform="translate(-1496.022 -165.988)" fill="#171754" opacity="0.4" style="mix-blend-mode:multiply;isolation:isolate"/><g transform="translate(50.146 120.875)"><rect width="58.747" height="7.004" transform="translate(90.273 55.256) rotate(180)" fill="#171754"/><path d="M1566.569,352.3l-26.218-45.411a3.491,3.491,0,0,1,1.136-4.681l2.141-1.376L1573,351.712l-2.43,1.561A2.846,2.846,0,0,1,1566.569,352.3Z" transform="translate(-1539.884 -300.835)" fill="#171754"/><path d="M1571.029,345.878a3.687,3.687,0,1,1-3.687-3.688A3.687,3.687,0,0,1,1571.029,345.878Z" transform="translate(-1535.816 -293.759)" fill="#fff"/><circle cx="2.019" cy="2.019" r="2.019" transform="translate(29.507 50.1)" fill="#171754"/></g><path d="M1598.609,337.1l-13.2-3.326-13.026,6.374v3.581h33.911Z" transform="translate(-1484.177 -174.323)" fill="#171754"/><g transform="translate(110.901 90.869)"><path d="M1637.428,275.213l-7.452,42.9-38.214,26.958,11.5,5.768c15.81-6.16,34.174-10.154,43.767-24.174l14.71-47.7Z" transform="translate(-1591.762 -275.213)" fill="#171754"/><path d="M1665.805,285.333l-25.935,42.654-8.528,6.706" transform="translate(-1584.989 -273.481)" fill="#171754"/></g><path d="M1644.523,345.645,1579.3,348.1a13.664,13.664,0,0,0-13.152,13.654h0a13.663,13.663,0,0,0,11.055,13.413c22.272,4.335,71.713,13.614,86.883,13.614h0a31.477,31.477,0,0,0,31.477-31.477h0Z" transform="translate(-1485.243 -172.292)" fill="#f24495"/><path d="M1656.089,379.97h0A31.488,31.488,0,0,0,1684.343,354l8.187,1.87a31.477,31.477,0,0,1-31.477,31.477h0c-13.241,0-52.578-7.066-77.183-11.747C1608.781,378.042,1643.866,381.046,1656.089,379.97Z" transform="translate(-1482.211 -170.862)" fill="#c41c6a"/><path d="M1633.432,260.806l-1.884,2.239a42.059,42.059,0,0,0-8.535,37.752c6.845,26.065,11.734,42.716,12.016,60.249l51.039,11.658V336.7c0-25.833-.378-43.907-13.147-63.817-10.113-15.768-24.815-17.8-26.876-17.13Z" transform="translate(-1475.748 -187.693)" fill="#6c2196"/><g transform="translate(145.891 67.948)"><path d="M1633.432,260.806l-1.884,2.239a42.059,42.059,0,0,0-8.535,37.752c6.845,26.065,11.734,42.716,12.016,60.249l51.039,11.658V336.7c0-25.833-.378-43.907-13.147-63.817-10.113-15.768-24.815-17.8-26.876-17.13Z" transform="translate(-1621.64 -255.64)" fill="#6c2196"/><g clip-path="url(#c)"><g transform="translate(-21.211 6.02)"><rect width="134.074" height="2.273" transform="translate(134.074 2.273) rotate(180)" fill="#a05cc4"/><rect width="134.074" height="2.273" transform="translate(134.074 15.102) rotate(180)" fill="#a05cc4"/><rect width="134.074" height="2.273" transform="translate(134.074 27.931) rotate(180)" fill="#a05cc4"/><rect width="134.074" height="2.272" transform="translate(134.074 40.761) rotate(180)" fill="#a05cc4"/><rect width="134.074" height="2.273" transform="translate(134.074 53.59) rotate(180)" fill="#a05cc4"/><rect width="134.074" height="2.273" transform="translate(134.074 66.42) rotate(180)" fill="#a05cc4"/><rect width="134.074" height="2.273" transform="translate(134.074 79.249) rotate(180)" fill="#a05cc4"/><rect width="134.074" height="2.273" transform="translate(134.074 92.079) rotate(180)" fill="#a05cc4"/><rect width="134.074" height="2.273" transform="translate(134.074 104.908) rotate(180)" fill="#a05cc4"/><rect width="134.074" height="2.273" transform="translate(134.074 117.737) rotate(180)" fill="#a489ff"/><rect width="134.074" height="2.273" transform="translate(134.074 130.567) rotate(180)" fill="#a489ff"/><rect width="134.074" height="2.273" transform="translate(134.074 143.396) rotate(180)" fill="#a489ff"/><rect width="134.074" height="2.273" transform="translate(134.074 156.226) rotate(180)" fill="#a489ff"/></g></g></g><path d="M1587.452,330.526l9.986,5.087-5.612,2.91-6.23-5.177a1.7,1.7,0,0,1-.04-2.579h0A1.7,1.7,0,0,1,1587.452,330.526Z" transform="translate(-1482.021 -174.911)" fill="#171754"/><path d="M1608.075,337.1l-13.2-3.326-13.026,6.374v3.581h33.912Z" transform="translate(-1482.557 -174.323)" fill="#ca725c"/><g transform="translate(116.778 81.094)"><path d="M1646.4,276.932l-6.1,38.861-43.515,30.349,13.861,9.015c17.44-7,38.472-14.779,48.937-30.415l10.186-43.23a11.914,11.914,0,0,0-10.715-14.613h0A11.915,11.915,0,0,0,1646.4,276.932Z" transform="translate(-1596.78 -266.866)" fill="#a05cc4"/></g><circle cx="1.973" cy="1.973" r="1.973" transform="translate(150.178 108.718)" fill="#fff"/><circle cx="1.973" cy="1.973" r="1.973" transform="translate(148.206 97.494)" fill="#fff"/><g transform="translate(0 175.662)"><g transform="translate(0 61.835)"><path d="M1540.812,400.418l-7.447,6a7.326,7.326,0,0,1-4.176,1.645c-6.681.367-13.89-1.38-20.614-3.722a9.108,9.108,0,0,0-11.511,5.367h0l37.809,26.379a41.746,41.746,0,0,0,15.052-20.123Z" transform="translate(-1497.064 -400.418)" fill="#ffc587"/><path d="M1497.07,408.735c.1-.261.207-.513.324-.759.076-.157.161-.307.244-.457.043-.08.086-.16.131-.239.117-.2.242-.385.372-.57l.041-.06q.218-.3.457-.589h0l38.812,26.953a29.062,29.062,0,0,1-2.578,2.112l-37.809-26.379Z" transform="translate(-1497.064 -399.452)" fill="#fafbff"/><path d="M1527.75,419.477a3.6,3.6,0,0,0,4.821,4.463,3.124,3.124,0,0,0,1.6-1.367,3.605,3.605,0,0,0-3.639-5.471A3.518,3.518,0,0,0,1527.75,419.477Z" transform="translate(-1491.845 -397.571)" fill="#fafbff"/><path d="M1515.487,406.114l-3.1,4.5-1.486-1.019,2.693-3.921C1514.232,405.825,1514.854,405.975,1515.487,406.114Z" transform="translate(-1494.695 -399.519)" fill="#fafbff"/><path d="M1525.179,412.386l-1.67.371-.9-5.961c.575,0,1.15-.015,1.718-.055Z" transform="translate(-1492.693 -399.336)" fill="#fafbff"/><path d="M1519.682,406.815l-.512,5.563-1.8-.156.518-5.628C1518.481,406.675,1519.087,406.757,1519.682,406.815Z" transform="translate(-1493.589 -399.361)" fill="#fafbff"/></g><g transform="translate(37.823)"><path d="M1544.827,426.739l-15.466-15.466,39.954-54.228a23.171,23.171,0,0,1,35.039-2.641l4.619,4.619C1584.445,385.805,1562.242,413.356,1544.827,426.739Z" transform="translate(-1529.361 -347.617)" fill="#f24495"/></g><g transform="translate(85.025 5.303)"><path d="M1570.83,357.417a9.68,9.68,0,0,1-1.164-.069l.358-2.972a7.316,7.316,0,0,0,6.118-2.23l2.187,2.045A10.389,10.389,0,0,1,1570.83,357.417Z" transform="translate(-1569.666 -352.146)" fill="#c41c6a"/></g><g transform="translate(96.1 22.279)"><rect width="2.994" height="7.29" transform="translate(0 1.754) rotate(-35.859)" fill="#c41c6a"/></g></g><g transform="translate(116.556)"><path d="M1648.073,256.449a32.946,32.946,0,0,0-9.193,1.4c-3.62,1.936-7.4,4.2-7.4,4.2-3.736,4.115-6.224,8.721-3.922,9.966s7.548-.8,12.6-3.968a44.938,44.938,0,0,0,9.622-8.03A2.184,2.184,0,0,0,1648.073,256.449Z" transform="translate(-1591.444 -187.554)" fill="#a05cc4"/><path d="M1641.066,246.733l5.591,11.01a4.2,4.2,0,0,1-.473,3.986,24.869,24.869,0,0,1-16.285,10.333c.817-7.468-5.354-11.665-5.354-11.665Z" transform="translate(-1591.807 -189.217)" fill="#ca725c"/><path d="M1606.336,226.028l-2.516,17.7a3.663,3.663,0,0,0,3.241,4.157l2.623.278-.45,9.851,31.254,11.539,5.086-12.1-2.384-36.528-26.044-3.332Z" transform="translate(-1595.359 -194.204)" fill="#ca725c"/><path d="M1638.813,251.757a12.162,12.162,0,0,1-5.245,15.071,27.481,27.481,0,0,1-3.734,1.765,13.687,13.687,0,0,0-5.29-8.6l13.2-10.915Z" transform="translate(-1591.807 -188.815)" fill="#ca725c" opacity="0.4" style="mix-blend-mode:multiply;isolation:isolate"/><circle cx="13.689" cy="13.689" r="13.689" transform="matrix(0.019, -1, 1, 0.019, 41.567, 27.373)" fill="#171754"/><path d="M1608.206,207.839l20.72-2.215a18.607,18.607,0,0,1,17.914,8.9l7.527,12.493a15.413,15.413,0,0,1,1.338,13.059l-9.585,13.94C1638.155,256.182,1620.539,225.148,1608.206,207.839Z" transform="translate(-1594.603 -196.269)" fill="#171754"/><g transform="translate(34.194 8.024)"><path d="M1642.779,215.339a17.443,17.443,0,0,0-16.731-8.313l-.26-2.443a19.906,19.906,0,0,1,19.1,9.487Z" transform="translate(-1625.788 -204.472)" fill="#4424af"/></g><path d="M1614.124,228.54h0a14.835,14.835,0,0,1-16.488-9.858l-.6-1.758a8.319,8.319,0,0,1,7.421-10.985l11.431-.628a21.507,21.507,0,0,1,15.214,5.177l15.188,13.078Z" transform="translate(-1596.59 -196.31)" fill="#171754"/><g transform="translate(27.922 9.435)"><path d="M1629.658,214.307c-.449-.385-.9-.8-1.364-1.217-2.073-1.883-4.422-4.017-7.86-5.063l.714-2.35c3.968,1.206,6.533,3.538,8.8,5.594.447.406.883.8,1.314,1.173Z" transform="translate(-1620.433 -205.677)" fill="#4424af"/></g><g transform="translate(13.128 37.935)"><path d="M1609.345,233.844l-1.545-1.307c2.419-2.862,5.1-3.292,7.975-1.281l-1.16,1.657C1612.614,231.513,1611.088,231.783,1609.345,233.844Z" transform="translate(-1607.8 -230.013)" fill="#1d0f4a"/></g><path d="M1638.1,243.556l3.088,11.994a10.508,10.508,0,0,1-2.5,9.8c-5.58,5.957-13.355,11.059-21.747,12.461-14.6,2.439-7.962-28.63-7.962-28.63,1.251-1.022,14.8-1.491,20.353,2.47-1.645-9.85-3.123-22.522-7.967-28.7l4.019-.671Z" transform="translate(-1594.73 -193.399)" fill="#171754"/><g transform="translate(14.226 65.763)"><g transform="translate(11.511 0.837)"><path d="M1619.881,259.37a1.229,1.229,0,0,1-1.227-1.184l-.087-2.423a1.229,1.229,0,1,1,2.456-.088l.087,2.423a1.228,1.228,0,0,1-1.184,1.271Z" transform="translate(-1618.566 -254.49)" fill="#4424af"/></g><path d="M1610.052,258.655a1.229,1.229,0,0,1-1.227-1.184l-.087-2.423a1.229,1.229,0,1,1,2.456-.088l.087,2.423a1.229,1.229,0,0,1-1.184,1.272Z" transform="translate(-1608.737 -253.775)" fill="#4424af"/><g transform="translate(4.366 2.031)"><path d="M1613.78,260.389a1.229,1.229,0,0,1-1.227-1.185l-.087-2.422a1.229,1.229,0,0,1,2.456-.089l.087,2.423a1.229,1.229,0,0,1-1.184,1.272Z" transform="translate(-1612.465 -255.509)" fill="#4424af"/></g><g transform="translate(1.684 7.256)"><path d="M1611.49,264.851a1.228,1.228,0,0,1-1.227-1.185l-.087-2.423a1.228,1.228,0,0,1,2.454-.088l.088,2.423a1.23,1.23,0,0,1-1.184,1.272Z" transform="translate(-1610.175 -259.971)" fill="#4424af"/></g><g transform="translate(9.234 7.213)"><path d="M1617.937,264.814a1.229,1.229,0,0,1-1.227-1.184l-.087-2.423a1.229,1.229,0,1,1,2.456-.088l.087,2.423a1.229,1.229,0,0,1-1.184,1.272Z" transform="translate(-1616.622 -259.934)" fill="#4424af"/></g><g transform="translate(6.08 10.387)"><path d="M1615.243,267.525a1.228,1.228,0,0,1-1.226-1.185l-.087-2.423a1.228,1.228,0,1,1,2.455-.088l.087,2.423a1.229,1.229,0,0,1-1.184,1.272Z" transform="translate(-1613.929 -262.644)" fill="#4424af"/></g></g><path d="M1625.893,235.578a4.993,4.993,0,1,0,4.1-5.748A4.993,4.993,0,0,0,1625.893,235.578Z" transform="translate(-1591.588 -192.121)" fill="#ca725c"/><path d="M1629.148,235.575a1.779,1.779,0,1,0,1.461-2.047A1.778,1.778,0,0,0,1629.148,235.575Z" transform="translate(-1591.023 -191.481)" fill="#b06350"/><path d="M1620.837,248.461a6.112,6.112,0,0,1-11.669,1.244Z" transform="translate(-1594.438 -188.921)" fill="#fff"/><path d="M1611.582,241.081a3.1,3.1,0,1,0,2.547-3.568A3.1,3.1,0,0,0,1611.582,241.081Z" transform="translate(-1594.032 -190.802)" fill="#ca725c" opacity="0.4" style="mix-blend-mode:multiply;isolation:isolate"/><g transform="translate(27.001 28.07)"><rect width="7.352" height="2.457" transform="translate(0 1.212) rotate(-9.485)" fill="#4424af"/></g></g></g></g><g transform="translate(160.197)"><g transform="translate(11.398 99.973)"><path d="M16.19-1A17.185,17.185,0,0,1,28.345,28.345,17.19,17.19,0,1,1,9.5.351,17.083,17.083,0,0,1,16.19-1Zm0,32.38A15.19,15.19,0,1,0,1,16.19,15.207,15.207,0,0,0,16.19,31.38Z" transform="translate(0 7.439) rotate(-13.283)" fill="#aea7fa"/><g transform="translate(14.088 7.606)"><g transform="translate(0 2.404)"><path d="M1565.156,296.182h-4.792a1.31,1.31,0,0,1,0-2.62h4.792a2.057,2.057,0,0,0,2.055-2.054v-1.428a2.057,2.057,0,0,0-2.055-2.054h-1.427a4.68,4.68,0,0,1-4.674-4.675v-1.428a4.679,4.679,0,0,1,4.674-4.674h4.792a1.31,1.31,0,1,1,0,2.62h-4.792a2.057,2.057,0,0,0-2.054,2.054v1.428a2.058,2.058,0,0,0,2.054,2.055h1.427a4.68,4.68,0,0,1,4.675,4.674v1.428A4.68,4.68,0,0,1,1565.156,296.182Z" transform="translate(-1559.054 -277.25)" fill="#9087f4"/></g><g transform="translate(4.245 18.855)"><path d="M1563.988,296.184a1.31,1.31,0,0,1-1.31-1.31v-2.266a1.309,1.309,0,1,1,2.619,0v2.266A1.309,1.309,0,0,1,1563.988,296.184Z" transform="translate(-1562.679 -291.297)" fill="#9087f4"/></g><g transform="translate(4.245)"><path d="M1563.988,280.039a1.309,1.309,0,0,1-1.31-1.309v-2.224a1.309,1.309,0,1,1,2.619,0v2.224A1.308,1.308,0,0,1,1563.988,280.039Z" transform="translate(-1562.679 -275.197)" fill="#9087f4"/></g></g></g><g transform="translate(0 37.447)"><path d="M15.063-1A16.063,16.063,0,0,1,26.422,26.422,16.063,16.063,0,1,1,3.7,3.7,15.958,15.958,0,0,1,15.063-1Zm0,30.127A14.063,14.063,0,1,0,1,15.063,14.079,14.079,0,0,0,15.063,29.127Z" transform="translate(0 21.303) rotate(-45)" fill="#aea7fa"/><g transform="translate(16.199 10.166)"><g transform="translate(0 2.238)"><path d="M1556.892,243.7h-4.459a1.31,1.31,0,1,1,0-2.62h4.459a1.823,1.823,0,0,0,1.821-1.82v-1.328a1.823,1.823,0,0,0-1.821-1.821h-1.329a4.445,4.445,0,0,1-4.439-4.441v-1.328a4.445,4.445,0,0,1,4.439-4.44h4.46a1.31,1.31,0,0,1,0,2.62h-4.46a1.822,1.822,0,0,0-1.82,1.82v1.328a1.823,1.823,0,0,0,1.82,1.821h1.329a4.445,4.445,0,0,1,4.44,4.441v1.328A4.445,4.445,0,0,1,1556.892,243.7Z" transform="translate(-1551.123 -225.904)" fill="#9087f4"/></g><g transform="translate(3.95 17.544)"><path d="M1555.805,243.7a1.309,1.309,0,0,1-1.309-1.31v-2.109a1.309,1.309,0,1,1,2.619,0v2.109A1.31,1.31,0,0,1,1555.805,243.7Z" transform="translate(-1554.496 -238.974)" fill="#9087f4"/></g><g transform="translate(3.95)"><path d="M1555.805,228.682a1.309,1.309,0,0,1-1.309-1.31V225.3a1.309,1.309,0,1,1,2.619,0v2.068A1.31,1.31,0,0,1,1555.805,228.682Z" transform="translate(-1554.496 -223.993)" fill="#9087f4"/></g></g></g><g transform="translate(34.447)"><path d="M11.038-1A12.038,12.038,0,0,1,23.075,11.038,12.038,12.038,0,0,1,11.038,23.075,12.038,12.038,0,0,1-1,11.038,12.038,12.038,0,0,1,11.038-1Zm0,22.075A10.038,10.038,0,1,0,1,11.038,10.049,10.049,0,0,0,11.038,21.075Z" fill="#aea7fa"/><g transform="translate(6.947 2.528)"><g transform="translate(0 1.64)"><path d="M1577.215,200.636h-3.267a1.31,1.31,0,1,1,0-2.62h3.267a.984.984,0,0,0,.984-.984v-.973a.985.985,0,0,0-.984-.984h-.973a3.609,3.609,0,0,1-3.6-3.6V190.5a3.608,3.608,0,0,1,3.6-3.6h3.266a1.31,1.31,0,0,1,0,2.62h-3.266a.985.985,0,0,0-.985.984v.972a.986.986,0,0,0,.985.985h.973a3.607,3.607,0,0,1,3.6,3.6v.973A3.607,3.607,0,0,1,1577.215,200.636Z" transform="translate(-1572.637 -186.895)" fill="#9087f4"/></g><g transform="translate(2.894 12.854)"><path d="M1576.418,200.637a1.31,1.31,0,0,1-1.31-1.309v-1.546a1.31,1.31,0,1,1,2.62,0v1.546A1.31,1.31,0,0,1,1576.418,200.637Z" transform="translate(-1575.108 -196.471)" fill="#9087f4"/></g><g transform="translate(2.894)"><path d="M1576.418,189.63a1.31,1.31,0,0,1-1.31-1.309V186.8a1.31,1.31,0,0,1,2.62,0v1.517A1.31,1.31,0,0,1,1576.418,189.63Z" transform="translate(-1575.108 -185.495)" fill="#9087f4"/></g></g></g></g></g><g transform="translate(552.646 405.19)"><rect width="123.166" height="61.154" fill="#867de3"/><rect width="123.166" height="61.154" transform="translate(13.262)" fill="#bcb6f9"/><path d="M1814.7,544.11v29.675a9.529,9.529,0,0,0-9.151,9.512v.1h-93.233v-.1a9.529,9.529,0,0,0-9.151-9.512V544.11a9.529,9.529,0,0,0,9.151-9.512h93.233A9.529,9.529,0,0,0,1814.7,544.11Z" transform="translate(-1684.083 -528.424)" fill="#e6e6ff" opacity="0.8"/><path d="M1714.331,556.072a4.35,4.35,0,1,0,4.349-4.351A4.35,4.35,0,0,0,1714.331,556.072Z" transform="translate(-1682.172 -525.494)" fill="#aea7fa"/><path d="M1779.8,556.072a4.35,4.35,0,1,0,4.35-4.351A4.35,4.35,0,0,0,1779.8,556.072Z" transform="translate(-1670.97 -525.494)" fill="#aea7fa"/><g transform="translate(57.477 13.207)"><circle cx="17.369" cy="17.369" r="17.369" fill="#bcb6f9"/><path d="M1752.272,555.985h-1.438a2.217,2.217,0,0,1-2.215-2.215v-1.438a2.217,2.217,0,0,1,2.215-2.215h4.827a1.175,1.175,0,1,0,0-2.349h-2.766v-1.248a1.175,1.175,0,1,0-2.349,0v1.262a4.566,4.566,0,0,0-4.276,4.55v1.438a4.569,4.569,0,0,0,4.564,4.564h1.438a2.218,2.218,0,0,1,2.216,2.215v1.439a2.218,2.218,0,0,1-2.216,2.215h-4.828a1.175,1.175,0,0,0,0,2.349h3.1V567.8a1.175,1.175,0,0,0,2.349,0v-1.3a4.567,4.567,0,0,0,3.941-4.516v-1.439A4.57,4.57,0,0,0,1752.272,555.985Z" transform="translate(-1734.184 -539.792)" fill="#e6e6ff"/></g></g><g transform="translate(0 360.231)"><g transform="translate(99.574)"><g transform="translate(48.099 18.255)"><path d="M1366.744,516.352h36.969v5.208a15.035,15.035,0,0,1,30.069,0v22.026h14.143v50.32H1380a13.194,13.194,0,0,1-13.194-13.194V558.882h-.063Z" transform="translate(-1336.673 -506.523)" fill="#a8a1ed"/><path d="M1341.067,519.721a13.2,13.2,0,0,1,13.2-13.2h67.924v.032a15.057,15.057,0,0,0-14.091,15.012v18.95h-.062v38.355a15.035,15.035,0,1,1-30.069,0V540.517h-36.9Z" transform="translate(-1341.067 -506.523)" fill="#fff"/><path d="M1469.145,535.549v17.959h-15.034v20.4a15.035,15.035,0,0,1-30.069,0V535.549Z" transform="translate(-1326.869 -501.556)" fill="#fff"/><path d="M1479.787,561.165V550.584a15.035,15.035,0,1,0-30.069,0v10.581Z" transform="translate(-1322.476 -501.556)" fill="#a8a1ed"/></g><path d="M1352.247,500.762v5.209a15.035,15.035,0,1,1,30.069,0v40.281h.063v35.285a15.023,15.023,0,0,0,14.08,14.987v.048h-67.925a13.194,13.194,0,0,1-13.194-13.194V561.549h-.063V500.762Z" transform="translate(-1297.381 -490.935)" fill="#a8a1ed"/><path d="M1300,541.26V504.133a13.2,13.2,0,0,1,13.2-13.2h55.75v.031a15.058,15.058,0,0,0-14.091,15.013V541.26Z" transform="translate(-1299.996 -490.935)" fill="#fff"/><g transform="translate(10.107 13.601)"><path d="M1311.67,508.635h25.339a3.044,3.044,0,0,0,3.044-3.044h0a3.043,3.043,0,0,0-3.044-3.043H1311.67a3.043,3.043,0,0,0-3.044,3.043h0A3.044,3.044,0,0,0,1311.67,508.635Z" transform="translate(-1308.626 -502.549)" fill="#a8a1ed"/></g><g transform="translate(10.107 28.615)"><path d="M1311.67,521.455h25.339a3.043,3.043,0,0,0,3.044-3.043h0a3.044,3.044,0,0,0-3.044-3.044H1311.67a3.044,3.044,0,0,0-3.044,3.044h0A3.043,3.043,0,0,0,1311.67,521.455Z" transform="translate(-1308.626 -515.369)" fill="#a8a1ed"/></g></g><path d="M1287.267,536.545a27.608,27.608,0,0,1,11.441-2.5h65.356a27.623,27.623,0,0,0-11.455,2.5s-26.11,18.753-26.11,25.323a27.806,27.806,0,0,1-27.792,27.8H1214.97V569.18Z" transform="translate(-1214.97 -483.558)" fill="#cd9be8"/><path d="M1269.958,569.18v20.492H1353.7a27.811,27.811,0,1,0-11.44-53.127l-18.321,8.27Z" transform="translate(-1205.561 -483.558)" fill="#6c2196"/><rect width="64.397" height="20.68" transform="translate(64.397 106.114) rotate(180)" fill="#9f5ac4"/><path d="M1268.6,558.5H1247.87l19.37-9.549h20.734Z" transform="translate(-1209.341 -481.007)" fill="#a05cc4"/><circle cx="14.445" cy="14.445" r="14.445" transform="translate(129.005 89.683) rotate(-76.717)" fill="#a05cc4"/></g><g transform="translate(149.156 121.799)"><path d="M1423.694,300.025a96.632,96.632,0,0,1,70.461,30.452,6.23,6.23,0,0,0,8.951.153l.118-.118a6.281,6.281,0,0,0,.105-8.754,109.339,109.339,0,0,0-159.272,0,6.282,6.282,0,0,0,.105,8.754l.119.119a6.23,6.23,0,0,0,8.95-.155A96.636,96.636,0,0,1,1423.694,300.025Z" transform="translate(-1342.333 -287.34)" fill="#aea7fa"/><path d="M1421.03,322.048a70.893,70.893,0,0,1,52.106,22.8,6.273,6.273,0,0,0,9.063.259l.121-.121a6.271,6.271,0,0,0,.18-8.68,83.6,83.6,0,0,0-122.94,0,6.268,6.268,0,0,0,.18,8.68l.121.121a6.272,6.272,0,0,0,9.062-.259A70.894,70.894,0,0,1,1421.03,322.048Z" transform="translate(-1339.669 -283.572)" fill="#aea7fa"/><path d="M1418.367,344.072a45.158,45.158,0,0,1,33.857,15.27,6.217,6.217,0,0,0,9.049.258l.142-.142a6.231,6.231,0,0,0,.326-8.51,57.871,57.871,0,0,0-86.747,0,6.23,6.23,0,0,0,.326,8.51l.141.142a6.216,6.216,0,0,0,9.049-.258A45.161,45.161,0,0,1,1418.367,344.072Z" transform="translate(-1337.006 -279.803)" fill="#aea7fa"/><path d="M1415.692,366.1a19.47,19.47,0,0,1,15.438,7.605,6.167,6.167,0,0,0,9.2.4l.126-.127a6.294,6.294,0,0,0,.442-8.375,32.149,32.149,0,0,0-50.407,0,6.294,6.294,0,0,0,.442,8.375l.128.126a6.165,6.165,0,0,0,9.2-.4A19.473,19.473,0,0,1,1415.692,366.1Z" transform="translate(-1334.33 -276.035)" fill="#aea7fa"/></g><g transform="translate(488.692 395.885)"><g transform="translate(0 54.353)"><rect width="66.333" height="16.107" rx="3.372" fill="#ffc587"/><path d="M1694.646,578.334H1636.21a3.948,3.948,0,0,1-3.949-3.948v4.435a3.948,3.948,0,0,0,3.949,3.949h58.436a3.949,3.949,0,0,0,3.949-3.949v-4.435A3.948,3.948,0,0,1,1694.646,578.334Z" transform="translate(-1632.261 -566.663)" fill="#ff9549"/><path d="M1686.794,567.792h-8.645a3.947,3.947,0,0,1,3.948,3.948v8.209a3.948,3.948,0,0,1-3.948,3.949h8.645a3.949,3.949,0,0,0,3.949-3.949V571.74A3.949,3.949,0,0,0,1686.794,567.792Z" transform="translate(-1624.409 -567.792)" fill="#ff9549"/><path d="M1654.729,579.949V571.74a3.948,3.948,0,0,1,3.949-3.948H1648.7a3.948,3.948,0,0,0-3.949,3.948v8.209a3.948,3.948,0,0,0,3.949,3.949h9.975A3.948,3.948,0,0,1,1654.729,579.949Z" transform="translate(-1630.123 -567.792)" fill="#fff"/></g><g transform="translate(12.332)"><path d="M1701.266,546.61v4.759a25.24,25.24,0,0,1-25.245,25.231h-7.794a17.443,17.443,0,0,1-17.453-17.438V540a18.625,18.625,0,0,1,18.635-18.619h6.612a25.231,25.231,0,0,1,23.052,14.948l-3.8,2.691h4.823A24.993,24.993,0,0,1,1701.266,546.61Z" transform="translate(-1641.425 -521.38)" fill="#ff9549"/><path d="M1693.268,546.61v4.759a25.238,25.238,0,0,1-50.477,0v-2.753h1.991l-1.991-1.291v-.716a25.238,25.238,0,0,1,50.477,0Z" transform="translate(-1642.791 -521.38)" fill="#ffc587"/><path d="M1654.122,572.086l34.941-38.965a25.341,25.341,0,0,0-6.232-7.142l-35.677,39.785A25.319,25.319,0,0,0,1654.122,572.086Z" transform="translate(-1642.044 -520.593)" fill="#fff"/><path d="M1690,547.9V543.14c0-.5-.019-.988-.047-1.478l-28.068,31.3a24.626,24.626,0,0,0,5.909-.021l22.2-24.755C1689.995,548.091,1690,548,1690,547.9Z" transform="translate(-1639.524 -517.91)" fill="#fff"/><g transform="translate(4.659 4.66)"><path d="M1667.345,571.259a20.6,20.6,0,0,1-20.576-20.575v-4.75a20.576,20.576,0,0,1,41.151,0v4.75A20.6,20.6,0,0,1,1667.345,571.259Zm0-42.789a17.484,17.484,0,0,0-17.465,17.464v4.75a17.465,17.465,0,1,0,34.929,0v-4.75A17.484,17.484,0,0,0,1667.345,528.471Z" transform="translate(-1646.769 -525.359)" fill="#ff9549"/></g><path d="M1666.244,552.45l-8.06,5.38,2.626-9.328-7.608-6,9.683-.385,3.359-9.09,3.358,9.09,9.683.385-7.608,6,2.626,9.328Z" transform="translate(-1641.009 -519.388)" fill="#ff9549"/></g></g></g><path d="M709.292,1.5H0A1.5,1.5,0,0,1-1.5,0,1.5,1.5,0,0,1,0-1.5H709.292a1.5,1.5,0,0,1,1.5,1.5A1.5,1.5,0,0,1,709.292,1.5Z" transform="translate(1205.254 649.681)" fill="#867de3"/></g></svg>