<svg xmlns="http://www.w3.org/2000/svg" xmlns:xlink="http://www.w3.org/1999/xlink" width="234.58" height="49.277" viewBox="0 0 234.58 49.277"><defs><linearGradient id="a" x1="0.5" y1="1.683" x2="0.5" y2="-0.128" gradientUnits="objectBoundingBox"><stop offset="0.15" stop-color="#639"/><stop offset="0.371" stop-color="#7b41a8"/><stop offset="0.702" stop-color="#9553bc"/><stop offset="0.9" stop-color="#9f5ac4"/></linearGradient></defs><ellipse cx="6.51" cy="6.556" rx="6.51" ry="6.556" transform="translate(0.143 36.165)" fill="#00b9ff"/><path d="M77.671,101.287a6.849,6.849,0,0,1,6.754-6.437H106.8c0,1.309,0,3.055.023,6.61a6.951,6.951,0,0,1-1.909,5.137,6.655,6.655,0,0,1-4.863,2.1l-15.761-.006c-2.952,0-5.587,2.465-6.626,3.578Zm-.411-18.3.006-.062a6.906,6.906,0,0,1,6.85-6.454h29.422c0,1-.015,3.333,0,6.572a7.288,7.288,0,0,1-1.885,5.137,6.79,6.79,0,0,1-4.968,2.138L83.98,90.314c-3,0-5.673,2.477-6.72,3.585Z" transform="translate(-77.26 -76.473)" fill="url(#a)"/><g transform="translate(47.613 7.607)"><path d="M187.642,92.755l-.141-.727H168.132v32.767h5.784v-14.72h10.432v-5.317H173.916V97.3h10.091a3.223,3.223,0,0,0,3.743-3.4,5.049,5.049,0,0,0-.033-.71C187.7,93.071,187.675,92.926,187.642,92.755Z" transform="translate(-168.132 -91.427)" fill="#9f5ac4" stroke="#9f5ac4" stroke-width="1.5"/><path d="M222.93,93.65a3.307,3.307,0,0,0-.982-1.2,3.161,3.161,0,0,0-1.282-.575,5.924,5.924,0,0,0-1.108-.109c-.171,0-.376.008-.617.026s-.468.044-.676.079l-.748.123V124.67h5.831V95.538A4.746,4.746,0,0,0,222.93,93.65Z" transform="translate(-191.64 -91.303)" fill="#9f5ac4" stroke="#9f5ac4" stroke-width="1.5"/><path d="M270.334,92.483a3.209,3.209,0,0,0-1.179-.576,4.523,4.523,0,0,0-1.087-.142c-.173,0-.372.009-.6.026s-.441.044-.648.079l-.748.123v22.548L252.836,93.723a4.224,4.224,0,0,0-1.383-1.482,3.877,3.877,0,0,0-2.044-.475,8.434,8.434,0,0,0-1.132.078,5.385,5.385,0,0,0-.942.2l-.612.2V124.67h5.509V102.761l14.25,21.909h5.1V95.581a4.646,4.646,0,0,0-.329-1.868A3.087,3.087,0,0,0,270.334,92.483Z" transform="translate(-205.545 -91.303)" fill="#9f5ac4" stroke="#9f5ac4" stroke-width="1.5"/><path d="M331.95,92.755l-.141-.727H309.977a3.8,3.8,0,0,0-2.7.914,2.985,2.985,0,0,0-1,2.208,6.714,6.714,0,0,0,.161,1.5l.16.7h9.561v27.449h5.831V97.346h6.369a3.658,3.658,0,0,0,2.755-.992,3.3,3.3,0,0,0,.941-2.362c0-.1-.008-.285-.025-.548A5.782,5.782,0,0,0,331.95,92.755Z" transform="translate(-233.897 -91.427)" fill="#9f5ac4" stroke="#9f5ac4" stroke-width="1.5"/><path d="M384.247,119.524h-10.78V110.4H383.9v-5.364H373.466V97.3H383.6a3.538,3.538,0,0,0,2.891-1.039,3.583,3.583,0,0,0,.806-2.36,6.343,6.343,0,0,0-.029-.681,4.006,4.006,0,0,0-.089-.506l-.167-.685H367.682v32.767H387.84l.1-.789a5.774,5.774,0,0,0,.052-.689v-.393a3.358,3.358,0,0,0-.941-2.407A3.726,3.726,0,0,0,384.247,119.524Z" transform="translate(-263.127 -91.427)" fill="#9f5ac4" stroke="#9f5ac4" stroke-width="1.5"/><path d="M437.869,116.412l-.685-.566-.567.686c-.091.109-.292.33-.737.76a9.347,9.347,0,0,1-3.332,2,7.359,7.359,0,0,1-2.461.388,8.58,8.58,0,0,1-4.25-.95,7.691,7.691,0,0,1-2.721-2.552,11.159,11.159,0,0,1-1.507-3.748,21.59,21.59,0,0,1-.463-4.487,22.1,22.1,0,0,1,.441-4.424,11.716,11.716,0,0,1,1.427-3.74,7.5,7.5,0,0,1,2.59-2.565,7.955,7.955,0,0,1,4.116-.96,8.339,8.339,0,0,1,2.219.268,8.964,8.964,0,0,1,1.776.693,6.8,6.8,0,0,1,1.359.937c.421.382.795.75,1.111,1.1l.266.292h1.643l.268-.33a10.23,10.23,0,0,0,.885-1.3,3.449,3.449,0,0,0,.512-1.728,3.089,3.089,0,0,0-1.011-2.108,8.508,8.508,0,0,0-2.258-1.61,14.725,14.725,0,0,0-3.107-1.136,15.019,15.019,0,0,0-3.664-.443,14.863,14.863,0,0,0-6.474,1.315,12.632,12.632,0,0,0-4.546,3.635,15.25,15.25,0,0,0-2.641,5.458,25.765,25.765,0,0,0-.835,6.693,26.184,26.184,0,0,0,.811,6.665,14.965,14.965,0,0,0,2.6,5.415,12.276,12.276,0,0,0,4.556,3.594,15.256,15.256,0,0,0,6.489,1.288,14.93,14.93,0,0,0,3.715-.422,15.187,15.187,0,0,0,2.737-.962,10.01,10.01,0,0,0,1.867-1.123,11.592,11.592,0,0,0,.951-.811,2.826,2.826,0,0,0,.906-2.025,3.16,3.16,0,0,0-.756-1.863A7.758,7.758,0,0,0,437.869,116.412Z" transform="translate(-285.758 -90.889)" fill="#9f5ac4" stroke="#9f5ac4" stroke-width="1.5"/><path d="M501.008,93.687a3.157,3.157,0,0,0-.971-1.219,3.39,3.39,0,0,0-1.247-.566,5.279,5.279,0,0,0-1.161-.138q-.257,0-.618.026c-.243.018-.467.044-.676.079l-.749.123V105H482.758V95.581a4.36,4.36,0,0,0-.364-1.894,3.159,3.159,0,0,0-.972-1.218,3.392,3.392,0,0,0-1.247-.566,5.278,5.278,0,0,0-1.161-.138c-.172,0-.377.008-.617.026s-.469.044-.677.079l-.749.123V124.67h5.785V110.321h12.828V124.67h5.786V95.581A4.357,4.357,0,0,0,501.008,93.687Z" transform="translate(-315.154 -91.303)" fill="#9f5ac4" stroke="#9f5ac4" stroke-width="1.5"/></g></svg>