<?xml version="1.0" encoding="utf-8"?>
<!-- Generator: Adobe Illustrator 26.5.0, SVG Export Plug-In . SVG Version: 6.00 Build 0)  -->
<svg version="1.1" id="Layer_1" xmlns="http://www.w3.org/2000/svg" xmlns:xlink="http://www.w3.org/1999/xlink" x="0px" y="0px"
	 viewBox="0 0 232 152" style="enable-background:new 0 0 232 152;" xml:space="preserve">
<style type="text/css">
	.st0{fill:url(#Caminho_2041_00000163777085602270182150000005565821100609667996_);}
	.st1{fill:#DADAFF;}
	.st2{fill:url(#Caminho_2044_00000168827213434197043460000003393182942206327948_);}
	.st3{fill:url(#Caminho_2046_00000168821286296330409070000000484007703925957776_);}
	.st4{fill:#BCB6F9;}
	.st5{fill:#FFF0FB;}
	.st6{fill:#6C2196;}
	.st7{fill:#9F5AC4;}
	.st8{fill:url(#Caminho_2051_00000105414341379256080130000011213678967845647272_);}
	.st9{fill:#8648A8;}
</style>
<g>
	
		<linearGradient id="Caminho_2041_00000061456499441112921310000012384242983666111878_" gradientUnits="userSpaceOnUse" x1="-440.844" y1="1281.2653" x2="-439.878" y2="1281.2653" gradientTransform="matrix(81.095 0 0 -87.2618 35794.6797 111881.2422)">
		<stop  offset="0" style="stop-color:#A489FF"/>
		<stop  offset="0.646" style="stop-color:#7765D5"/>
		<stop  offset="1" style="stop-color:#6456C4"/>
	</linearGradient>
	
		<path id="Caminho_2041_00000003103841545169439910000003931534606863722149_" style="fill:url(#Caminho_2041_00000061456499441112921310000012384242983666111878_);" d="
		M122.8,43.1H87.1v5c0-8-6.5-14.5-14.5-14.5c-8,0-14.5,6.5-14.5,14.5v21.3H44.5v48.6H110c7,0,12.7-5.7,12.7-12.7V84.1h0.1
		L122.8,43.1z"/>
	<path id="Caminho_2043_00000137119996626141230850000013552695597194622620_" class="st1" d="M14.5,66.4v17.3H29v19.7
		c0.1,8,6.6,14.5,14.6,14.4c7.9-0.1,14.3-6.5,14.4-14.4v-37H14.5z"/>
	
		<linearGradient id="Caminho_2044_00000079466811629497558650000007201608943028469645_" gradientUnits="userSpaceOnUse" x1="-431.4697" y1="1245.0054" x2="-430.5036" y2="1245.0054" gradientTransform="matrix(30.0381 0 0 -23.3323 12960.5225 29126.4434)">
		<stop  offset="0" style="stop-color:#A489FF"/>
		<stop  offset="0.646" style="stop-color:#7765D5"/>
		<stop  offset="1" style="stop-color:#6456C4"/>
	</linearGradient>
	
		<path id="Caminho_2044_00000104679207986386047340000007816713105850778518_" style="fill:url(#Caminho_2044_00000079466811629497558650000007201608943028469645_);" d="
		M0,88.8v-7.9c-0.1-8,6.4-14.6,14.4-14.6c8-0.1,14.6,6.4,14.6,14.4c0,0.1,0,0.2,0,0.2v7.9H0z"/>
	
		<linearGradient id="Caminho_2046_00000074425350897721046670000005184080293029384097_" gradientUnits="userSpaceOnUse" x1="-440.7599" y1="1271.1532" x2="-439.7939" y2="1271.1532" gradientTransform="matrix(68.875 0 0 -50.275 30430.8613 63965.1133)">
		<stop  offset="0" style="stop-color:#FFFDFF"/>
		<stop  offset="0.249" style="stop-color:#F1EEFF"/>
		<stop  offset="0.721" style="stop-color:#CDC9FF"/>
		<stop  offset="1" style="stop-color:#B6B0FF"/>
	</linearGradient>
	
		<path id="Caminho_2046_00000007423837278135413610000010890691295928840835_" style="fill:url(#Caminho_2046_00000074425350897721046670000005184080293029384097_);" d="
		M140.1,82.2V46.3c0-7-5.7-12.7-12.7-12.7H73.5v0c7.6,0.5,13.6,6.8,13.6,14.5v34L140.1,82.2z"/>
	<path id="Caminho_2047_00000106135301988108618770000002173094399793696401_" class="st4" d="M127.4,50.5h-24.5
		c-1.6,0-2.9-1.3-2.9-2.9c0,0,0,0,0,0l0,0c0-1.6,1.3-2.9,2.9-2.9l0,0h24.5c1.6,0,2.9,1.3,2.9,2.9c0,0,0,0,0,0l0,0
		C130.3,49.1,129,50.5,127.4,50.5C127.4,50.5,127.4,50.5,127.4,50.5z"/>
	<path id="Caminho_2048_00000124132131043379266470000010811305316611251903_" class="st4" d="M127.4,61.2h-24.5
		c-1.6,0-2.9-1.3-2.9-2.9c0,0,0,0,0,0l0,0c0-1.6,1.3-2.9,2.9-2.9l0,0h24.5c1.6,0,2.9,1.3,2.9,2.9c0,0,0,0,0,0l0,0
		C130.3,59.9,129,61.2,127.4,61.2C127.4,61.2,127.4,61.2,127.4,61.2z"/>
	<g>
		<path id="Caminho_2049_00000165937814696028887760000016638125409014781623_" class="st5" d="M88.1,64.7c3.8,0,7.6,0.8,11.1,2.4
			c0,0,25.2,18.1,25.2,24.4c0,14.8,12,26.8,26.8,26.8H232V98.6l-7.4-3.3l-20.4-9.2l-42-18.9c-3.5-1.6-7.2-2.4-11-2.4H88.1z"/>
		<path id="Caminho_2050_00000114783940926457926950000011366563343554229636_" class="st6" d="M169.9,98.6v19.8H89.1
			c-14.8,0-26.9-11.9-26.9-26.8c0-14.8,11.9-26.9,26.8-26.9c3.9,0,7.7,0.8,11.2,2.4l17.7,8L169.9,98.6z"/>
		
			<rect id="Retângulo_698_00000172432595080090492070000012873791856561073058_" x="169.9" y="98.6" class="st7" width="62.1" height="19.8"/>
		
			<rect id="Retângulo_699_00000053528672527616370940000014982376858872485290_" x="169.9" y="115" class="st6" width="62.1" height="3.4"/>
		
			<linearGradient id="Caminho_2051_00000101809219895834182520000000384814642173363341_" gradientUnits="userSpaceOnUse" x1="-583.3206" y1="1173.4976" x2="-582.3546" y2="1173.4976" gradientTransform="matrix(55.9717 0 0 -9.54 24762.9102 11285.8467)">
			<stop  offset="0" style="stop-color:#B6B0FF"/>
			<stop  offset="0.241" style="stop-color:#AAA3FF"/>
			<stop  offset="0.663" style="stop-color:#9C94FF"/>
			<stop  offset="1" style="stop-color:#978FFF"/>
		</linearGradient>
		
			<path id="Caminho_2051_00000176023681771290802090000005941599766774511527_" style="fill:url(#Caminho_2051_00000101809219895834182520000000384814642173363341_);" d="
			M157.7,86.9l18.2,8.2c0.2,0.1,0.5,0.2,0.7,0.2h34.4c0.2,0,0.4-0.2,0.4-0.4c0-0.2-0.1-0.3-0.3-0.4L193,86.2
			c-0.2-0.1-0.5-0.2-0.7-0.2h-34.4c-0.2,0-0.4,0.2-0.4,0.4C157.4,86.7,157.5,86.8,157.7,86.9z"/>
		<g id="Grupo_2033_00000173840467265064593840000005386101388565957004_">
			<path id="Caminho_2052_00000142890487871899978980000009190412546044226975_" class="st9" d="M154.6,70.5h9.1l-7.1-3.2h-9.1
				L154.6,70.5z"/>
			<path id="Caminho_2053_00000109736621496800317640000006163166164316365444_" class="st6" d="M154.6,72.4l-7.1-3.2v-2l7.1,3.2
				V72.4z"/>
			
				<rect id="Retângulo_700_00000054259558688826830580000004599345238489055414_" x="154.6" y="70.5" class="st7" width="9.1" height="2"/>
		</g>
		<g id="Grupo_2035_00000036968661323752802080000012308925490058830782_">
			<path id="Caminho_2054_00000142147405475145768540000018139632426221949076_" class="st9" d="M138.9,70.5h9.1l-7.1-3.2h-9.1
				L138.9,70.5z"/>
			<path id="Caminho_2055_00000168813257658853155770000015130114578111757244_" class="st6" d="M138.9,72.4l-7.1-3.2v-2l7.1,3.2
				V72.4z"/>
			
				<rect id="Retângulo_701_00000165913015255142345050000004384322982862414263_" x="138.9" y="70.5" class="st7" width="9.1" height="2"/>
		</g>
		<g id="Grupo_2037_00000082369481019796240730000011501844404786993315_">
			<path id="Caminho_2056_00000061472933357520549260000015510988593447652263_" class="st9" d="M123.2,70.5h9.1l-7.1-3.2h-9.1
				L123.2,70.5z"/>
			<path id="Caminho_2057_00000006685728246143470990000017494148109339733679_" class="st6" d="M123.2,72.4l-7.1-3.2v-2l7.1,3.2
				V72.4z"/>
			
				<rect id="Retângulo_702_00000083773652800236796490000013514001862387460242_" x="123.2" y="70.5" class="st7" width="9.1" height="2"/>
		</g>
		<g id="Grupo_2040_00000107552567988229377160000005906532480988411069_">
			<path id="Caminho_2058_00000096037701359680439850000015950165982259688870_" class="st9" d="M165.9,75.6h9.1l-7.1-3.2h-9.1
				L165.9,75.6z"/>
			<path id="Caminho_2059_00000175325113653038628830000006716698372141441676_" class="st6" d="M165.9,77.6l-7.1-3.2v-2l7.1,3.2
				V77.6z"/>
			
				<rect id="Retângulo_703_00000146479399040621815720000007917009752178921124_" x="165.9" y="75.6" class="st7" width="9.1" height="2"/>
		</g>
		<g id="Grupo_2042_00000136395924705489436600000014934264175240501690_">
			<path id="Caminho_2060_00000158738222749388595050000014979904756037726898_" class="st9" d="M150.2,75.6h9.1l-7.1-3.2h-9.1
				L150.2,75.6z"/>
			<path id="Caminho_2061_00000047042669852935129250000013762426569969506740_" class="st6" d="M150.2,77.6l-7.1-3.2v-2l7.1,3.2
				V77.6z"/>
			
				<rect id="Retângulo_704_00000009556661869973013570000005301843529674872250_" x="150.2" y="75.6" class="st7" width="9.1" height="2"/>
		</g>
		<g id="Grupo_2044_00000108996434137821983160000016107793845023593112_">
			<path id="Caminho_2062_00000059297137236902988400000003411339916607973820_" class="st9" d="M134.5,75.6h9.1l-7.1-3.2h-9.1
				L134.5,75.6z"/>
			<path id="Caminho_2063_00000064350949515014130320000008328993163914306495_" class="st6" d="M134.5,77.6l-7.1-3.2v-2l7.1,3.2
				V77.6z"/>
			
				<rect id="Retângulo_705_00000090978844319024491070000010253653433861970874_" x="134.5" y="75.6" class="st7" width="9.1" height="2"/>
		</g>
		<g id="Grupo_2047_00000145753248467705107320000000597128965610783901_">
			<path id="Caminho_2064_00000142136677277392598390000013713526111054964113_" class="st9" d="M177.3,80.8h9.1l-7.1-3.2h-9.1
				L177.3,80.8z"/>
			<path id="Caminho_2065_00000048470314360935758510000008930070369317672587_" class="st6" d="M177.3,82.8l-7.1-3.2v-2l7.1,3.2
				V82.8z"/>
			
				<rect id="Retângulo_706_00000011021128239391437350000005631816718627875769_" x="177.3" y="80.8" class="st7" width="9.1" height="2"/>
		</g>
		<g id="Grupo_2049_00000130642695050526009180000001376642969951292339_">
			<path id="Caminho_2066_00000001635956300588346300000005321023315714073488_" class="st9" d="M161.6,80.8h9.1l-7.1-3.2h-9.1
				L161.6,80.8z"/>
			<path id="Caminho_2067_00000119092105349489610830000009445120042269108616_" class="st6" d="M161.6,82.8l-7.1-3.2v-2l7.1,3.2
				V82.8z"/>
			
				<rect id="Retângulo_707_00000142174165492780384050000012583962593427369372_" x="161.6" y="80.8" class="st7" width="9.1" height="2"/>
		</g>
		<g id="Grupo_2051_00000109013117777976878830000002564318064305488284_">
			<path id="Caminho_2068_00000015324103419340238360000012571474587098973115_" class="st9" d="M145.9,80.8h9.1l-7.1-3.2h-9.1
				L145.9,80.8z"/>
			<path id="Caminho_2069_00000121254908341742263150000002967596530186497162_" class="st6" d="M145.9,82.8l-7.1-3.2v-2l7.1,3.2
				V82.8z"/>
			
				<rect id="Retângulo_708_00000144323213960969313840000007164284028190811805_" x="145.9" y="80.8" class="st7" width="9.1" height="2"/>
		</g>
		<circle id="Elipse_127_00000164503708892775604980000001369811953349095864_" class="st9" cx="90.7" cy="92.2" r="13.9"/>
		<circle id="Elipse_128_00000082369012745654750360000009935179385605784473_" class="st6" cx="90.7" cy="92.2" r="5.3"/>
	</g>
</g>
</svg>
